<svg xmlns="http://www.w3.org/2000/svg" xmlns:xlink="http://www.w3.org/1999/xlink" viewBox="0 0 334.96 268.82"><defs><style>.cls-1{isolation:isolate;}.cls-2{fill:#f08306;}.cls-10,.cls-12,.cls-14,.cls-3,.cls-5,.cls-7{opacity:0.75;mix-blend-mode:color-burn;}.cls-3{fill:url(#Безымянный_градиент_20);}.cls-11,.cls-13,.cls-15,.cls-4,.cls-6,.cls-8{mix-blend-mode:overlay;}.cls-4{fill:url(#Безымянный_градиент_21);}.cls-5{fill:url(#Безымянный_градиент_20-2);}.cls-6{fill:url(#Безымянный_градиент_21-2);}.cls-7{fill:url(#Безымянный_градиент_20-3);}.cls-8{fill:url(#Безымянный_градиент_21-3);}.cls-9{fill:#f49824;}.cls-10{fill:url(#Безымянный_градиент_20-4);}.cls-11{fill:url(#Безымянный_градиент_21-4);}.cls-12{fill:url(#Безымянный_градиент_20-5);}.cls-13{fill:url(#Безымянный_градиент_21-5);}.cls-14{fill:url(#Безымянный_градиент_20-6);}.cls-15{fill:url(#Безымянный_градиент_21-6);}</style><linearGradient id="Безымянный_градиент_20" x1="-1675.03" y1="146.06" x2="-1594.42" y2="243.19" gradientTransform="matrix(-1, 0.03, 0.03, 1, -1395.49, 21.63)" gradientUnits="userSpaceOnUse"><stop offset="0" stop-color="#fcc745" stop-opacity="0"/><stop offset="0.1" stop-color="#fcc642" stop-opacity="0.06"/><stop offset="0.28" stop-color="#fcc53a" stop-opacity="0.22"/><stop offset="0.53" stop-color="#fbc22d" stop-opacity="0.47"/><stop offset="0.85" stop-color="#fabf1c" stop-opacity="0.82"/><stop offset="1" stop-color="#fabd13"/></linearGradient><linearGradient id="Безымянный_градиент_21" x1="-1637.73" y1="194.39" x2="-1487.19" y2="565.4" gradientTransform="matrix(-1, 0.03, 0.03, 1, -1395.49, 21.63)" gradientUnits="userSpaceOnUse"><stop offset="0.01" stop-color="#fcc745" stop-opacity="0"/><stop offset="0.01" stop-color="#fcc744" stop-opacity="0.02"/><stop offset="0.05" stop-color="#fcc53b" stop-opacity="0.2"/><stop offset="0.09" stop-color="#fbc332" stop-opacity="0.37"/><stop offset="0.14" stop-color="#fbc22b" stop-opacity="0.52"/><stop offset="0.2" stop-color="#fbc024" stop-opacity="0.65"/><stop offset="0.25" stop-color="#fabf1f" stop-opacity="0.76"/><stop offset="0.32" stop-color="#fabe1a" stop-opacity="0.85"/><stop offset="0.4" stop-color="#fabe17" stop-opacity="0.92"/><stop offset="0.49" stop-color="#fabd15" stop-opacity="0.97"/><stop offset="0.63" stop-color="#fabd13" stop-opacity="0.99"/><stop offset="1" stop-color="#fabd13"/></linearGradient><linearGradient id="Безымянный_градиент_20-2" x1="-1712.43" y1="36.36" x2="-1653.65" y2="107.19" gradientTransform="matrix(-1, -0.01, -0.01, 1, -1402.62, -4.55)" xlink:href="#Безымянный_градиент_20"/><linearGradient id="Безымянный_градиент_21-2" x1="-1685.23" y1="71.61" x2="-1575.45" y2="342.17" gradientTransform="matrix(-1, -0.01, -0.01, 1, -1402.62, -4.55)" xlink:href="#Безымянный_градиент_21"/><linearGradient id="Безымянный_градиент_20-3" x1="-1703.38" y1="-35.62" x2="-1663.59" y2="12.32" gradientTransform="matrix(-1, -0.04, -0.04, 1, -1407.62, -28.29)" xlink:href="#Безымянный_градиент_20"/><linearGradient id="Безымянный_градиент_21-3" x1="-1684.97" y1="-11.77" x2="-1610.65" y2="171.38" gradientTransform="matrix(-1, -0.04, -0.04, 1, -1407.62, -28.29)" xlink:href="#Безымянный_градиент_21"/><linearGradient id="Безымянный_градиент_20-4" x1="-91.74" y1="104.08" x2="-11.13" y2="201.2" gradientTransform="translate(146.61 21.63) rotate(1.52)" xlink:href="#Безымянный_градиент_20"/><linearGradient id="Безымянный_градиент_21-4" x1="-54.44" y1="152.41" x2="96.1" y2="523.42" gradientTransform="translate(146.61 21.63) rotate(1.52)" xlink:href="#Безымянный_градиент_21"/><linearGradient id="Безымянный_градиент_20-5" x1="-128.67" y1="51.27" x2="-69.88" y2="122.1" gradientTransform="matrix(1, -0.01, 0.01, 1, 153.74, -4.55)" xlink:href="#Безымянный_градиент_20"/><linearGradient id="Безымянный_градиент_21-5" x1="-101.46" y1="86.52" x2="8.32" y2="357.07" gradientTransform="matrix(1, -0.01, 0.01, 1, 153.74, -4.55)" xlink:href="#Безымянный_градиент_21"/><linearGradient id="Безымянный_градиент_20-6" x1="-121.05" y1="33.42" x2="-81.25" y2="81.37" gradientTransform="matrix(1, -0.04, 0.04, 1, 158.74, -28.29)" xlink:href="#Безымянный_градиент_20"/><linearGradient id="Безымянный_градиент_21-6" x1="-102.63" y1="57.28" x2="-28.32" y2="240.42" gradientTransform="matrix(1, -0.04, 0.04, 1, 158.74, -28.29)" xlink:href="#Безымянный_градиент_21"/></defs><g class="cls-1"><g id="Слой_2" data-name="Слой 2"><g id="Слой_1-2" data-name="Слой 1"><path class="cls-2" d="M282.65,168.82c15.07-15.18,25.76-41.91,31.72-59.43a73.36,73.36,0,0,0,2.68-9.56,12,12,0,0,0-1.59.06,9.37,9.37,0,0,0-2,.58,7.33,7.33,0,0,0-1.62,1,.24.24,0,0,0-.14.1c-1,.82-1.83,1.69-2.8,2.42-30.25,25.25-60.69,50.28-90.67,75.87A132.43,132.43,0,0,0,182.78,227a145.07,145.07,0,0,0-10,32.43,26.3,26.3,0,0,0-.35,4.95,17.89,17.89,0,0,0,.46,4.46Z"/><path class="cls-3" d="M182.78,227c29.79-16.14,59.05-33.49,84.44-58.08,17.18-16.66,36.95-41.27,47.15-59.51a73.36,73.36,0,0,0,2.68-9.56,12,12,0,0,0-1.59.06,9.37,9.37,0,0,0-2,.58c-.57.3-1.05.67-1.62,1a.24.24,0,0,0-.14.1c-1,.82-1.83,1.69-2.8,2.42-30.25,25.25-60.69,50.28-90.67,75.87A132.43,132.43,0,0,0,182.78,227Z"/><path class="cls-4" d="M172.91,268.82a17,17,0,0,1-.46-4.34,26.8,26.8,0,0,1,.35-5.07,145.31,145.31,0,0,1,10-32.44c29.79-16.13,59.05-33.48,84.44-58.07,17.18-16.66,36.95-41.27,47.15-59.51"/><path class="cls-2" d="M308.08,81.14C319.46,70.47,328,51.27,332.75,38.66a51.43,51.43,0,0,0,2.21-6.9,9,9,0,0,0-1.16,0,7.09,7.09,0,0,0-1.51.36,5.28,5.28,0,0,0-1.21.67.23.23,0,0,0-.1.07c-.77.57-1.38,1.18-2.1,1.69-22.71,17.6-45.55,35.05-68.07,52.92a96.44,96.44,0,0,0-27,33.43,105.86,105.86,0,0,0-8.13,23.37,19.72,19.72,0,0,0-.38,3.6,13,13,0,0,0,.22,3.27Z"/><path class="cls-5" d="M233.78,120.91c22.13-11,43.9-22.86,63.06-40.12,13-11.69,28-29.11,35.91-42.13a51.43,51.43,0,0,0,2.21-6.9,9,9,0,0,0-1.16,0,7.09,7.09,0,0,0-1.51.36c-.42.21-.79.46-1.21.67a.23.23,0,0,0-.1.07c-.77.57-1.38,1.18-2.1,1.69-22.71,17.6-45.55,35.05-68.07,52.92A96.44,96.44,0,0,0,233.78,120.91Z"/><path class="cls-6" d="M225.49,151.14a12.2,12.2,0,0,1-.23-3.17,20.72,20.72,0,0,1,.39-3.69,105.86,105.86,0,0,1,8.13-23.37c22.13-11,43.9-22.86,63.06-40.12,13-11.69,28-29.11,35.91-42.13"/><path class="cls-2" d="M294,32.81c7.94-7,14.13-19.74,17.67-28.16A36,36,0,0,0,313.36,0a5.08,5.08,0,0,0-.78,0,4.09,4.09,0,0,0-1,.21,3.48,3.48,0,0,0-.84.42.25.25,0,0,0-.07,0c-.53.36-1,.76-1.46,1.09C293.41,13.17,277.56,24.44,261.91,36a65.25,65.25,0,0,0-19.06,22,71.4,71.4,0,0,0-6,15.62,13.29,13.29,0,0,0-.34,2.43,8.23,8.23,0,0,0,.07,2.21Z"/><path class="cls-7" d="M242.85,58c15.22-6.92,30.23-14.45,43.59-25.68,9-7.61,19.62-19,25.27-27.67A36,36,0,0,0,313.36,0a5.08,5.08,0,0,0-.78,0,4.09,4.09,0,0,0-1,.21c-.3.13-.55.29-.84.42a.25.25,0,0,0-.07,0c-.53.36-1,.76-1.46,1.09C293.41,13.17,277.56,24.44,261.91,36A65.25,65.25,0,0,0,242.85,58Z"/><path class="cls-8" d="M236.54,78.26a8.19,8.19,0,0,1-.08-2.15,14,14,0,0,1,.35-2.49,71.4,71.4,0,0,1,6-15.62c15.22-6.92,30.23-14.45,43.59-25.68,9-7.61,19.62-19,25.27-27.67"/><path class="cls-9" d="M52.31,168.82c-15.07-15.18-25.76-41.91-31.72-59.43a73.36,73.36,0,0,1-2.68-9.56,12,12,0,0,1,1.59.06,9.37,9.37,0,0,1,2.05.58,7.33,7.33,0,0,1,1.62,1,.24.24,0,0,1,.14.1c1,.82,1.83,1.69,2.8,2.42,30.25,25.25,60.69,50.28,90.67,75.87A132.43,132.43,0,0,1,152.18,227a145.07,145.07,0,0,1,10,32.43,26.3,26.3,0,0,1,.35,4.95,17.89,17.89,0,0,1-.46,4.46Z"/><path class="cls-10" d="M152.18,227c-29.8-16.14-59.05-33.49-84.44-58.08-17.18-16.66-36.95-41.27-47.15-59.51a73.36,73.36,0,0,1-2.68-9.56,12,12,0,0,1,1.59.06,9.37,9.37,0,0,1,2.05.58c.57.3,1.05.67,1.62,1a.24.24,0,0,1,.14.1c1,.82,1.83,1.69,2.8,2.42,30.25,25.25,60.69,50.28,90.67,75.87A132.43,132.43,0,0,1,152.18,227Z"/><path class="cls-11" d="M162.05,268.82a17,17,0,0,0,.46-4.34,26.8,26.8,0,0,0-.35-5.07,145.31,145.31,0,0,0-10-32.44c-29.8-16.13-59.05-33.48-84.44-58.07-17.18-16.66-36.95-41.27-47.15-59.51"/><path class="cls-9" d="M26.88,81.14C15.5,70.47,7,51.27,2.21,38.66A51.43,51.43,0,0,1,0,31.76a9,9,0,0,1,1.16,0,7.09,7.09,0,0,1,1.51.36,5.49,5.49,0,0,1,1.21.67.23.23,0,0,1,.1.07c.77.57,1.38,1.18,2.1,1.69,22.71,17.6,45.55,35.05,68.07,52.92a96.44,96.44,0,0,1,27,33.43,105.86,105.86,0,0,1,8.13,23.37,19.72,19.72,0,0,1,.38,3.6,13,13,0,0,1-.22,3.27Z"/><path class="cls-12" d="M101.18,120.91c-22.13-11-43.91-22.86-63.06-40.12C25.17,69.1,10.12,51.68,2.21,38.66A51.43,51.43,0,0,1,0,31.76a9,9,0,0,1,1.16,0,7.09,7.09,0,0,1,1.51.36c.42.21.78.46,1.21.67a.23.23,0,0,1,.1.07c.77.57,1.38,1.18,2.1,1.69,22.71,17.6,45.55,35.05,68.07,52.92A96.44,96.44,0,0,1,101.18,120.91Z"/><path class="cls-13" d="M109.47,151.14a12.2,12.2,0,0,0,.23-3.17,20.72,20.72,0,0,0-.39-3.69,105.86,105.86,0,0,0-8.13-23.37c-22.13-11-43.91-22.86-63.06-40.12C25.17,69.1,10.12,51.68,2.21,38.66"/><path class="cls-9" d="M40.92,32.81C33,25.86,26.79,13.07,23.25,4.65A36,36,0,0,1,21.6,0a5.08,5.08,0,0,1,.78,0,4.28,4.28,0,0,1,1,.21,3.67,3.67,0,0,1,.84.42.25.25,0,0,1,.07,0c.53.36,1,.76,1.46,1.09C41.55,13.17,57.4,24.44,73.05,36A65.25,65.25,0,0,1,92.11,58a71.4,71.4,0,0,1,6,15.62,13.29,13.29,0,0,1,.34,2.43,8.23,8.23,0,0,1-.07,2.21Z"/><path class="cls-14" d="M92.11,58C76.88,51.08,61.88,43.55,48.52,32.32c-9-7.61-19.62-19-25.27-27.67A36,36,0,0,1,21.6,0a5.08,5.08,0,0,1,.78,0,4.28,4.28,0,0,1,1,.21c.29.13.55.29.84.42a.25.25,0,0,1,.07,0c.53.36,1,.76,1.46,1.09C41.55,13.17,57.4,24.44,73.05,36A65.25,65.25,0,0,1,92.11,58Z"/><path class="cls-15" d="M98.42,78.26a8.19,8.19,0,0,0,.08-2.15,14,14,0,0,0-.35-2.49,71.4,71.4,0,0,0-6-15.62C76.88,51.08,61.88,43.55,48.52,32.32c-9-7.61-19.62-19-25.27-27.67"/></g></g></g></svg>