<svg width="237" height="75" viewBox="0 0 237 75" fill="none" xmlns="http://www.w3.org/2000/svg">
<g clip-path="url(#clip0_40_750)">
<path d="M78.0802 46.6366C82.2594 42.4574 85.1977 35.0634 86.8436 30.2188C87.1499 29.3569 87.397 28.475 87.583 27.5795C87.4375 27.5682 87.2913 27.5682 87.1458 27.5795C86.9508 27.6101 86.7599 27.663 86.5768 27.737C86.4175 27.8087 86.2675 27.8994 86.1299 28.007C86.1149 28.0118 86.1015 28.0207 86.0914 28.0327C85.8085 28.261 85.5866 28.4989 85.3198 28.7046C76.9614 35.6774 68.5548 42.5924 60.2736 49.6617C56.0744 53.2126 52.7306 57.6652 50.4911 62.6879C49.2266 65.5568 48.3019 68.5637 47.736 71.6474C47.6604 72.0987 47.6281 72.5562 47.6396 73.0137C47.629 73.4288 47.6712 73.8436 47.765 74.2482L78.0802 46.6366Z" fill="#F08306"/>
<path style="mix-blend-mode:color-burn" opacity="0.75" d="M50.4911 62.6879C58.7241 58.2322 66.8028 53.439 73.8206 46.643C78.5656 42.0427 84.0243 35.2434 86.8436 30.2059C87.1499 29.344 87.397 28.4622 87.583 27.5666C87.4375 27.5553 87.2913 27.5553 87.1458 27.5666C86.9508 27.5973 86.7599 27.6501 86.5768 27.7241C86.4193 27.8077 86.2875 27.9106 86.1299 27.9941C86.1149 27.9989 86.1015 28.0078 86.0914 28.0199C85.8085 28.2481 85.5866 28.486 85.3198 28.6917C76.9614 35.6646 68.5548 42.5795 60.2736 49.6488C56.0729 53.2034 52.7289 57.6606 50.4911 62.6879Z" fill="url(#paint0_linear_40_750)"/>
<path style="mix-blend-mode:overlay" d="M47.765 74.2611C47.6717 73.8684 47.6285 73.4655 47.6364 73.0619C47.6276 72.5927 47.661 72.1236 47.736 71.6603C48.301 68.5722 49.2256 65.5609 50.4911 62.6879C58.7241 58.2322 66.8028 53.439 73.8206 46.643C78.5656 42.0427 84.0243 35.2435 86.8436 30.2059" fill="url(#paint1_linear_40_750)"/>
<path d="M85.1076 22.4133C88.2517 19.4686 90.5952 14.1642 91.9229 10.6794C92.1686 10.0585 92.3716 9.42161 92.5305 8.77307C92.4235 8.76485 92.3161 8.76485 92.2091 8.77307C92.0664 8.7903 91.9262 8.82373 91.7911 8.87273C91.6762 8.92047 91.5682 8.98316 91.4697 9.05918C91.4603 9.056 91.4501 9.056 91.4407 9.05918C91.2286 9.21671 91.0614 9.38066 90.8621 9.52854C84.5869 14.3893 78.2795 19.2114 72.0589 24.1461C68.9061 26.6234 66.3534 29.7805 64.591 33.3821C63.5912 35.4385 62.8359 37.605 62.3407 39.8373C62.2743 40.1643 62.2398 40.497 62.2378 40.8307C62.2188 41.133 62.2383 41.4366 62.2957 41.734L85.1076 22.4133Z" fill="#F08306"/>
<path style="mix-blend-mode:color-burn" opacity="0.75" d="M64.5814 33.4014C70.6894 30.3666 76.7107 27.0876 81.999 22.3169C85.5802 19.1021 89.7369 14.28 91.923 10.6794C92.1686 10.0585 92.3716 9.42161 92.5305 8.77307C92.4235 8.76485 92.3161 8.76485 92.2091 8.77307C92.0664 8.7903 91.9262 8.82373 91.7911 8.87273C91.6722 8.93059 91.5725 9.00132 91.4697 9.05918C91.4603 9.056 91.4501 9.056 91.4407 9.05918C91.2286 9.21671 91.0614 9.38066 90.8621 9.52854C84.5869 14.3893 78.2795 19.2114 72.0589 24.1461C68.9004 26.6278 66.3441 29.7919 64.5814 33.4014Z" fill="url(#paint2_linear_40_750)"/>
<path style="mix-blend-mode:overlay" d="M62.2892 41.7533C62.2308 41.4647 62.2103 41.1697 62.2282 40.8757C62.2327 40.5335 62.2682 40.1924 62.3343 39.8566C62.8295 37.6243 63.5848 35.4578 64.5846 33.4014C70.6926 30.3667 76.7139 27.0876 82.0022 22.3169C85.5834 19.1021 89.7401 14.28 91.9262 10.6794" fill="url(#paint3_linear_40_750)"/>
<path d="M81.2274 9.06562C83.4199 7.13677 85.1302 3.60053 86.1074 1.28268C86.29 0.865438 86.4425 0.435713 86.5639 -0.00322411C86.4922 -0.00803988 86.4203 -0.00803988 86.3485 -0.00322411C86.2513 0.00686144 86.1553 0.0273384 86.0624 0.0578564C85.9815 0.0861231 85.9048 0.125043 85.8342 0.173588H85.8149C85.667 0.27646 85.5481 0.385762 85.4098 0.475776C81.0538 3.63589 76.6753 6.75099 72.3515 9.94647C70.162 11.5504 68.3621 13.6271 67.0857 16.0224C66.3628 17.3903 65.8028 18.8382 65.4172 20.3366C65.3651 20.5571 65.3338 20.7821 65.324 21.0085C65.3032 21.212 65.3097 21.4174 65.3433 21.6193L81.2274 9.06562Z" fill="#F08306"/>
<path style="mix-blend-mode:color-burn" opacity="0.75" d="M67.0857 16.0224C71.2906 14.1128 75.4441 12.0297 79.1282 8.92741C81.6229 6.82495 84.5483 3.66806 86.1075 1.28592C86.29 0.868673 86.4425 0.438948 86.5639 1.07521e-05C86.4922 -0.00480502 86.4203 -0.00480502 86.3486 1.07521e-05C86.2513 0.0100963 86.1554 0.0305733 86.0624 0.0610913C85.9821 0.0964537 85.9146 0.14146 85.8342 0.176823H85.8149C85.667 0.279695 85.5481 0.388997 85.4098 0.479011C81.0538 3.63591 76.6753 6.75101 72.3515 9.94649C70.162 11.5504 68.3621 13.6272 67.0857 16.0224Z" fill="url(#paint4_linear_40_750)"/>
<path style="mix-blend-mode:overlay" d="M65.3433 21.6193C65.3087 21.423 65.3011 21.2229 65.3208 21.0246C65.3319 20.7928 65.3642 20.5625 65.4172 20.3366C65.8028 18.8383 66.3628 17.3903 67.0857 16.0224C71.2906 14.1129 75.4441 12.0297 79.1282 8.92744C81.6229 6.82499 84.5483 3.66809 86.1075 1.28595" fill="url(#paint5_linear_40_750)"/>
<path d="M14.4664 46.6366C10.2872 42.4349 7.33609 35.0602 5.69013 30.2188C5.3814 29.3574 5.13325 28.4755 4.94752 27.5795C5.09411 27.5682 5.24135 27.5682 5.38794 27.5795C5.58185 27.6106 5.77165 27.6634 5.95374 27.737C6.11375 27.8073 6.26396 27.898 6.40059 28.007C6.41562 28.0118 6.42899 28.0207 6.43917 28.0327C6.72528 28.261 6.94389 28.4989 7.21071 28.7046C15.5691 35.6774 23.9757 42.5924 32.2601 49.6617C36.4574 53.2137 39.8 57.6661 42.0395 62.6879C43.305 65.5566 44.2307 68.5636 44.7977 71.6474C44.8707 72.099 44.9019 72.5564 44.891 73.0137C44.9015 73.4288 44.8594 73.8436 44.7656 74.2482L14.4664 46.6366Z" fill="#F49824"/>
<path style="mix-blend-mode:color-burn" opacity="0.75" d="M42.0395 62.6879C33.8097 58.2322 25.7277 53.439 18.7131 46.643C13.9681 42.0555 8.50626 35.2563 5.69013 30.2188C5.3814 29.3574 5.13325 28.4755 4.94752 27.5795C5.09411 27.5682 5.24135 27.5682 5.38794 27.5795C5.58185 27.6106 5.77165 27.6634 5.95374 27.737C6.11126 27.8206 6.24307 27.9234 6.40059 28.007C6.41562 28.0118 6.42899 28.0207 6.43917 28.0327C6.72528 28.261 6.94389 28.4989 7.21071 28.7046C15.5691 35.6774 23.9757 42.5924 32.2601 49.6617C36.4574 53.2137 39.8 57.6661 42.0395 62.6879Z" fill="url(#paint6_linear_40_750)"/>
<path style="mix-blend-mode:overlay" d="M44.7656 74.2611C44.8604 73.8687 44.9036 73.4656 44.8942 73.062C44.904 72.5928 44.8717 72.1237 44.7977 71.6603C44.2317 68.5721 43.306 65.5608 42.0395 62.6879C33.8097 58.2323 25.7278 53.439 18.7131 46.643C13.9681 42.0556 8.50626 35.2563 5.69013 30.2188" fill="url(#paint7_linear_40_750)"/>
<path d="M7.42289 22.4133C4.28206 19.4686 1.92886 14.1642 0.610805 10.6794C0.36275 10.0591 0.158644 9.42204 0 8.77305C0.107008 8.76502 0.214468 8.76502 0.321476 8.77305C0.463068 8.7903 0.602213 8.82374 0.736181 8.87271C0.851074 8.92045 0.959165 8.98315 1.05766 9.05917C1.06704 9.05598 1.07721 9.05598 1.08659 9.05917C1.29876 9.21669 1.46593 9.38064 1.66846 9.52852C7.95332 14.4085 14.2607 19.2307 20.4845 24.1653C23.6419 26.6421 26.2001 29.7991 27.9684 33.4014C28.9683 35.4578 29.7235 37.6243 30.2188 39.8566C30.2848 40.1837 30.3203 40.5163 30.3249 40.85C30.3428 41.1525 30.3222 41.456 30.2638 41.7533L7.42289 22.4133Z" fill="#F49824"/>
<path style="mix-blend-mode:color-burn" opacity="0.75" d="M27.9684 33.4014C21.8604 30.3666 15.8391 27.0876 10.5476 22.3168C6.96961 19.1021 2.8097 14.2799 0.626879 10.6794C0.373362 10.0595 0.163883 9.42245 0 8.77305C0.107008 8.76502 0.214468 8.76502 0.321476 8.77305C0.463068 8.7903 0.602213 8.82374 0.736181 8.87271C0.855127 8.93058 0.954785 9.0013 1.05766 9.05917C1.06704 9.05598 1.07721 9.05598 1.08659 9.05917C1.29876 9.21669 1.46593 9.38064 1.66846 9.52852C7.95332 14.4085 14.2607 19.2307 20.4845 24.1653C23.6419 26.6421 26.2001 29.7991 27.9684 33.4014Z" fill="url(#paint8_linear_40_750)"/>
<path style="mix-blend-mode:overlay" d="M30.2413 41.7533C30.2997 41.4647 30.3203 41.1697 30.3024 40.8757C30.2978 40.5335 30.2623 40.1924 30.1963 39.8566C29.701 37.6243 28.9457 35.4578 27.9459 33.4014C21.8379 30.3667 15.8166 27.0876 10.5251 22.3169C6.9471 19.1021 2.78719 14.28 0.60437 10.6794" fill="url(#paint9_linear_40_750)"/>
<path d="M11.3063 9.06565C9.11064 7.14322 7.39396 3.61019 6.42953 1.28592C6.247 0.868677 6.09445 0.438952 5.97303 1.47829e-05C6.04475 -0.00472498 6.1167 -0.00472498 6.18842 1.47829e-05C6.28575 0.00977306 6.3817 0.0302576 6.47453 0.0610953C6.55542 0.089362 6.63218 0.128282 6.70278 0.176827C6.7102 0.175266 6.71786 0.175266 6.72528 0.176827C6.87316 0.279699 6.9889 0.389001 7.12713 0.479015C11.4767 3.63591 15.8584 6.75102 20.1791 9.94649C22.3695 11.5494 24.1695 13.6264 25.4449 16.0224C26.1677 17.3903 26.7277 18.8383 27.1133 20.3366C27.1665 20.557 27.1988 20.782 27.2098 21.0085C27.2279 21.2122 27.2203 21.4174 27.1873 21.6193L11.3063 9.06565Z" fill="#F49824"/>
<path style="mix-blend-mode:color-burn" opacity="0.75" d="M25.4449 16.0224C21.2399 14.1128 17.0865 12.0297 13.4056 8.92741C10.9077 6.82496 7.98547 3.66806 6.42953 1.28592C6.247 0.868677 6.09445 0.438952 5.97303 1.47829e-05C6.04475 -0.00472498 6.1167 -0.00472498 6.18842 1.47829e-05C6.28575 0.00977306 6.3817 0.0302576 6.47453 0.0610953C6.5549 0.0964577 6.62241 0.141464 6.70278 0.176827C6.7102 0.175266 6.71786 0.175266 6.72528 0.176827C6.87316 0.279699 6.9889 0.389001 7.12713 0.479015C11.4767 3.63591 15.8584 6.75102 20.1791 9.94649C22.3695 11.5494 24.1695 13.6264 25.4449 16.0224Z" fill="url(#paint10_linear_40_750)"/>
<path style="mix-blend-mode:overlay" d="M27.1873 21.6193C27.2219 21.423 27.2294 21.2229 27.2098 21.0246C27.2003 20.7927 27.168 20.5622 27.1133 20.3366C26.7277 18.8383 26.1677 17.3903 25.4449 16.0224C21.2399 14.1129 17.0865 12.0297 13.4056 8.92744C10.9077 6.82499 7.98547 3.66809 6.42953 1.28595" fill="url(#paint11_linear_40_750)"/>
<path d="M110.903 43.7087H109.063L114.386 29.2107H116.198L121.522 43.7087H119.681L115.349 31.5043H115.236L110.903 43.7087ZM111.583 38.0454H119.002V39.6028H111.583V38.0454ZM123.78 43.7087V29.2107H128.679C129.816 29.2107 130.746 29.416 131.468 29.8266C132.195 30.2324 132.733 30.7822 133.082 31.476C133.431 32.1697 133.606 32.9437 133.606 33.7979C133.606 34.6522 133.431 35.4285 133.082 36.127C132.737 36.8254 132.204 37.3823 131.482 37.7976C130.76 38.2082 129.835 38.4135 128.707 38.4135H125.196V36.8561H128.65C129.429 36.8561 130.055 36.7216 130.526 36.4526C130.998 36.1836 131.341 35.8202 131.553 35.3624C131.77 34.8999 131.879 34.3784 131.879 33.7979C131.879 33.2175 131.77 32.6983 131.553 32.2405C131.341 31.7828 130.996 31.4241 130.519 31.1645C130.043 30.9002 129.41 30.7681 128.622 30.7681H125.536V43.7087H123.78ZM136.434 29.2107H138.161V40.6222H138.303L146.231 29.2107H147.93V43.7087H146.175V32.3255H146.033L138.133 43.7087H136.434V29.2107ZM163.11 33.7413H161.354C161.25 33.2363 161.069 32.7927 160.809 32.4104C160.554 32.0282 160.243 31.7072 159.875 31.4477C159.511 31.1834 159.108 30.9852 158.664 30.853C158.22 30.7209 157.758 30.6548 157.277 30.6548C156.399 30.6548 155.604 30.8766 154.891 31.3203C154.183 31.7639 153.619 32.4175 153.199 33.2812C152.784 34.1448 152.576 35.2043 152.576 36.4597C152.576 37.715 152.784 38.7745 153.199 39.6382C153.619 40.5018 154.183 41.1555 154.891 41.5991C155.604 42.0427 156.399 42.2645 157.277 42.2645C157.758 42.2645 158.22 42.1985 158.664 42.0663C159.108 41.9342 159.511 41.7383 159.875 41.4788C160.243 41.2145 160.554 40.8912 160.809 40.5089C161.069 40.1219 161.25 39.6783 161.354 39.1781H163.11C162.978 39.919 162.737 40.5821 162.388 41.1673C162.038 41.7525 161.604 42.2504 161.085 42.661C160.566 43.0668 159.983 43.376 159.337 43.5883C158.695 43.8007 158.008 43.9069 157.277 43.9069C156.04 43.9069 154.94 43.6049 153.978 43.0008C153.015 42.3967 152.258 41.5378 151.705 40.424C151.153 39.3102 150.877 37.9888 150.877 36.4597C150.877 34.9306 151.153 33.6092 151.705 32.4954C152.258 31.3816 153.015 30.5227 153.978 29.9186C154.94 29.3145 156.04 29.0125 157.277 29.0125C158.008 29.0125 158.695 29.1187 159.337 29.331C159.983 29.5434 160.566 29.8549 161.085 30.2655C161.604 30.6713 162.038 31.1669 162.388 31.7521C162.737 32.3326 162.978 32.9956 163.11 33.7413ZM165.154 30.7681V29.2107H176.027V30.7681H171.468V43.7087H169.713V30.7681H165.154ZM178.737 43.7087V29.2107H187.487V30.7681H180.493V35.6668H187.034V37.2242H180.493V42.1513H187.6V43.7087H178.737ZM190.651 29.2107H192.378V40.6222H192.52L200.448 29.2107H202.147V43.7087H200.392V32.3255H200.25L192.35 43.7087H190.651V29.2107ZM197.787 25.5862H199.344C199.344 26.3507 199.08 26.976 198.551 27.4621C198.023 27.9482 197.305 28.1913 196.399 28.1913C195.507 28.1913 194.797 27.9482 194.268 27.4621C193.745 26.976 193.483 26.3507 193.483 25.5862H195.04C195.04 25.9543 195.142 26.2776 195.344 26.556C195.552 26.8345 195.904 26.9737 196.399 26.9737C196.895 26.9737 197.249 26.8345 197.461 26.556C197.678 26.2776 197.787 25.9543 197.787 25.5862Z" fill="#1F1F1F"/>
</g>
<defs>
<linearGradient id="paint0_linear_40_750" x1="78.1036" y1="35.3157" x2="56.6399" y2="62.8141" gradientUnits="userSpaceOnUse">
<stop stop-color="#FCC745" stop-opacity="0"/>
<stop offset="0.1" stop-color="#FCC642" stop-opacity="0.06"/>
<stop offset="0.28" stop-color="#FCC53A" stop-opacity="0.22"/>
<stop offset="0.53" stop-color="#FBC22D" stop-opacity="0.47"/>
<stop offset="0.85" stop-color="#FABF1C" stop-opacity="0.82"/>
<stop offset="1" stop-color="#FABD13"/>
</linearGradient>
<linearGradient id="paint1_linear_40_750" x1="68.2009" y1="48.9757" x2="29.6894" y2="152.713" gradientUnits="userSpaceOnUse">
<stop offset="0.01" stop-color="#FCC744" stop-opacity="0.02"/>
<stop offset="0.05" stop-color="#FCC53B" stop-opacity="0.2"/>
<stop offset="0.09" stop-color="#FBC332" stop-opacity="0.37"/>
<stop offset="0.14" stop-color="#FBC22B" stop-opacity="0.52"/>
<stop offset="0.2" stop-color="#FBC024" stop-opacity="0.65"/>
<stop offset="0.25" stop-color="#FABF1F" stop-opacity="0.76"/>
<stop offset="0.32" stop-color="#FABE1A" stop-opacity="0.85"/>
<stop offset="0.4" stop-color="#FABE17" stop-opacity="0.92"/>
<stop offset="0.49" stop-color="#FABD15" stop-opacity="0.97"/>
<stop offset="0.63" stop-color="#FABD13" stop-opacity="0.99"/>
<stop offset="1" stop-color="#FABD13"/>
</linearGradient>
<linearGradient id="paint2_linear_40_750" x1="85.4492" y1="13.046" x2="69.0126" y2="32.4487" gradientUnits="userSpaceOnUse">
<stop stop-color="#FCC745" stop-opacity="0"/>
<stop offset="0.1" stop-color="#FCC642" stop-opacity="0.06"/>
<stop offset="0.28" stop-color="#FCC53A" stop-opacity="0.22"/>
<stop offset="0.53" stop-color="#FBC22D" stop-opacity="0.47"/>
<stop offset="0.85" stop-color="#FABF1C" stop-opacity="0.82"/>
<stop offset="1" stop-color="#FABD13"/>
</linearGradient>
<linearGradient id="paint3_linear_40_750" x1="77.8357" y1="22.7052" x2="46.7635" y2="97.142" gradientUnits="userSpaceOnUse">
<stop offset="0.01" stop-color="#FCC744" stop-opacity="0.02"/>
<stop offset="0.05" stop-color="#FCC53B" stop-opacity="0.2"/>
<stop offset="0.09" stop-color="#FBC332" stop-opacity="0.37"/>
<stop offset="0.14" stop-color="#FBC22B" stop-opacity="0.52"/>
<stop offset="0.2" stop-color="#FBC024" stop-opacity="0.65"/>
<stop offset="0.25" stop-color="#FABF1F" stop-opacity="0.76"/>
<stop offset="0.32" stop-color="#FABE1A" stop-opacity="0.85"/>
<stop offset="0.4" stop-color="#FABE17" stop-opacity="0.92"/>
<stop offset="0.49" stop-color="#FABD15" stop-opacity="0.97"/>
<stop offset="0.63" stop-color="#FABD13" stop-opacity="0.99"/>
<stop offset="1" stop-color="#FABD13"/>
</linearGradient>
<linearGradient id="paint4_linear_40_750" x1="81.4069" y1="4.01654" x2="69.8859" y2="16.8217" gradientUnits="userSpaceOnUse">
<stop stop-color="#FCC745" stop-opacity="0"/>
<stop offset="0.1" stop-color="#FCC642" stop-opacity="0.06"/>
<stop offset="0.28" stop-color="#FCC53A" stop-opacity="0.22"/>
<stop offset="0.53" stop-color="#FBC22D" stop-opacity="0.47"/>
<stop offset="0.85" stop-color="#FABF1C" stop-opacity="0.82"/>
<stop offset="1" stop-color="#FABD13"/>
</linearGradient>
<linearGradient id="paint5_linear_40_750" x1="76.0576" y1="10.4034" x2="53.5076" y2="60.1763" gradientUnits="userSpaceOnUse">
<stop offset="0.01" stop-color="#FCC744" stop-opacity="0.02"/>
<stop offset="0.05" stop-color="#FCC53B" stop-opacity="0.2"/>
<stop offset="0.09" stop-color="#FBC332" stop-opacity="0.37"/>
<stop offset="0.14" stop-color="#FBC22B" stop-opacity="0.52"/>
<stop offset="0.2" stop-color="#FBC024" stop-opacity="0.65"/>
<stop offset="0.25" stop-color="#FABF1F" stop-opacity="0.76"/>
<stop offset="0.32" stop-color="#FABE1A" stop-opacity="0.85"/>
<stop offset="0.4" stop-color="#FABE17" stop-opacity="0.92"/>
<stop offset="0.49" stop-color="#FABD15" stop-opacity="0.97"/>
<stop offset="0.63" stop-color="#FABD13" stop-opacity="0.99"/>
<stop offset="1" stop-color="#FABD13"/>
</linearGradient>
<linearGradient id="paint6_linear_40_750" x1="14.403" y1="34.0427" x2="35.9522" y2="61.4544" gradientUnits="userSpaceOnUse">
<stop stop-color="#FCC745" stop-opacity="0"/>
<stop offset="0.1" stop-color="#FCC642" stop-opacity="0.06"/>
<stop offset="0.28" stop-color="#FCC53A" stop-opacity="0.22"/>
<stop offset="0.53" stop-color="#FBC22D" stop-opacity="0.47"/>
<stop offset="0.85" stop-color="#FABF1C" stop-opacity="0.82"/>
<stop offset="1" stop-color="#FABD13"/>
</linearGradient>
<linearGradient id="paint7_linear_40_750" x1="24.3486" y1="47.6623" x2="63.2015" y2="151.219" gradientUnits="userSpaceOnUse">
<stop offset="0.01" stop-color="#FCC744" stop-opacity="0.02"/>
<stop offset="0.05" stop-color="#FCC53B" stop-opacity="0.2"/>
<stop offset="0.09" stop-color="#FBC332" stop-opacity="0.37"/>
<stop offset="0.14" stop-color="#FBC22B" stop-opacity="0.52"/>
<stop offset="0.2" stop-color="#FBC024" stop-opacity="0.65"/>
<stop offset="0.25" stop-color="#FABF1F" stop-opacity="0.76"/>
<stop offset="0.32" stop-color="#FABE1A" stop-opacity="0.85"/>
<stop offset="0.4" stop-color="#FABE17" stop-opacity="0.92"/>
<stop offset="0.49" stop-color="#FABD15" stop-opacity="0.97"/>
<stop offset="0.63" stop-color="#FABD13" stop-opacity="0.99"/>
<stop offset="1" stop-color="#FABD13"/>
</linearGradient>
<linearGradient id="paint8_linear_40_750" x1="7.06486" y1="13.269" x2="23.4983" y2="32.6717" gradientUnits="userSpaceOnUse">
<stop stop-color="#FCC745" stop-opacity="0"/>
<stop offset="0.1" stop-color="#FCC642" stop-opacity="0.06"/>
<stop offset="0.28" stop-color="#FCC53A" stop-opacity="0.22"/>
<stop offset="0.53" stop-color="#FBC22D" stop-opacity="0.47"/>
<stop offset="0.85" stop-color="#FABF1C" stop-opacity="0.82"/>
<stop offset="1" stop-color="#FABD13"/>
</linearGradient>
<linearGradient id="paint9_linear_40_750" x1="14.6751" y1="22.9282" x2="45.7506" y2="97.3682" gradientUnits="userSpaceOnUse">
<stop offset="0.01" stop-color="#FCC744" stop-opacity="0.02"/>
<stop offset="0.05" stop-color="#FCC53B" stop-opacity="0.2"/>
<stop offset="0.09" stop-color="#FBC332" stop-opacity="0.37"/>
<stop offset="0.14" stop-color="#FBC22B" stop-opacity="0.52"/>
<stop offset="0.2" stop-color="#FBC024" stop-opacity="0.65"/>
<stop offset="0.25" stop-color="#FABF1F" stop-opacity="0.76"/>
<stop offset="0.32" stop-color="#FABE1A" stop-opacity="0.85"/>
<stop offset="0.4" stop-color="#FABE17" stop-opacity="0.92"/>
<stop offset="0.49" stop-color="#FABD15" stop-opacity="0.97"/>
<stop offset="0.63" stop-color="#FABD13" stop-opacity="0.99"/>
<stop offset="1" stop-color="#FABD13"/>
</linearGradient>
<linearGradient id="paint10_linear_40_750" x1="10.8209" y1="2.63805" x2="22.345" y2="15.4399" gradientUnits="userSpaceOnUse">
<stop stop-color="#FCC745" stop-opacity="0"/>
<stop offset="0.1" stop-color="#FCC642" stop-opacity="0.06"/>
<stop offset="0.28" stop-color="#FCC53A" stop-opacity="0.22"/>
<stop offset="0.53" stop-color="#FBC22D" stop-opacity="0.47"/>
<stop offset="0.85" stop-color="#FABF1C" stop-opacity="0.82"/>
<stop offset="1" stop-color="#FABD13"/>
</linearGradient>
<linearGradient id="paint11_linear_40_750" x1="16.1735" y1="9.02478" x2="38.7234" y2="58.7945" gradientUnits="userSpaceOnUse">
<stop offset="0.01" stop-color="#FCC744" stop-opacity="0.02"/>
<stop offset="0.05" stop-color="#FCC53B" stop-opacity="0.2"/>
<stop offset="0.09" stop-color="#FBC332" stop-opacity="0.37"/>
<stop offset="0.14" stop-color="#FBC22B" stop-opacity="0.52"/>
<stop offset="0.2" stop-color="#FBC024" stop-opacity="0.65"/>
<stop offset="0.25" stop-color="#FABF1F" stop-opacity="0.76"/>
<stop offset="0.32" stop-color="#FABE1A" stop-opacity="0.85"/>
<stop offset="0.4" stop-color="#FABE17" stop-opacity="0.92"/>
<stop offset="0.49" stop-color="#FABD15" stop-opacity="0.97"/>
<stop offset="0.63" stop-color="#FABD13" stop-opacity="0.99"/>
<stop offset="1" stop-color="#FABD13"/>
</linearGradient>
<clipPath id="clip0_40_750">
<rect width="236.658" height="74.261" fill="white"/>
</clipPath>
</defs>
</svg>
