<svg width="258" height="70" viewBox="0 0 258 70" fill="none" xmlns="http://www.w3.org/2000/svg">
<path d="M73.047 43.6367C76.9568 39.7269 79.7057 32.8095 81.2456 28.2772C81.5321 27.4708 81.7633 26.6458 81.9373 25.808C81.8012 25.7974 81.6644 25.7974 81.5283 25.808C81.3458 25.8367 81.1672 25.8861 80.9959 25.9553C80.847 26.0225 80.7066 26.1073 80.5779 26.208C80.5638 26.2124 80.5513 26.2208 80.5418 26.232C80.2771 26.4456 80.0696 26.6681 79.82 26.8606C72.0004 33.384 64.1357 39.8532 56.3883 46.4667C52.4598 49.7888 49.3315 53.9544 47.2363 58.6533C46.0534 61.3372 45.1883 64.1504 44.6589 67.0353C44.5882 67.4575 44.5579 67.8855 44.5687 68.3135C44.5588 68.7019 44.5982 69.0899 44.686 69.4684L73.047 43.6367Z" fill="#F08306"/>
<path style="mix-blend-mode:color-burn" opacity="0.75" d="M47.2364 58.6531C54.9387 54.4847 62.4966 50.0004 69.062 43.6425C73.5012 39.3387 78.608 32.9778 81.2456 28.265C81.5322 27.4586 81.7633 26.6336 81.9373 25.7958C81.8012 25.7852 81.6644 25.7852 81.5283 25.7958C81.3458 25.8245 81.1672 25.8739 80.9959 25.9431C80.8486 26.0213 80.7253 26.1176 80.5779 26.1958C80.5638 26.2002 80.5513 26.2086 80.5418 26.2198C80.2771 26.4334 80.0696 26.6559 79.82 26.8484C72.0004 33.3717 64.1357 39.841 56.3883 46.4545C52.4584 49.78 49.33 53.9499 47.2364 58.6531Z" fill="url(#paint0_linear_112_32)"/>
<path style="mix-blend-mode:overlay" d="M44.686 69.4804C44.5988 69.113 44.5584 68.7361 44.5657 68.3586C44.5575 67.9196 44.5887 67.4807 44.6589 67.0473C45.1874 64.1583 46.0525 61.3411 47.2364 58.6533C54.9387 54.4848 62.4966 50.0006 69.0621 43.6427C73.5012 39.3389 78.608 32.9779 81.2456 28.2651" fill="url(#paint1_linear_112_32)"/>
<path d="M79.6215 20.9748C82.5629 18.2198 84.7554 13.2574 85.9975 9.99724C86.2274 9.41638 86.4173 8.82051 86.5659 8.21377C86.4658 8.20609 86.3653 8.20609 86.2652 8.21377C86.1317 8.22989 86.0006 8.26117 85.8742 8.30701C85.7667 8.35167 85.6656 8.41032 85.5735 8.48144C85.5647 8.47846 85.5552 8.47846 85.5464 8.48144C85.3479 8.62881 85.1915 8.7822 85.005 8.92054C79.1343 13.4679 73.2335 17.9792 67.4139 22.5958C64.4644 24.9134 62.0762 27.8671 60.4274 31.2365C59.4921 33.1603 58.7855 35.1872 58.3222 37.2756C58.26 37.5815 58.2278 37.8928 58.2259 38.2049C58.2082 38.4878 58.2263 38.7718 58.2801 39.05L79.6215 20.9748Z" fill="#F08306"/>
<path style="mix-blend-mode:color-burn" opacity="0.75" d="M60.4184 31.2545C66.1327 28.4154 71.7658 25.3477 76.7132 20.8845C80.0636 17.877 83.9524 13.3657 85.9975 9.99724C86.2273 9.41638 86.4172 8.82051 86.5659 8.21377C86.4658 8.20609 86.3653 8.20609 86.2652 8.21377C86.1317 8.22989 86.0005 8.26117 85.8742 8.30701C85.7629 8.36114 85.6697 8.42731 85.5734 8.48144C85.5647 8.47846 85.5551 8.47846 85.5464 8.48144C85.3479 8.62881 85.1915 8.7822 85.005 8.92054C79.1343 13.4679 73.2335 17.9792 67.4139 22.5958C64.459 24.9176 62.0675 27.8777 60.4184 31.2545Z" fill="url(#paint2_linear_112_32)"/>
<path style="mix-blend-mode:overlay" d="M58.274 39.0684C58.2193 38.7984 58.2001 38.5224 58.2169 38.2473C58.2212 37.9272 58.2544 37.6081 58.3161 37.294C58.7795 35.2056 59.486 33.1787 60.4214 31.2548C66.1357 28.4157 71.7688 25.348 76.7162 20.8848C80.0666 17.8773 83.9554 13.366 86.0005 9.99756" fill="url(#paint3_linear_112_32)"/>
<path d="M75.9914 8.48764C78.0426 6.68312 79.6426 3.37483 80.5569 1.20639C80.7276 0.816046 80.8703 0.414022 80.9839 0.003379C80.9168 -0.00112633 80.8495 -0.00112633 80.7824 0.003379C80.6914 0.0128144 80.6017 0.0319714 80.5148 0.0605222C80.4391 0.0869668 80.3673 0.123378 80.3012 0.168793H80.2832C80.1448 0.265035 80.0336 0.367291 79.9042 0.451502C75.829 3.40791 71.7328 6.32221 67.6876 9.3117C65.6393 10.8122 63.9554 12.7551 62.7613 14.9959C62.085 16.2757 61.5611 17.6303 61.2004 19.0321C61.1516 19.2384 61.1224 19.4488 61.1131 19.6606C61.0937 19.8511 61.0998 20.0432 61.1312 20.2321L75.9914 8.48764Z" fill="#F08306"/>
<path style="mix-blend-mode:color-burn" opacity="0.75" d="M62.7613 14.9959C66.6951 13.2094 70.5809 11.2605 74.0275 8.35824C76.3613 6.39131 79.0982 3.43791 80.5569 1.20932C80.7276 0.818976 80.8703 0.416952 80.9839 0.00630869C80.9168 0.00180335 80.8495 0.00180335 80.7824 0.00630869C80.6914 0.0157441 80.6017 0.0349011 80.5147 0.0634519C80.4396 0.0965348 80.3764 0.13864 80.3012 0.171723H80.2832C80.1448 0.267964 80.0335 0.370221 79.9042 0.454432C75.829 3.40783 71.7327 6.32213 67.6876 9.31163C65.6392 10.8121 63.9554 12.755 62.7613 14.9959Z" fill="url(#paint4_linear_112_32)"/>
<path style="mix-blend-mode:overlay" d="M61.1312 20.2319C61.0988 20.0483 61.0917 19.8611 61.1101 19.6755C61.1206 19.4587 61.1508 19.2432 61.2004 19.0319C61.5611 17.6301 62.085 16.2755 62.7613 14.9958C66.6951 13.2093 70.5809 11.2604 74.0275 8.35814C76.3614 6.39121 79.0982 3.43781 80.5569 1.20923" fill="url(#paint5_linear_112_32)"/>
<path d="M13.5339 43.6367C9.62412 39.7058 6.8632 32.8065 5.32334 28.2772C5.03451 27.4713 4.80236 26.6462 4.6286 25.808C4.76574 25.7974 4.90349 25.7974 5.04063 25.808C5.22205 25.8371 5.39961 25.8865 5.56996 25.9553C5.71966 26.0211 5.86018 26.106 5.98801 26.208C6.00207 26.2124 6.01458 26.2208 6.0241 26.232C6.29177 26.4456 6.49628 26.6681 6.74591 26.8606C14.5655 33.384 22.4302 39.8532 30.1806 46.4667C34.1073 49.7898 37.2345 53.9552 39.3296 58.6533C40.5135 61.3371 41.3796 64.1502 41.91 67.0353C41.9782 67.4578 42.0074 67.8856 41.9972 68.3135C42.0071 68.7019 41.9677 69.0899 41.8799 69.4684L13.5339 43.6367Z" fill="#F49824"/>
<path style="mix-blend-mode:color-burn" opacity="0.75" d="M39.3296 58.6533C31.6303 54.4848 24.0693 50.0006 17.5069 43.6427C13.0677 39.3509 7.95794 32.99 5.32334 28.2772C5.03451 27.4713 4.80236 26.6462 4.6286 25.808C4.76574 25.7974 4.90349 25.7974 5.04063 25.808C5.22205 25.8371 5.39961 25.8865 5.56996 25.9553C5.71733 26.0335 5.84064 26.1298 5.98801 26.208C6.00207 26.2124 6.01458 26.2208 6.0241 26.232C6.29177 26.4456 6.49628 26.6681 6.74591 26.8606C14.5655 33.384 22.4302 39.8532 30.1806 46.4667C34.1073 49.7898 37.2345 53.9552 39.3296 58.6533Z" fill="url(#paint6_linear_112_32)"/>
<path style="mix-blend-mode:overlay" d="M41.8799 69.4806C41.9686 69.1135 42.0091 68.7364 42.0002 68.3588C42.0094 67.9199 41.9793 67.481 41.91 67.0475C41.3805 64.1583 40.5144 61.3411 39.3296 58.6535C31.6303 54.485 24.0693 50.0008 17.5069 43.6428C13.0677 39.3511 7.95794 32.9902 5.32333 28.2773" fill="url(#paint7_linear_112_32)"/>
<path d="M6.9444 20.9751C4.00604 18.2202 1.80452 13.2578 0.571432 9.9976C0.339366 9.41725 0.148418 8.82129 0 8.21413C0.10011 8.20662 0.200643 8.20662 0.300754 8.21413C0.433218 8.23027 0.563394 8.26155 0.688726 8.30737C0.796212 8.35203 0.897336 8.41068 0.989479 8.4818C0.998256 8.47882 1.00777 8.47882 1.01655 8.4818C1.21504 8.62917 1.37144 8.78256 1.56091 8.9209C7.44064 13.4863 13.3414 17.9976 19.164 22.6142C22.1179 24.9313 24.5112 27.8848 26.1656 31.2549C27.1009 33.1787 27.8075 35.2056 28.2708 37.294C28.3326 37.6 28.3658 37.9111 28.3701 38.2233C28.3868 38.5063 28.3676 38.7903 28.3129 39.0684L6.9444 20.9751Z" fill="#F49824"/>
<path style="mix-blend-mode:color-burn" opacity="0.75" d="M26.1656 31.2549C20.4512 28.4158 14.8181 25.3481 9.86773 20.8849C6.52034 17.8773 2.62859 13.366 0.58647 9.9976C0.349295 9.41764 0.153319 8.82167 0 8.21413C0.10011 8.20662 0.200643 8.20662 0.300754 8.21413C0.433218 8.23027 0.563394 8.26155 0.688726 8.30737C0.800005 8.3615 0.893238 8.42767 0.989479 8.4818C0.998256 8.47882 1.00777 8.47882 1.01655 8.4818C1.21504 8.62917 1.37144 8.78256 1.56091 8.9209C7.44065 13.4863 13.3414 17.9976 19.164 22.6142C22.1179 24.9313 24.5112 27.8848 26.1656 31.2549Z" fill="url(#paint8_linear_112_32)"/>
<path style="mix-blend-mode:overlay" d="M28.2919 39.0684C28.3466 38.7984 28.3658 38.5224 28.3491 38.2473C28.3448 37.9272 28.3116 37.6081 28.2498 37.294C27.7865 35.2056 27.0799 33.1787 26.1445 31.2548C20.4302 28.4157 14.7971 25.348 9.84669 20.8848C6.4993 17.8773 2.60755 13.366 0.56543 9.99756" fill="url(#paint9_linear_112_32)"/>
<path d="M10.5775 8.48751C8.52337 6.689 6.91734 3.38372 6.01508 1.20927C5.84432 0.818922 5.7016 0.416899 5.58801 0.00625536C5.65511 0.00182113 5.72242 0.00182113 5.78952 0.00625536C5.88057 0.0153846 5.97034 0.0345487 6.05719 0.0633986C6.13286 0.0898432 6.20467 0.126254 6.27072 0.17167C6.27767 0.170209 6.28483 0.170209 6.29178 0.17167C6.43012 0.267911 6.53839 0.370167 6.66772 0.454378C10.7369 3.40778 14.8362 6.32208 18.8783 9.31157C20.9275 10.8112 22.6115 12.7543 23.8047 14.9958C24.4809 16.2755 25.0048 17.6302 25.3656 19.0319C25.4154 19.2381 25.4456 19.4486 25.4558 19.6605C25.4727 19.8511 25.4657 20.0431 25.4347 20.2319L10.5775 8.48751Z" fill="#F49824"/>
<path style="mix-blend-mode:color-burn" opacity="0.75" d="M23.8047 14.9958C19.8708 13.2093 15.9851 11.2605 12.5414 8.35818C10.2046 6.39125 7.47073 3.43785 6.01508 1.20927C5.84432 0.818922 5.7016 0.416899 5.58801 0.00625536C5.65511 0.00182113 5.72242 0.00182113 5.78952 0.00625536C5.88057 0.0153846 5.97034 0.0345487 6.05719 0.0633986C6.13238 0.0964814 6.19554 0.138587 6.27072 0.17167C6.27767 0.170209 6.28483 0.170209 6.29178 0.17167C6.43012 0.267911 6.53839 0.370167 6.66772 0.454378C10.7369 3.40778 14.8362 6.32208 18.8783 9.31157C20.9275 10.8112 22.6115 12.7543 23.8047 14.9958Z" fill="url(#paint10_linear_112_32)"/>
<path style="mix-blend-mode:overlay" d="M25.4347 20.2319C25.4671 20.0483 25.4742 19.8611 25.4558 19.6755C25.4469 19.4585 25.4167 19.2429 25.3656 19.0319C25.0048 17.6301 24.4809 16.2755 23.8047 14.9958C19.8708 13.2093 15.9851 11.2604 12.5414 8.35814C10.2046 6.39121 7.47072 3.43781 6.01508 1.20923" fill="url(#paint11_linear_112_32)"/>
<path d="M111.667 46H108.795L117.101 23.3791H119.929L128.235 46H125.363L118.604 26.9578H118.427L111.667 46ZM112.727 37.1637H124.303V39.5937H112.727V37.1637ZM131.759 46V23.3791H139.402C141.177 23.3791 142.627 23.6994 143.754 24.34C144.888 24.9733 145.727 25.8312 146.272 26.9136C146.817 27.996 147.09 29.2037 147.09 30.5365C147.09 31.8693 146.817 33.0806 146.272 34.1704C145.735 35.2602 144.903 36.1291 143.776 36.7771C142.649 37.4177 141.206 37.7381 139.446 37.7381H133.968V35.3081H139.358C140.573 35.3081 141.548 35.0982 142.285 34.6785C143.021 34.2588 143.555 33.6918 143.886 32.9775C144.225 32.2559 144.394 31.4422 144.394 30.5365C144.394 29.6308 144.225 28.8208 143.886 28.1065C143.555 27.3922 143.018 26.8326 142.274 26.4276C141.53 26.0152 140.543 25.8091 139.314 25.8091H134.498V46H131.759ZM151.502 23.3791H154.197V41.1842H154.418L166.789 23.3791H169.44V46H166.701V28.239H166.48L154.153 46H151.502V23.3791ZM193.124 30.4481H190.385C190.223 29.6602 189.939 28.968 189.534 28.3716C189.137 27.7751 188.651 27.2744 188.076 26.8694C187.509 26.4571 186.88 26.1478 186.187 25.9416C185.495 25.7354 184.774 25.6323 184.023 25.6323C182.653 25.6323 181.412 25.9784 180.3 26.6706C179.196 27.3628 178.316 28.3826 177.66 29.7302C177.012 31.0777 176.688 32.7308 176.688 34.6895C176.688 36.6483 177.012 38.3014 177.66 39.6489C178.316 40.9964 179.196 42.0163 180.3 42.7085C181.412 43.4007 182.653 43.7467 184.023 43.7467C184.774 43.7467 185.495 43.6437 186.187 43.4375C186.88 43.2313 187.509 42.9257 188.076 42.5207C188.651 42.1083 189.137 41.6039 189.534 41.0075C189.939 40.4037 190.223 39.7115 190.385 38.931H193.124C192.918 40.087 192.542 41.1216 191.997 42.0347C191.452 42.9478 190.775 43.7247 189.965 44.3653C189.155 44.9986 188.246 45.4809 187.237 45.8122C186.235 46.1436 185.164 46.3093 184.023 46.3093C182.093 46.3093 180.378 45.838 178.875 44.8955C177.373 43.9529 176.191 42.6128 175.33 40.8749C174.468 39.1371 174.038 37.0753 174.038 34.6895C174.038 32.3037 174.468 30.2419 175.33 28.5041C176.191 26.7663 177.373 25.4262 178.875 24.4836C180.378 23.5411 182.093 23.0698 184.023 23.0698C185.164 23.0698 186.235 23.2355 187.237 23.5669C188.246 23.8982 189.155 24.3842 189.965 25.0248C190.775 25.6581 191.452 26.4313 191.997 27.3444C192.542 28.2501 192.918 29.2847 193.124 30.4481ZM196.313 25.8091V23.3791H213.279V25.8091H206.166V46H203.426V25.8091H196.313ZM217.507 46V23.3791H231.159V25.8091H220.246V33.4525H230.452V35.8824H220.246V43.57H231.335V46H217.507ZM236.096 23.3791H238.791V41.1842H239.012L251.383 23.3791H254.034V46H251.294V28.239H251.073L238.747 46H236.096V23.3791ZM247.23 17.7239H249.66C249.66 18.9168 249.247 19.8924 248.423 20.6509C247.598 21.4093 246.479 21.7885 245.065 21.7885C243.673 21.7885 242.565 21.4093 241.74 20.6509C240.923 19.8924 240.514 18.9168 240.514 17.7239H242.944C242.944 18.2982 243.102 18.8026 243.419 19.2371C243.743 19.6715 244.292 19.8887 245.065 19.8887C245.838 19.8887 246.39 19.6715 246.722 19.2371C247.06 18.8026 247.23 18.2982 247.23 17.7239Z" fill="#F2F2F2"/>
<defs>
<linearGradient id="paint0_linear_112_32" x1="73.069" y1="33.0453" x2="52.9888" y2="58.7712" gradientUnits="userSpaceOnUse">
<stop stop-color="#FCC745" stop-opacity="0"/>
<stop offset="0.1" stop-color="#FCC642" stop-opacity="0.06"/>
<stop offset="0.28" stop-color="#FCC53A" stop-opacity="0.22"/>
<stop offset="0.53" stop-color="#FBC22D" stop-opacity="0.47"/>
<stop offset="0.85" stop-color="#FABF1C" stop-opacity="0.82"/>
<stop offset="1" stop-color="#FABD13"/>
</linearGradient>
<linearGradient id="paint1_linear_112_32" x1="63.8046" y1="45.825" x2="27.7756" y2="142.875" gradientUnits="userSpaceOnUse">
<stop offset="0.01" stop-color="#FCC744" stop-opacity="0.02"/>
<stop offset="0.05" stop-color="#FCC53B" stop-opacity="0.2"/>
<stop offset="0.09" stop-color="#FBC332" stop-opacity="0.37"/>
<stop offset="0.14" stop-color="#FBC22B" stop-opacity="0.52"/>
<stop offset="0.2" stop-color="#FBC024" stop-opacity="0.65"/>
<stop offset="0.25" stop-color="#FABF1F" stop-opacity="0.76"/>
<stop offset="0.32" stop-color="#FABE1A" stop-opacity="0.85"/>
<stop offset="0.4" stop-color="#FABE17" stop-opacity="0.92"/>
<stop offset="0.49" stop-color="#FABD15" stop-opacity="0.97"/>
<stop offset="0.63" stop-color="#FABD13" stop-opacity="0.99"/>
<stop offset="1" stop-color="#FABD13"/>
</linearGradient>
<linearGradient id="paint2_linear_112_32" x1="79.941" y1="12.2113" x2="64.5639" y2="30.3632" gradientUnits="userSpaceOnUse">
<stop stop-color="#FCC745" stop-opacity="0"/>
<stop offset="0.1" stop-color="#FCC642" stop-opacity="0.06"/>
<stop offset="0.28" stop-color="#FCC53A" stop-opacity="0.22"/>
<stop offset="0.53" stop-color="#FBC22D" stop-opacity="0.47"/>
<stop offset="0.85" stop-color="#FABF1C" stop-opacity="0.82"/>
<stop offset="1" stop-color="#FABD13"/>
</linearGradient>
<linearGradient id="paint3_linear_112_32" x1="72.8184" y1="21.2481" x2="43.749" y2="90.8866" gradientUnits="userSpaceOnUse">
<stop offset="0.01" stop-color="#FCC744" stop-opacity="0.02"/>
<stop offset="0.05" stop-color="#FCC53B" stop-opacity="0.2"/>
<stop offset="0.09" stop-color="#FBC332" stop-opacity="0.37"/>
<stop offset="0.14" stop-color="#FBC22B" stop-opacity="0.52"/>
<stop offset="0.2" stop-color="#FBC024" stop-opacity="0.65"/>
<stop offset="0.25" stop-color="#FABF1F" stop-opacity="0.76"/>
<stop offset="0.32" stop-color="#FABE1A" stop-opacity="0.85"/>
<stop offset="0.4" stop-color="#FABE17" stop-opacity="0.92"/>
<stop offset="0.49" stop-color="#FABD15" stop-opacity="0.97"/>
<stop offset="0.63" stop-color="#FABD13" stop-opacity="0.99"/>
<stop offset="1" stop-color="#FABD13"/>
</linearGradient>
<linearGradient id="paint4_linear_112_32" x1="76.1594" y1="3.76392" x2="65.3809" y2="15.7437" gradientUnits="userSpaceOnUse">
<stop stop-color="#FCC745" stop-opacity="0"/>
<stop offset="0.1" stop-color="#FCC642" stop-opacity="0.06"/>
<stop offset="0.28" stop-color="#FCC53A" stop-opacity="0.22"/>
<stop offset="0.53" stop-color="#FBC22D" stop-opacity="0.47"/>
<stop offset="0.85" stop-color="#FABF1C" stop-opacity="0.82"/>
<stop offset="1" stop-color="#FABD13"/>
</linearGradient>
<linearGradient id="paint5_linear_112_32" x1="71.1548" y1="9.73896" x2="50.0584" y2="56.3034" gradientUnits="userSpaceOnUse">
<stop offset="0.01" stop-color="#FCC744" stop-opacity="0.02"/>
<stop offset="0.05" stop-color="#FCC53B" stop-opacity="0.2"/>
<stop offset="0.09" stop-color="#FBC332" stop-opacity="0.37"/>
<stop offset="0.14" stop-color="#FBC22B" stop-opacity="0.52"/>
<stop offset="0.2" stop-color="#FBC024" stop-opacity="0.65"/>
<stop offset="0.25" stop-color="#FABF1F" stop-opacity="0.76"/>
<stop offset="0.32" stop-color="#FABE1A" stop-opacity="0.85"/>
<stop offset="0.4" stop-color="#FABE17" stop-opacity="0.92"/>
<stop offset="0.49" stop-color="#FABD15" stop-opacity="0.97"/>
<stop offset="0.63" stop-color="#FABD13" stop-opacity="0.99"/>
<stop offset="1" stop-color="#FABD13"/>
</linearGradient>
<linearGradient id="paint6_linear_112_32" x1="13.4746" y1="31.8546" x2="33.6346" y2="57.4993" gradientUnits="userSpaceOnUse">
<stop stop-color="#FCC745" stop-opacity="0"/>
<stop offset="0.1" stop-color="#FCC642" stop-opacity="0.06"/>
<stop offset="0.28" stop-color="#FCC53A" stop-opacity="0.22"/>
<stop offset="0.53" stop-color="#FBC22D" stop-opacity="0.47"/>
<stop offset="0.85" stop-color="#FABF1C" stop-opacity="0.82"/>
<stop offset="1" stop-color="#FABD13"/>
</linearGradient>
<linearGradient id="paint7_linear_112_32" x1="22.779" y1="44.5964" x2="59.1274" y2="141.478" gradientUnits="userSpaceOnUse">
<stop offset="0.01" stop-color="#FCC744" stop-opacity="0.02"/>
<stop offset="0.05" stop-color="#FCC53B" stop-opacity="0.2"/>
<stop offset="0.09" stop-color="#FBC332" stop-opacity="0.37"/>
<stop offset="0.14" stop-color="#FBC22B" stop-opacity="0.52"/>
<stop offset="0.2" stop-color="#FBC024" stop-opacity="0.65"/>
<stop offset="0.25" stop-color="#FABF1F" stop-opacity="0.76"/>
<stop offset="0.32" stop-color="#FABE1A" stop-opacity="0.85"/>
<stop offset="0.4" stop-color="#FABE17" stop-opacity="0.92"/>
<stop offset="0.49" stop-color="#FABD15" stop-opacity="0.97"/>
<stop offset="0.63" stop-color="#FABD13" stop-opacity="0.99"/>
<stop offset="1" stop-color="#FABD13"/>
</linearGradient>
<linearGradient id="paint8_linear_112_32" x1="6.60945" y1="12.4203" x2="21.9836" y2="30.5722" gradientUnits="userSpaceOnUse">
<stop stop-color="#FCC745" stop-opacity="0"/>
<stop offset="0.1" stop-color="#FCC642" stop-opacity="0.06"/>
<stop offset="0.28" stop-color="#FCC53A" stop-opacity="0.22"/>
<stop offset="0.53" stop-color="#FBC22D" stop-opacity="0.47"/>
<stop offset="0.85" stop-color="#FABF1C" stop-opacity="0.82"/>
<stop offset="1" stop-color="#FABD13"/>
</linearGradient>
<linearGradient id="paint9_linear_112_32" x1="13.7291" y1="21.4568" x2="42.8015" y2="91.0982" gradientUnits="userSpaceOnUse">
<stop offset="0.01" stop-color="#FCC744" stop-opacity="0.02"/>
<stop offset="0.05" stop-color="#FCC53B" stop-opacity="0.2"/>
<stop offset="0.09" stop-color="#FBC332" stop-opacity="0.37"/>
<stop offset="0.14" stop-color="#FBC22B" stop-opacity="0.52"/>
<stop offset="0.2" stop-color="#FBC024" stop-opacity="0.65"/>
<stop offset="0.25" stop-color="#FABF1F" stop-opacity="0.76"/>
<stop offset="0.32" stop-color="#FABE1A" stop-opacity="0.85"/>
<stop offset="0.4" stop-color="#FABE17" stop-opacity="0.92"/>
<stop offset="0.49" stop-color="#FABD15" stop-opacity="0.97"/>
<stop offset="0.63" stop-color="#FABD13" stop-opacity="0.99"/>
<stop offset="1" stop-color="#FABD13"/>
</linearGradient>
<linearGradient id="paint10_linear_112_32" x1="10.1234" y1="2.47424" x2="20.9047" y2="14.4509" gradientUnits="userSpaceOnUse">
<stop stop-color="#FCC745" stop-opacity="0"/>
<stop offset="0.1" stop-color="#FCC642" stop-opacity="0.06"/>
<stop offset="0.28" stop-color="#FCC53A" stop-opacity="0.22"/>
<stop offset="0.53" stop-color="#FBC22D" stop-opacity="0.47"/>
<stop offset="0.85" stop-color="#FABF1C" stop-opacity="0.82"/>
<stop offset="1" stop-color="#FABD13"/>
</linearGradient>
<linearGradient id="paint11_linear_112_32" x1="15.1309" y1="8.44921" x2="36.2272" y2="55.0107" gradientUnits="userSpaceOnUse">
<stop offset="0.01" stop-color="#FCC744" stop-opacity="0.02"/>
<stop offset="0.05" stop-color="#FCC53B" stop-opacity="0.2"/>
<stop offset="0.09" stop-color="#FBC332" stop-opacity="0.37"/>
<stop offset="0.14" stop-color="#FBC22B" stop-opacity="0.52"/>
<stop offset="0.2" stop-color="#FBC024" stop-opacity="0.65"/>
<stop offset="0.25" stop-color="#FABF1F" stop-opacity="0.76"/>
<stop offset="0.32" stop-color="#FABE1A" stop-opacity="0.85"/>
<stop offset="0.4" stop-color="#FABE17" stop-opacity="0.92"/>
<stop offset="0.49" stop-color="#FABD15" stop-opacity="0.97"/>
<stop offset="0.63" stop-color="#FABD13" stop-opacity="0.99"/>
<stop offset="1" stop-color="#FABD13"/>
</linearGradient>
</defs>
</svg>
