<svg width="170" height="170" viewBox="0 0 170 170" fill="none" xmlns="http://www.w3.org/2000/svg">
<ellipse cx="85" cy="85.1082" rx="85" ry="84.8081" fill="#101010"/>
<g clip-path="url(#clip0_19_377)">
<path d="M39.6091 123.307C39.6091 123.307 40.0062 120.607 45.0755 119.881C50.1448 119.154 54.8584 113.33 63.2184 114.176C71.5784 115.021 78.5156 120.325 88.0313 118.7C97.5471 117.074 103.506 119.146 105.641 120.78C107.775 122.413 116.609 120.396 117.261 123.389L39.6091 123.307Z" fill="#8BC0CC"/>
<path d="M60.4475 58.9745C60.4475 58.9745 54.7258 58.6845 57.7613 76.7691C57.7613 76.7691 59.803 82.9081 57.2257 86.8648H95.1694V58.9745H60.4475Z" fill="#BCECF7"/>
<path d="M100.997 68.3241C100.997 68.3241 99.0902 64.5913 101.948 63.1701C101.948 63.1701 103.962 62.471 105.387 62.8985C105.387 62.8985 102.567 65.9826 103.153 66.491C103.738 67.0002 106.057 62.8195 106.057 62.8195C106.057 62.8195 110.178 63.3552 111.336 64.3047C111.336 64.3047 107.253 66.4271 107.941 66.7708C108.63 67.1145 112.978 65.1107 112.978 65.1107C112.978 65.1107 116.588 66.6496 115.873 68.9775C115.157 71.3061 113.788 71.2019 113.233 71.0059C112.678 70.8099 110.01 68.1342 109.377 69.7195C109.192 70.1823 110.859 72.2318 112.245 72.6327C112.245 72.6327 108.941 75.0423 107.372 73.7585C105.802 72.4741 105.953 71.0542 104.969 70.279C103.985 69.5037 103.048 69.2865 103.386 69.9216C103.724 70.5574 105.597 71.5348 105.975 72.8315C106.352 74.1281 106.747 75.0355 104.988 74.3269C103.23 73.6183 100.571 71.547 100.785 69.9352L100.998 68.3234L100.997 68.3241Z" fill="#BCECF7"/>
<path d="M114.014 68.6113C114.014 68.6113 103.905 65.8247 100.997 68.3234C100.997 68.3234 100.164 69.7542 98.3256 70.8051L97.9403 71.4245C97.9403 71.4245 100.126 69.9046 100.784 69.9352C100.784 69.9352 100.608 65.9574 114.014 68.6113Z" fill="#8BC0CC"/>
<path d="M98.3255 70.8058C98.3255 70.8058 95.7725 71.9739 94.9698 74.9382L95.359 75.0675C95.359 75.0675 96.7307 72.129 98.2573 71.2108C99.7838 70.2926 98.3255 70.8058 98.3255 70.8058Z" fill="#599DAD"/>
<path d="M88.4383 61.5916C88.4383 61.5916 82.7895 58.5361 85.2566 54.0771C85.2566 54.0771 87.2537 51.3238 89.4563 50.5642C89.4563 50.5642 88.4587 57.1312 89.6479 57.2483C90.8378 57.3654 90.251 49.8474 90.251 49.8474C90.251 49.8474 96.0193 46.747 98.3229 46.9069C98.3229 46.9069 94.876 53.3957 96.0567 53.2058C97.2374 53.0152 101.127 46.4359 101.127 46.4359C101.127 46.4359 107.094 45.0984 108.163 48.7563C109.232 52.4142 107.729 54.3065 106.847 54.5644C105.965 54.8224 100.258 54.9218 100.428 55.6855C100.598 56.4492 104.486 57.5594 106.615 56.8018C106.615 56.8018 104.419 62.9448 101.298 62.7331C98.1779 62.5221 97.1574 60.5543 95.2272 60.4597C93.297 60.3658 91.9049 60.947 92.8828 61.4548C93.8614 61.9626 97.1108 61.5004 98.7056 62.8243C100.3 64.1482 101.584 64.9541 98.7128 65.6579C95.8415 66.3618 90.6448 66.1378 89.5416 63.8651L88.4383 61.5923V61.5916Z" fill="#BCECF7"/>
<path d="M105.456 49.9924C105.456 49.9924 90.049 55.697 88.4384 61.5916C88.4384 61.5916 88.5874 64.2013 87.1179 67.2459L87.1507 68.3983C87.1507 68.3983 88.6681 64.43 89.5417 63.8644C89.5417 63.8644 85.9143 58.9009 105.456 49.9924Z" fill="#8BC0CC"/>
<path d="M87.1179 67.2459C87.1179 67.2459 84.8274 71.0985 86.327 75.6556L86.9394 75.4643C86.9394 75.4643 86.1945 70.4172 87.3765 67.8299C88.5585 65.2434 87.1179 67.2452 87.1179 67.2452V67.2459Z" fill="#6BB7BF"/>
<path d="M102.468 69.6786H62.8535V123.259H102.468V69.6786Z" fill="#8BC0CC"/>
<path d="M103.097 69.6786H64.1484V123.259H103.097V69.6786Z" fill="#DCF6F9"/>
<path d="M103.098 69.6779H64.1491C64.3644 66.6231 64.0402 64.4055 63.5197 62.81C62.5208 59.7429 60.7993 58.9731 60.7993 58.9731H97.5314C100.667 58.9731 103.098 60.932 103.759 63.5322C103.784 63.6302 103.807 63.7275 103.827 63.8249C104.455 66.7994 103.124 69.6228 103.098 69.6773V69.6779Z" fill="#DCF6F9"/>
<path d="M103.661 121.13C103.661 121.13 104.864 116.792 106.275 117.304C107.686 117.816 103.661 121.13 103.661 121.13Z" fill="#8BC0CC"/>
<path d="M104.759 120.893C104.759 120.893 107.829 118.803 108.504 119.449C109.178 120.095 104.759 120.893 104.759 120.893Z" fill="#8BC0CC"/>
<path d="M100.921 74.7578H66.5925V76.7936H100.921V74.7578Z" fill="#49ADB7"/>
<path d="M100.921 87.1847H66.5925V88.1186H100.921V87.1847Z" fill="#49ADB7"/>
<path d="M100.921 89.3826H66.5925V90.3164H100.921V89.3826Z" fill="#49ADB7"/>
<path d="M100.921 91.5804H66.5925V92.5143H100.921V91.5804Z" fill="#49ADB7"/>
<path d="M100.921 93.7783H66.5925V94.7122H100.921V93.7783Z" fill="#49ADB7"/>
<path d="M100.921 95.9755H66.5925V96.9094H100.921V95.9755Z" fill="#49ADB7"/>
<path d="M100.921 98.1734H66.5925V99.1073H100.921V98.1734Z" fill="#49ADB7"/>
<path d="M75.8694 112.879C76.9039 111.806 76.9039 110.067 75.8694 108.994C74.835 107.921 73.1578 107.921 72.1234 108.994C71.0889 110.067 71.0889 111.806 72.1234 112.879C73.1578 113.952 74.835 113.952 75.8694 112.879Z" fill="#FF4B42"/>
<path d="M87.7347 113.578C87.7275 113.578 87.7196 113.578 87.7124 113.576C87.6402 113.563 87.5917 113.492 87.6041 113.418C87.6291 113.267 88.2316 109.713 90.1322 108.503C90.2674 108.417 90.3527 108.462 90.3915 108.496C90.5582 108.644 90.4315 109.022 89.8592 110.445C89.6315 111.012 89.3611 111.685 89.2495 112.094C89.4523 111.819 89.7548 111.347 89.9957 110.973C90.7472 109.802 90.8942 109.611 91.0405 109.611C91.095 109.611 91.1436 109.638 91.1744 109.683C91.2545 109.803 91.1941 110.001 90.9861 110.585C90.9067 110.808 90.7846 111.151 90.7491 111.335C90.8568 111.234 91.0156 111.02 91.1114 110.89C91.372 110.538 91.5039 110.371 91.6594 110.396C91.6916 110.402 91.7717 110.425 91.8091 110.534C91.8248 110.579 91.832 110.63 91.8399 110.685C91.8603 110.826 91.8832 110.985 92.0467 111.08C92.3768 111.274 93.3278 111.262 95.9838 110.114C96.0514 110.084 96.1289 110.118 96.1571 110.188C96.1853 110.258 96.1532 110.338 96.0856 110.368C93.843 111.337 92.4792 111.649 91.9167 111.32C91.643 111.16 91.6023 110.892 91.5787 110.73C91.5032 110.812 91.3982 110.954 91.3214 111.058C91.034 111.446 90.845 111.679 90.652 111.663C90.5929 111.657 90.5431 111.626 90.5116 111.574C90.4197 111.424 90.5096 111.128 90.7373 110.489C90.7734 110.387 90.8154 110.27 90.8522 110.161C90.6684 110.421 90.4184 110.81 90.2162 111.125C89.3742 112.436 89.2219 112.626 89.0519 112.578C89.0257 112.571 88.9404 112.538 88.9331 112.41C88.9161 112.103 89.1917 111.391 89.6144 110.34C89.829 109.805 90.1106 109.106 90.1795 108.799C88.4508 110.003 87.8706 113.429 87.8647 113.465C87.8535 113.531 87.7977 113.579 87.7341 113.579L87.7347 113.578Z" fill="#49ADB7"/>
<path d="M58.2095 69.2886L58.2075 69.699C58.2075 69.699 58.3151 70.9835 56.7905 71.1706C55.2659 71.3585 54.0157 71.334 54.057 70.3429C54.1942 69.5758 54.4403 68.3847 54.4508 67.7496C54.4547 67.5134 54.439 67.2636 54.3963 66.9804L57.351 66.9192L58.2213 67.0669L58.2101 69.2879L58.2095 69.2886Z" fill="#FCBDB6"/>
<path d="M58.2206 67.0676L58.2094 69.2886C57.8957 69.4397 57.5413 69.5323 57.1442 69.5323C55.7863 69.5323 54.9089 68.4997 54.4501 67.7503C54.454 67.5141 54.4383 67.2643 54.3956 66.9811L57.3503 66.9199L58.2206 67.0676Z" fill="#F9A6A0"/>
<path d="M54.1699 66.4877C54.5125 68.401 56.8929 68.3384 57.922 68.2179C58.2114 68.1846 58.3939 68.1464 58.3939 68.1464C58.7201 68.0559 58.9025 67.523 58.9872 66.8239C59.1552 65.4415 58.9432 63.4124 58.7181 62.8937C58.3794 62.113 57.7409 61.2683 55.3434 61.8775C52.9459 62.4874 53.7302 64.0366 54.1706 66.4877H54.1699Z" fill="#FCBDB6"/>
<path d="M52.222 123.137H55.5955C55.5705 122.953 55.4845 122.395 55.3264 121.881C55.2719 121.702 55.2076 121.528 55.1354 121.377C54.8072 120.698 52.7235 121.13 52.7235 121.13C52.7235 121.13 52.5299 121.302 52.3789 121.959C52.312 122.249 52.2529 122.632 52.222 123.138V123.137Z" fill="#24555E"/>
<path d="M62.415 122.033C62.4242 122.509 62.482 122.959 62.6487 123.137H69.3207C69.236 122.886 68.9958 122.51 68.3106 122.395C67.5322 122.264 66.3187 121.876 65.6106 121.099C65.3579 120.823 65.1702 120.497 65.0875 120.117C64.7738 118.668 62.4918 120.561 62.4918 120.561C62.4918 120.561 62.3999 121.324 62.4144 122.033H62.415Z" fill="#24555E"/>
<path d="M57.9771 106.365C58.0697 106.895 58.1287 107.33 58.1445 107.643C58.3565 111.934 61.6275 121.745 62.2123 121.974C63.1173 122.328 64.5428 121.575 65.2884 121.328C65.5975 121.226 65.8062 120.903 65.7373 120.575C64.1175 112.853 63.5223 101.733 63.3057 95.1492C63.1961 91.833 62.6474 89.5425 62.6474 89.5425C62.6474 89.5425 54.6707 87.3351 54.6234 90.1272C54.5814 92.598 57.2657 102.288 57.9771 106.364V106.365Z" fill="#FF7B69"/>
<path d="M57.9771 106.365L63.3057 95.1492C63.1961 91.833 62.6474 89.5425 62.6474 89.5425C62.6474 89.5425 54.6707 87.3351 54.6234 90.1272C54.5814 92.598 57.2657 102.288 57.9771 106.364V106.365Z" fill="#FF4B42"/>
<path d="M59.7524 90.1374L55.5357 121.835C55.5357 121.835 53.6836 122.298 52.2437 121.927C52.2437 121.927 51.0091 105.069 51.1122 100.994C51.2152 96.9182 50.2262 90.0884 51.338 89.3356C52.4497 88.5821 59.7531 90.1381 59.7531 90.1381L59.7524 90.1374Z" fill="#FF7B69"/>
<path d="M59.4525 61.0723C59.4525 61.0723 58.3972 60.9879 57.1528 60.427C56.1428 59.9716 54.8682 60.4733 54.4548 60.6993C54.4659 60.6298 54.4922 60.5359 54.5558 60.4413C54.5558 60.4413 54.3701 60.5781 54.3425 60.7687C54.3235 60.783 54.315 60.7932 54.3196 60.7966C54.3196 60.7966 54.1089 60.7564 53.9737 60.8197C53.9737 60.8197 54.0682 60.8054 54.1023 60.8687C54.1063 60.8755 54.1115 60.881 54.1174 60.8864C52.5416 61.676 52.3959 64.2591 52.9033 64.8561C53.5136 65.5749 54.2447 67.1942 54.2447 67.1942C54.2447 67.1942 54.5112 66.8116 54.4003 66.1786C54.2894 65.5456 54.8164 65.5456 55.4819 65.2584C56.1474 64.9704 55.5928 64.1652 56.1749 63.6765C56.7571 63.1878 58.8927 63.475 58.8651 63.1013C59.6579 62.8018 59.4525 61.156 59.4525 61.0716V61.0723Z" fill="#501506"/>
<path d="M53.6967 70.8936L54.6673 92.498C54.6673 92.498 62.7707 92.6355 62.5391 90.7337C62.3074 88.8319 59.6185 71.5552 59.6185 71.5552L53.6967 70.8936Z" fill="#E9F3FE"/>
<path d="M50.8037 83.1401C51.2861 84.6403 50.3772 89.6732 50.0529 91.3782C49.9821 91.739 49.9341 91.952 49.9341 91.952C51.0564 93.8457 55.1662 93.8212 55.1662 93.8212C55.9564 90.198 56.3673 84.4273 56.3673 84.4273L53.2137 70.0911L49.2463 73.8946C49.2463 73.8946 49.5469 76.2143 49.9184 78.5749C50.2111 80.444 50.5425 82.3458 50.8037 83.1408V83.1401Z" fill="#24555E"/>
<path d="M57.5473 66.8033C57.5473 66.8033 57.6241 67.051 58.2246 66.9602C58.2246 66.9602 58.7286 66.8845 58.6912 66.6089C58.6912 66.6089 58.1846 66.4534 57.5466 66.8033H57.5473Z" fill="white"/>
<path d="M62.102 71.2019C62.102 71.2019 62.1026 71.2053 62.1039 71.2108C62.2956 71.4034 67.7049 76.8501 68.753 78.984C69.8201 81.1478 63.8766 85.4592 63.8766 85.4592C63.8766 85.4592 63.494 85.6157 63.2289 85.5545C63.5091 87.947 63.8235 90.1551 63.6371 91.0978C63.3004 92.8009 61.781 93.3733 61.781 93.2419C61.781 93.2004 61.3899 87.0308 60.9239 83.8446C59.8896 76.7718 58.6564 70.134 58.6564 70.134C60.4251 70.3246 62.1026 71.2019 62.1026 71.2019H62.102ZM65.3225 79.9186C65.3303 79.9104 65.3303 79.8941 65.3303 79.8859C65.3303 79.5741 64.1844 78.886 62.9434 78.0746C62.9276 78.0583 62.9197 78.0501 62.9197 78.0501C62.9191 78.0501 62.9184 78.0488 62.9171 78.0488C62.9394 78.7117 62.9368 79.3625 62.8987 79.9676C62.8285 81.0907 62.9073 82.4329 63.0379 83.7997C63.6285 82.8427 65.2063 80.2718 65.3218 79.9192L65.3225 79.9186Z" fill="#24555E"/>
<path d="M53.467 70.0646C53.4572 69.8583 54.3989 69.5738 54.3989 69.5738C54.3989 69.5738 55.4766 71.1237 57.2526 71.1502C57.2526 71.1502 56.7466 72.1719 56.15 72.436C56.15 72.436 53.5254 71.2891 53.467 70.0646Z" fill="#D9E9F9"/>
<path d="M59.7465 85.7519C59.7032 86.2563 59.4801 86.7266 59.1204 87.0697L58.5553 87.6094C58.4136 87.7449 58.1904 87.7265 58.071 87.5693L57.3714 86.6477C57.1837 86.4006 57.0957 86.0875 57.1239 85.7744C57.1896 85.0767 57.3116 83.733 57.4088 82.4357C57.4882 81.3847 57.5519 80.3637 57.5565 79.7423C57.5715 77.7588 57.1922 71.4348 57.1922 71.4348L57.651 71.4593C57.651 71.4593 58.7896 73.9144 59.3856 77.2545C59.5326 78.0767 59.6461 78.952 59.7026 79.8587C59.7026 79.8587 59.9415 83.471 59.7459 85.7519H59.7465Z" fill="#FF4B42"/>
<path d="M59.7465 85.7519C59.7032 86.2563 59.4801 86.7266 59.1204 87.0697L58.5553 87.6094C58.4136 87.7449 58.1904 87.7265 58.071 87.5693L57.3714 86.6477C57.1837 86.4006 57.0957 86.0875 57.1239 85.7744C57.1896 85.0767 57.3116 83.733 57.4088 82.4357C58.6755 80.9593 59.1893 78.9194 59.3862 77.2551C59.5332 78.0774 59.6468 78.9527 59.7032 79.8594C59.7032 79.8594 59.9421 83.4717 59.7465 85.7526V85.7519Z" fill="#FF4B42"/>
<path d="M57.2526 71.1142C57.2526 71.1142 58.193 70.5356 58.1963 69.9087C58.1963 69.9087 58.8041 69.8297 59.0692 70.1354C59.0692 70.1354 59.2924 71.2101 58.9964 71.8343C58.9964 71.8343 57.6418 71.6206 57.2526 71.1142Z" fill="#D9E9F9"/>
<path d="M56.614 71.0209L57.8899 70.7037C57.8899 70.7037 58.0566 70.7186 58.052 70.9344C58.0474 71.1502 57.693 71.7798 57.5355 71.8295C57.3786 71.8799 56.3128 71.4565 56.614 71.0209Z" fill="#FF4B42"/>
<path d="M53.616 69.9584C53.6061 69.7521 54.2434 69.3274 54.2434 69.3274C54.2434 69.3274 55.4772 70.8228 57.2525 70.8494C57.2525 70.8494 56.7465 71.871 56.15 72.1351C56.15 72.1351 53.6744 71.1829 53.616 69.9584Z" fill="#E9F3FE"/>
<path d="M57.2526 70.8494C57.2526 70.8494 58.2042 70.3266 58.2075 69.699C58.2075 69.699 58.7818 69.9611 59.0469 70.2667C59.0469 70.2667 59.2924 70.9453 58.9964 71.5695C58.9964 71.5695 57.6418 71.3558 57.2526 70.8494Z" fill="#E9F3FE"/>
<path d="M64.2554 85.8104C64.2554 85.2598 63.7888 84.818 63.2637 84.9004C63.118 84.9235 62.9861 84.9854 62.8955 85.1114C62.5339 85.6103 62.1907 87.0615 62.8306 87.1289C63.0911 87.1568 63.4258 86.9669 63.6838 86.764C63.9456 86.5578 64.2561 86.2345 64.2561 85.8935V85.8111L64.2554 85.8104Z" fill="#FCBDB6"/>
<path d="M50.053 91.3776C51.2146 90.1231 53.2223 87.6564 53.1514 85.6314C53.0562 82.795 49.9191 78.5742 49.9191 78.5742C50.2118 80.4433 50.5432 82.3451 50.8044 83.1401C51.2868 84.6403 50.3778 89.6732 50.0536 91.3782L50.053 91.3776Z" fill="#1C3A3E"/>
<path d="M50.0896 86.4448C50.0896 86.4448 50.9251 86.8777 51.4318 86.6612C51.9391 86.4448 52.5357 86.2821 53.1021 86.9512C53.6691 87.6203 53.7879 88.0845 53.6691 88.3316C53.5497 88.5793 52.2285 88.4861 52.0093 88.3316C51.7901 88.1771 51.4436 87.7959 51.2231 87.8626C50.616 88.0457 50.1047 87.5652 49.8186 87.1826C49.646 86.9519 50.112 86.8402 50.089 86.4441L50.0896 86.4448Z" fill="#FCBDB6"/>
<path d="M53.2143 70.0904C53.2143 70.0904 49.8875 70.4723 49.1032 71.9745C48.3189 73.4767 44.2393 79.566 44.3726 82.096C44.5058 84.6267 49.9374 87.4637 49.9374 87.4637C49.9374 87.4637 51.1404 86.9362 51.1581 86.3692C51.1758 85.8022 47.4034 82.4118 47.6318 81.7795C47.8608 81.1472 52.0153 76.1436 52.4156 74.4936C52.8166 72.8437 53.2137 70.0897 53.2137 70.0897L53.2143 70.0904Z" fill="#24555E"/>
<path d="M62.9198 78.0495C62.9198 78.0495 62.9277 78.0576 62.9434 78.074C64.1845 78.8853 65.3304 79.5742 65.3304 79.8852C65.4965 79.3359 63.8839 77.0407 63.3621 76.5738C62.8325 76.098 62.9198 78.0488 62.9198 78.0488V78.0495Z" fill="#1C3A3E"/>
<path d="M54.2434 69.3274C54.2434 69.3274 56.7688 80.2977 56.3672 84.43C56.3672 84.43 55.4385 80.0139 53.2044 76.3968C53.2044 76.3968 54.0196 75.6528 53.9756 75.3785C53.9756 75.3785 53.3705 75.1927 52.7831 75.3179C52.7831 75.3179 52.8481 70.5894 53.2143 70.0897C53.5805 69.5901 54.244 69.3274 54.244 69.3274H54.2434Z" fill="#1C3A3E"/>
<path d="M58.2075 69.699C58.1734 69.7154 60.71 80.4189 60.9239 83.8447C60.9239 83.8447 60.6706 77.7309 60.6956 75.9694C60.6956 75.9694 59.6468 75.3935 59.6468 75.1913C59.6468 74.9892 60.7658 74.4426 60.7658 74.4426C60.7658 74.4426 60.057 70.6778 59.6704 70.2626C59.2838 69.8481 58.2075 69.6984 58.2075 69.6984V69.699Z" fill="#1C3A3E"/>
<path d="M36.0422 123.18L43.3626 123.171C44.3156 123.17 45.094 122.36 45.0927 121.373L45.0887 118.082C45.0874 117.094 44.3071 116.287 43.3548 116.288L36.0343 116.297C35.0814 116.298 34.303 117.107 34.3043 118.095L34.3083 121.385C34.3096 122.374 35.0899 123.181 36.0422 123.18Z" fill="#1C3A3E"/>
<path d="M43.8929 117.145C43.6192 116.651 43.1263 116.303 42.5553 116.245C42.5553 116.245 42.5547 116.245 42.554 116.245C42.4983 116.24 42.4418 116.236 42.3841 116.236L40.9264 116.238V115.528C40.9257 115.37 40.8654 115.221 40.7571 115.108C40.6481 114.996 40.5037 114.934 40.3515 114.935H39.9715L38.441 114.937H38.1653C37.849 114.938 37.5917 115.205 37.5924 115.533V116.243L35.0774 116.246C34.1212 116.247 33.3402 117.059 33.3408 118.051L33.3448 121.379C33.3461 122.371 34.129 123.181 35.0853 123.18L42.3926 123.172C42.5212 123.172 42.6472 123.157 42.768 123.129C42.768 123.129 42.768 123.129 42.7686 123.129C42.9623 123.084 43.1441 123.005 43.3075 122.899C43.8004 122.58 44.1298 122.011 44.1292 121.367L44.1252 118.039C44.1252 117.715 44.0406 117.41 43.8942 117.147L43.8929 117.145ZM37.9507 115.532C37.9507 115.432 38.0144 115.348 38.101 115.319C38.1214 115.313 38.1424 115.309 38.1647 115.309H38.4895L39.6939 115.308H40.3502C40.4683 115.307 40.5648 115.407 40.5648 115.528V116.238L37.9507 116.241V115.532Z" fill="#24555E"/>
<path d="M102.7 73.8981C103.027 74.5815 103.552 75.3588 104.036 75.514C104.585 75.6896 104.838 75.9946 104.838 75.9946L105.237 75.693L105.713 75.3323C105.713 75.3323 105.696 75.2751 105.661 75.1825C105.627 75.0906 105.576 74.9627 105.509 74.8218C105.509 74.8218 105.333 74.6312 105.402 74.3603C105.471 74.0901 105.411 73.6898 105.224 73.4618C105.036 73.2345 104.819 72.647 104.722 72.6756C104.489 72.7437 104.927 73.5353 104.841 73.7007C104.764 73.8498 104.644 73.8144 104.621 73.8062C104.62 73.8055 104.619 73.8049 104.617 73.8042C103.921 73.5728 102.95 72.0249 102.614 72.2843C102.489 72.3816 102.561 73.6068 102.7 73.8981Z" fill="#FCBDB6"/>
<path d="M116.255 72.1937C116.255 72.1937 113.009 77.3511 111.549 78.8663L105.628 74.8483C105.628 74.8483 104.822 75.1621 104.512 76.0401C104.512 76.0401 108.381 83.0864 111.784 83.179C115.188 83.2715 119.406 73.9525 119.406 73.9525L116.255 72.193V72.1937Z" fill="#FF4B42"/>
<path d="M127.865 123.306H130.328C130.639 123.131 130.915 122.731 131.002 122.135C131.122 121.311 132.012 120.863 132.205 120.189C132.397 119.516 131.411 118.568 131.411 118.568L131.246 118.348L131.075 118.119L129.439 118.519C129.439 118.519 129.398 118.923 129.374 119.437C129.356 119.808 129.347 120.238 129.367 120.614C129.415 121.511 129.125 122.479 128.355 122.654C127.786 122.782 127.812 123.133 127.865 123.306V123.306Z" fill="#FF4B42"/>
<path d="M113.564 123.306H119.199C119.47 122.963 119.371 121.697 119.329 121.283C119.321 121.2 119.315 121.151 119.315 121.151C119.315 121.151 117.39 119.555 117.126 120.778C117.118 120.816 117.108 120.853 117.098 120.891C116.765 122.034 115.271 122.553 114.409 122.698C113.848 122.793 113.641 123.095 113.564 123.306Z" fill="#FF4B42"/>
<path d="M114.638 90.684C114.638 90.684 114.93 94.4651 115.273 99.0092C115.74 105.183 116.301 112.766 116.357 114.203C116.453 116.698 116.838 120.688 116.838 120.688C116.838 120.688 117.751 121.636 119.579 121.236C119.579 121.236 121.208 115.54 121.674 109.513C121.681 109.415 121.688 109.315 121.695 109.215C122.128 103.08 122.801 90.1599 122.801 90.1599L114.637 90.6833L114.638 90.684Z" fill="#24555E"/>
<path d="M114.638 90.684C114.638 90.684 114.93 94.4651 115.273 99.0092L121.674 109.513C121.681 109.414 121.689 109.315 121.696 109.214C122.129 103.079 122.802 90.1592 122.802 90.1592L114.638 90.6826V90.684Z" fill="#1C3A3E"/>
<path d="M115.972 91.1325C115.972 91.1325 121.239 104.825 124.702 111.26C128.165 117.695 129.247 119.49 129.247 119.49C129.247 119.49 131.231 118.668 131.411 118.106C131.411 118.106 130.087 105.683 127.768 102.655C126.457 100.944 124.918 95.8087 124.846 94.0131C124.774 92.2175 124.377 88.6631 124.377 88.6631L115.973 91.1325H115.972Z" fill="#24555E"/>
<path d="M117.283 71.172C119.341 71.8452 122.902 70.0278 122.902 70.0278C122.902 70.0278 121.005 68.5508 121.104 65.4796L119.512 66.8096L118.431 67.7129C118.431 67.7129 118.436 68.2452 118.554 69.179C118.586 69.4248 118.624 69.6984 118.673 69.9972C117.79 70.5002 117.283 71.172 117.283 71.172Z" fill="#FCBDB6"/>
<path d="M118.431 67.7128C118.431 67.7128 118.436 68.2451 118.554 69.179C119.752 68.9659 121.11 66.958 121.11 66.958C120.501 66.7756 119.966 66.7429 119.512 66.8096L118.431 67.7128Z" fill="#F9A6A0"/>
<path d="M117.802 67.6625C117.802 67.6625 121.202 68.2479 121.521 66.0473C121.84 63.846 122.493 62.4391 120.337 61.9721C118.179 61.5052 117.635 62.2791 117.356 62.987C117.077 63.6949 116.926 67.4535 117.802 67.6625Z" fill="#FCBDB6"/>
<path d="M114.411 90.9985C114.473 91.0516 114.545 91.0842 114.627 91.0842C115.401 91.0733 117.654 91.5185 119.561 91.3157C121.168 91.1557 122.592 90.6615 124.12 89.9516C124.322 89.857 124.79 89.599 124.779 89.3635C124.773 89.1062 124.748 88.7325 124.717 88.2622C124.609 86.6266 124.42 83.8127 124.604 80.5673C124.637 79.9628 124.654 79.3632 124.656 78.773C124.672 74.3739 123.831 70.505 122.141 69.1954C121.996 69.0878 121.11 69.537 120.296 69.9536C119.544 70.3389 118.791 70.3811 118.08 70.232L117.369 70.8841C116.504 71.7179 115.555 72.8505 115.143 74.5713C114.793 76.0354 114.587 78.6757 114.473 81.412C114.422 82.6521 114.38 83.9025 114.37 85.0889V85.1311C114.36 85.2489 114.36 85.3775 114.36 85.4946C114.318 88.5406 114.36 90.9563 114.411 90.9992V90.9985Z" fill="#FF7B69"/>
<path d="M124.716 88.2615C124.607 86.6259 124.419 83.812 124.603 80.5666C124.635 79.9622 124.653 79.3625 124.655 78.7724C123.951 77.0013 123.375 75.7169 123.375 75.7169H121.601C121.601 75.7169 120.3 84.9331 124.715 88.2615H124.716Z" fill="#FF4B42"/>
<path d="M121.523 65.8349C121.523 65.8349 121.175 65.7743 121.231 65.2761C121.287 64.7778 121.286 64.1264 120.895 64.2476C120.505 64.3688 120.485 64.6934 120.325 64.5042C120.164 64.315 120.161 63.5166 118.999 63.4614C117.837 63.4056 117.364 63.8256 116.823 63.5792C116.283 63.3328 116.254 62.484 116.254 62.484C116.254 62.484 116.408 62.7869 116.64 62.8835C116.64 62.8835 115.739 61.6046 116.783 60.7272C117.827 59.8498 118.891 60.4243 119.496 60.4624C120.827 60.5461 121.687 60.6292 122.122 61.5358C122.557 62.4431 122.377 64.9623 121.523 65.8356V65.8349Z" fill="#501506"/>
<path d="M88.2138 61.6461L91.408 63.6942L91.7657 63.0939L88.5715 61.0457C88.4113 60.943 88.202 60.9947 88.1029 61.1601C88.0038 61.3262 88.0537 61.5433 88.2131 61.6461H88.2138Z" fill="#233862"/>
<path d="M122.418 80.3944L121.561 82.5365L121.578 82.5474L121.538 82.5964L121.514 82.6563L121.497 82.6454L120.032 84.3981C120.032 84.3981 98.0846 70.3355 89.8394 63.1164C89.5756 62.8849 89.5152 62.4874 89.697 62.1832C89.8788 61.8782 90.2483 61.7564 90.566 61.898C100.478 66.3196 122.418 80.3951 122.418 80.3951L122.418 80.3944Z" fill="#49ADB7"/>
<path d="M90.1735 61.8496C90.2115 61.9796 90.2837 62.0994 90.39 62.1927C98.6352 69.4118 120.583 83.4744 120.583 83.4744L121.741 82.0886L121.562 82.5371L121.579 82.548L121.538 82.597L121.515 82.6569L121.498 82.646L120.033 84.3987C120.033 84.3987 98.0852 70.3362 89.8401 63.117C89.5762 62.8856 89.5158 62.4881 89.6976 62.1838C89.8066 62.0014 89.9825 61.885 90.1741 61.851L90.1735 61.8496Z" fill="#1D8D93"/>
<path d="M142.929 97.5445L139.13 95.1091L140.194 93.3237L143.993 95.7591C144.468 96.064 144.616 96.7107 144.322 97.2035C144.028 97.6963 143.405 97.8494 142.929 97.5445Z" fill="#1C3A3E"/>
<path d="M119.422 84.5941L136.675 95.6549C137.967 96.4833 139.662 96.0688 140.461 94.7286C141.26 93.3883 140.86 91.6302 139.568 90.8018L122.315 79.741C122.093 79.598 121.801 79.6695 121.664 79.9002L119.269 83.9182C119.131 84.149 119.2 84.4518 119.422 84.5941Z" fill="#49ADB7"/>
<path d="M140.693 94.2392C140.632 94.4066 140.555 94.5707 140.461 94.7286C139.662 96.0688 137.967 96.4833 136.675 95.655L119.422 84.5941C119.2 84.4512 119.131 84.149 119.269 83.9182L119.57 83.4125L137.225 94.7313C138.365 95.4623 139.818 95.2248 140.693 94.2392H140.693Z" fill="#1D8D93"/>
<path d="M124.72 80.6102L126.425 81.7346C126.596 82.3479 127.078 82.9905 127.78 83.454C128.483 83.9175 129.249 84.0979 129.857 83.9979L140.045 90.7181C141.466 91.6554 141.886 93.6164 140.983 95.0893L140.008 96.6794C139.853 96.9326 139.925 97.2681 140.169 97.4288C140.413 97.5894 140.737 97.5152 140.891 97.262L141.867 95.672C143.08 93.6933 142.515 91.0605 140.607 89.8019L125.282 79.6933C125.038 79.5327 124.714 79.6069 124.559 79.8601C124.404 80.1133 124.476 80.4489 124.72 80.6095V80.6102Z" fill="#24555E"/>
<path d="M119.533 84.1837L119.57 83.4125L121.659 79.9077L118.721 83.3233L119.533 84.1837Z" fill="#1D8D93"/>
<path d="M128.157 89.4759C128.155 89.4337 128.153 89.3908 128.15 89.3465C128.134 89.1273 127.736 88.5781 127.736 88.5781L128.733 88.0417L129.127 88.7183C129.723 89.2104 129.734 89.2186 129.625 90.1606C129.531 90.9767 130.046 90.9862 130.034 91.5696C130.021 92.1522 129.297 91.8664 129.297 91.8664C128.175 91.3198 128.082 91.0448 128.116 90.4907C128.01 90.6473 127.891 90.7385 127.79 90.6704C127.7 90.6105 127.878 90.3716 127.956 89.8189C127.967 89.7365 128.061 89.5984 128.156 89.4765L128.157 89.4759Z" fill="#FCBDB6"/>
<path d="M128.747 88.9994C128.108 89.1287 127.416 89.0763 127.416 89.0763C127.416 89.0763 125.518 82.9979 125.274 82.4432C125.03 81.8878 119.639 75.3166 119.639 75.3166L121.885 69.488C121.885 69.488 127.716 79.5891 128.308 81.009C129.287 83.3546 129.626 88.6134 129.626 88.6134C129.626 88.6134 129.249 88.8993 128.747 89.0007V88.9994Z" fill="#FF7B69"/>
<path d="M102.558 73.0241C102.558 73.0241 102.505 72.1277 102.845 72.1277C103.185 72.1277 104.919 74.4501 104.919 74.4501L104.781 74.9504L102.557 73.0241H102.558Z" fill="#FCBDB6"/>
<path d="M26.1162 123.127H144.884C144.948 123.127 145 123.181 145 123.247V123.27C145 123.336 144.948 123.39 144.884 123.39H26.1155C26.0518 123.39 26 123.336 26 123.27V123.247C26 123.181 26.0518 123.127 26.1162 123.127V123.127Z" fill="#1C3A3E"/>
</g>
<defs>
<clipPath id="clip0_19_377">
<rect width="119" height="77.1938" fill="white" transform="translate(26 46.1963)"/>
</clipPath>
</defs>
</svg>
