<svg width="170" height="170" viewBox="0 0 170 170" fill="none" xmlns="http://www.w3.org/2000/svg">
<ellipse cx="85" cy="85.1082" rx="85" ry="84.8081" fill="#101010"/>
<path d="M132.629 77.8507C130.77 75.4816 128.571 73.1707 127.998 69.9537C127.006 64.3868 131.248 59.6401 132.637 54.2036C133.598 50.444 133.102 46.1641 131.327 42.8835C129.552 39.6034 126.533 37.3899 123.344 37.03C117.855 36.4105 112.484 40.9601 107.078 39.6425C102.75 38.5874 99.3288 33.9332 94.9347 33.4345C89.7637 32.848 85.4738 38.0995 80.5361 40.0763C74.6301 42.4413 68.2267 39.9699 62.42 37.2577C56.6137 34.5454 50.5047 31.5195 44.3837 32.8174C37.5709 34.2624 31.8584 41.5664 30.9471 49.9982C30.0443 58.3542 37.618 65.0622 31.171 75.0952C29.1563 78.2305 27.8162 82.5963 28.7066 86.4399C29.5723 90.1748 33.2547 92.5368 33.2815 96.4201C33.3028 99.4856 30.9531 101.925 30.764 104.982C30.6017 107.606 32.1354 110.032 34.0205 111.276C35.9056 112.519 38.0925 112.823 40.2194 113.105C40.2194 113.105 61.0818 114.854 71.8342 114.589C88.7904 114.172 105.747 113.755 122.703 113.339C124.446 113.296 126.231 113.243 127.855 112.463C129.478 111.684 130.935 110.015 131.182 107.892C131.603 104.279 128.534 101.145 128.818 97.5112C129.18 92.8726 134.49 91.0827 135.5 86.5913C136.213 83.417 134.49 80.2199 132.63 77.8507H132.629Z" fill="url(#paint0_linear_57_4)"/>
<path d="M54.2085 103.39C50.3518 104.324 45.4266 99.2334 43.8398 93.6725C42.2068 87.95 45.2008 85.5526 45.1774 77.6117C45.1511 68.5911 41.2752 67.2313 38.711 55.0725C38.1328 52.329 34.7849 36.4538 38.9339 33.4778C42.7702 30.7265 53.5458 38.6223 55.4344 48.7292C56.781 55.9359 52.6182 58.9612 54.208 67.3545C55.6032 74.7192 59.2697 74.8255 60.6744 81.9306C62.3848 90.5805 59.2717 102.164 54.208 103.39H54.2085Z" fill="#BDD0FB"/>
<path d="M53.928 105.576C54.9678 95.8571 52.9393 80.8629 51.0547 69.9952C49.0142 58.2299 46.6987 48.6325 46.6754 48.537L46.3542 48.6511C46.3776 48.7467 48.6901 58.3309 50.7276 70.0812C52.6067 80.9169 54.6293 95.8613 53.5959 105.524L53.9275 105.575L53.928 105.576Z" fill="url(#paint1_linear_57_4)"/>
<path d="M45.8421 109.194C50.9013 106.003 52.6331 95.0454 49.7573 91.4841C47.8141 89.0777 45.0276 91.6091 42.3394 89.1144C38.9071 85.9299 41.432 79.9315 38.7334 72.1529C36.4368 65.5327 30.9283 59.2688 27.7095 60.554C24.3398 61.8993 22.5654 71.8819 25.4427 77.8898C27.3139 81.7966 30.1789 81.9889 30.8003 85.6222C31.5215 89.8384 28.0376 91.7611 28.0188 95.8493C27.9845 103.192 39.1493 113.416 45.8421 109.194Z" fill="#BDD0FB"/>
<path d="M43.1116 112C43.1418 112 43.1726 111.992 43.2014 111.975C43.3036 111.915 43.3463 111.766 43.2967 111.642C36.5896 94.9114 34.623 75.502 34.6037 75.3079C34.5903 75.171 34.4875 75.0736 34.3749 75.0898C34.2617 75.1061 34.1813 75.2304 34.1947 75.3668C34.2141 75.5615 36.189 95.0538 42.9259 111.859C42.9617 111.948 43.0351 112 43.1116 112V112Z" fill="url(#paint2_linear_57_4)"/>
<path d="M29.3513 80.3348C29.3727 80.3348 29.394 80.3264 29.4119 80.3095C29.4546 80.2693 29.4625 80.1942 29.4293 80.1425C27.3124 76.8528 24.9661 71.9108 25.8104 67.0475C26.3132 64.1508 27.7293 62.6403 27.7437 62.6252C27.7849 62.582 27.7893 62.5069 27.7536 62.457C27.7179 62.4071 27.6558 62.4017 27.6146 62.445C27.5546 62.5081 26.134 64.024 25.6178 66.9983C25.1428 69.7321 25.392 74.2571 29.2739 80.2891C29.2933 80.3191 29.3226 80.3354 29.3518 80.3354L29.3513 80.3348Z" fill="url(#paint3_linear_57_4)"/>
<path d="M46.2982 107.733C46.3294 107.733 46.3602 107.715 46.3796 107.681C49.6331 101.933 50.7424 97.492 49.6773 94.4805C48.7303 91.8031 46.3384 91.305 46.3145 91.3002C46.2609 91.29 46.2103 91.3338 46.2014 91.3987C46.1924 91.4636 46.2292 91.5249 46.2828 91.5357C46.3056 91.5405 48.5943 92.0206 49.4971 94.5772C50.5325 97.5088 49.4291 101.872 46.2172 107.547C46.1865 107.601 46.1979 107.675 46.2426 107.712C46.2594 107.726 46.2788 107.734 46.2982 107.734V107.733Z" fill="#F0F0F0"/>
<path d="M60.645 58.1802C58.1781 58.2475 56.2086 60.6864 56.2086 63.6732V113.494C56.2086 117.593 58.9068 120.944 62.2909 121.05C77.3227 121.519 129.898 122.657 144.207 122.402C146.666 122.358 148.659 119.976 148.73 116.999C149.006 105.425 149.454 77.5932 147.795 64.6719C147.446 61.9506 145.549 59.9161 143.275 59.8278C130.68 59.3399 74.9477 57.7915 60.645 58.1802Z" fill="url(#paint4_linear_57_4)"/>
<path d="M58.7906 63.4312V110.765C58.7906 113.157 60.3774 115.107 62.3539 115.143L142.148 116.336C144.108 116.372 145.714 114.463 145.721 112.091L145.855 65.1803C145.86 63.4841 144.743 62.0943 143.343 62.0529L61.6481 60.055C60.0811 60.0088 58.7906 61.5337 58.7906 63.4312Z" fill="url(#paint5_linear_57_4)"/>
<path d="M146.322 118.271H146.32L58.7891 116.457C58.7345 116.456 58.6913 116.401 58.6923 116.335C58.6933 116.269 58.7355 116.216 58.7926 116.217L146.324 118.032C146.378 118.033 146.422 118.087 146.421 118.154C146.42 118.219 146.376 118.271 146.322 118.271H146.322Z" fill="url(#paint6_linear_57_4)"/>
<mask id="mask0_57_4" style="mask-type:luminance" maskUnits="userSpaceOnUse" x="58" y="46" width="88" height="71">
<path d="M58.7906 63.4311V110.764C58.7906 113.157 60.3774 115.107 62.3539 115.143L142.148 116.336C144.108 116.372 145.714 114.463 145.721 112.091L145.855 65.1802C145.86 63.484 144.743 48.6153 143.343 48.5739L61.6481 46.576C60.0811 46.5298 58.7906 61.5337 58.7906 63.4311Z" fill="white"/>
</mask>
<g mask="url(#mask0_57_4)">
<path d="M133.344 96.7521C133.545 96.9901 139.064 96.379 141.383 97.112C141.383 97.112 143.18 85.1334 138.02 84.6624C132.859 84.1919 131.07 89.0564 131.07 89.0564L133.344 96.7515V96.7521Z" fill="url(#paint7_linear_57_4)"/>
<path d="M125.96 84.0981L138.739 84.6623C138.739 84.6623 134.082 84.7399 134.598 91.8684C135.113 98.9975 137.737 119.815 131.073 119.835C124.409 119.856 124.302 116.171 124.302 116.171L125.96 84.0981H125.96Z" fill="#7D97F4"/>
<path d="M121.583 80.7532L126.523 79.3611C126.523 79.3611 129.825 79.0017 130.272 82.5552C130.719 86.1086 130.589 107.161 130.449 111.502C130.309 115.844 130.646 119.183 132.664 119.835L117.981 120.143L121.583 80.7532H121.583Z" fill="url(#paint8_linear_57_4)"/>
<path d="M119.773 120.544C119.773 120.544 120.662 105.463 126.441 93.7742C127.503 91.6268 130.189 92.2426 130.524 94.7128C131.495 101.894 131.146 114.013 119.774 120.544H119.773Z" fill="#BDD0FB"/>
<path d="M128.708 94.9087C128.639 96.0425 128.504 97.1606 128.347 98.277C128.184 99.3916 127.993 100.501 127.769 101.601C127.321 103.801 126.76 105.97 126.071 108.08C125.723 109.134 125.355 110.178 124.942 111.198C124.742 111.712 124.519 112.211 124.305 112.716C124.078 113.213 123.856 113.713 123.61 114.197C122.658 116.152 121.541 117.995 120.267 119.654C120.229 119.703 120.165 119.706 120.124 119.66C120.086 119.616 120.081 119.545 120.113 119.496L120.114 119.494C121.247 117.715 122.269 115.845 123.155 113.881C123.383 113.395 123.586 112.893 123.804 112.399C124.006 111.897 124.217 111.4 124.406 110.889C124.5 110.634 124.603 110.383 124.694 110.126L124.973 109.359C125.064 109.102 125.15 108.842 125.239 108.584C125.329 108.326 125.413 108.066 125.496 107.805C125.668 107.286 125.828 106.76 125.99 106.237C126.144 105.709 126.298 105.181 126.442 104.649C126.739 103.589 127.003 102.515 127.258 101.437C127.507 100.358 127.739 99.2714 127.947 98.1779C128.16 97.0861 128.348 95.9836 128.508 94.881V94.8774C128.518 94.8107 128.57 94.7663 128.626 94.7783C128.677 94.7891 128.712 94.8462 128.709 94.9074L128.708 94.9087Z" fill="#DCE5FE"/>
<path d="M122.184 118.989C122.184 118.989 128.311 103.653 136.09 102.611C136.228 102.592 136.345 102.734 136.328 102.901C136.132 104.841 134.523 115.068 122.184 118.989Z" fill="#91B3FA"/>
<path d="M134.605 105.098C134.175 105.747 133.73 106.376 133.277 106.999C133.049 107.307 132.819 107.615 132.587 107.921C132.353 108.223 132.122 108.529 131.885 108.829C130.94 110.029 129.96 111.189 128.949 112.308C128.448 112.874 127.925 113.411 127.411 113.959L126.621 114.755C126.489 114.887 126.359 115.021 126.225 115.151L125.82 115.534C124.753 116.575 123.628 117.526 122.493 118.454C122.454 118.486 122.4 118.473 122.373 118.425C122.347 118.378 122.357 118.314 122.394 118.281L122.396 118.279L123.232 117.563L123.649 117.205C123.787 117.083 123.922 116.956 124.058 116.833L124.876 116.088C125.145 115.833 125.409 115.573 125.676 115.316L126.076 114.93L126.468 114.532L127.253 113.736C127.763 113.188 128.282 112.651 128.78 112.086C129.285 111.531 129.778 110.959 130.27 110.387L130.998 109.516L131.715 108.632C131.954 108.336 132.187 108.034 132.423 107.736C132.657 107.435 132.888 107.131 133.119 106.827C133.578 106.217 134.033 105.6 134.469 104.967L134.47 104.965C134.5 104.921 134.554 104.915 134.591 104.952C134.627 104.989 134.633 105.053 134.604 105.098H134.605Z" fill="#DCE5FE"/>
<path d="M111.541 81.0422C111.541 81.0422 120.535 81.6407 126.523 79.361C126.523 79.361 122.542 79.0312 122.542 90.1547C122.542 98.6598 123.584 114.894 122.674 117.975C121.765 121.057 118.363 125.199 113.486 121.639C108.61 118.079 111.541 81.0416 111.541 81.0416V81.0422Z" fill="#7D97F4"/>
<path d="M111.054 53.1241C111.054 53.1241 122.687 55.3954 124.296 53.0887C124.296 53.0887 123.28 48.694 119.708 48.7601C116.136 48.8262 111.054 53.1241 111.054 53.1241Z" fill="url(#paint9_linear_57_4)"/>
<path d="M79.1383 47.5685C75.5304 47.6148 72.666 51.2572 72.801 55.6224C73.2323 69.5639 74.1292 99.0514 74.4543 113.409C74.5268 116.609 76.5305 119.259 79.1582 119.628C88.5173 120.941 109.59 123.671 117.756 122.858C115.945 121.634 114.872 119.263 114.996 116.757L118.15 52.6193C118.261 50.3529 120.196 48.8399 121.916 49.7448C122.999 50.315 123.791 51.4344 124.296 53.0934C123.645 50.3445 122.524 48.2938 119.708 48.7648C119.708 48.7648 92.4171 47.3985 79.1383 47.5685Z" fill="url(#paint10_linear_57_4)"/>
<path d="M73.9356 55.7871C74.2548 52.1489 76.806 49.4012 79.8282 49.4481L116.553 50.0195C114.467 63.4738 113.934 91.1028 113.356 118.329C113.322 119.943 114.041 121.443 115.217 122.207C115.217 122.207 90.7553 121.027 80.2893 119.472C77.825 119.106 75.9036 116.715 75.6619 113.724C74.7144 101.985 72.5414 71.6755 73.9356 55.7877V55.7871Z" fill="#91B3FA"/>
<path d="M78.5685 60.7165C83.8908 60.8982 104.323 61.5696 109.483 61.7392C110.134 61.7604 110.651 62.2687 110.626 62.8604C110.602 63.4237 110.093 63.856 109.474 63.8379L78.5735 62.9522C77.9783 62.9353 77.4815 62.5078 77.4279 61.9656L77.4145 61.8286C77.3529 61.2091 77.8885 60.6923 78.569 60.7159L78.5685 60.7165Z" fill="url(#paint11_linear_57_4)"/>
<path d="M77.9565 67.2555C78.0409 67.3992 78.2022 67.4922 78.3784 67.5L99.5833 68.405C99.8498 68.4165 100.071 68.2318 100.081 67.9896L100.135 66.7181C100.145 66.4658 99.9233 66.249 99.6458 66.2412L79.0196 65.6549C78.1009 65.629 77.5167 66.5086 77.9565 67.2561V67.2555Z" fill="url(#paint12_linear_57_4)"/>
<path d="M78.0469 72.1615C83.3692 72.3433 103.802 73.0146 108.961 73.1843C109.612 73.2054 110.129 73.7138 110.104 74.3055C110.081 74.8688 109.571 75.3011 108.952 75.283L78.0519 74.3973C77.4567 74.3803 76.9599 73.9529 76.9063 73.4107L76.8929 73.2737C76.8313 72.6542 77.3669 72.1374 78.0474 72.1609L78.0469 72.1615Z" fill="url(#paint13_linear_57_4)"/>
<path d="M77.4348 78.7006C77.5192 78.8443 77.6805 78.9373 77.8567 78.9451L99.0616 79.8502C99.3282 79.8616 99.549 79.6769 99.5595 79.4348L99.6131 78.1633C99.6235 77.9109 99.4016 77.6941 99.1242 77.6863L78.498 77.1C77.5792 77.0741 76.995 77.9538 77.4348 78.7012V78.7006Z" fill="url(#paint14_linear_57_4)"/>
<path d="M79.9767 99.51C80.1578 96.7118 80.9411 93.9689 82.172 91.5625C82.7905 90.3608 83.5171 89.2354 84.3495 88.2314C84.5629 87.9874 84.7709 87.7363 84.9898 87.4984C85.2146 87.2694 85.434 87.0321 85.6643 86.8104C85.8996 86.5965 86.1324 86.3778 86.3741 86.1747L86.7429 85.8803L86.9275 85.733L87.0198 85.6597C87.0531 85.6345 87.0983 85.6021 87.1385 85.5762C87.7867 85.143 88.7173 85.1232 89.3457 85.8869C89.4986 86.0701 89.6053 86.2912 89.6847 86.5075C89.721 86.6163 89.7562 86.7269 89.777 86.8344C89.8043 86.9438 89.8187 87.0495 89.8336 87.1559C89.8892 87.5795 89.8733 87.9736 89.8406 88.354C89.8242 88.5438 89.7984 88.7307 89.7711 88.9122L89.6867 89.4253C89.6326 89.7678 89.5696 90.1085 89.5075 90.4491C89.3834 91.1305 89.2425 91.8065 89.0946 92.4806C88.493 95.1736 87.6964 97.8024 86.7111 100.324L86.3339 101.264C86.2019 101.575 86.0733 101.886 85.9383 102.194L85.7338 102.654L85.6316 102.884L85.5189 103.125C85.363 103.444 85.1888 103.755 84.9863 104.05C84.7828 104.344 84.5525 104.627 84.2656 104.864C83.9812 105.099 83.6228 105.29 83.2248 105.313C83.126 105.325 83.0277 105.313 82.9294 105.3C82.8297 105.293 82.7383 105.254 82.6435 105.227C82.4554 105.166 82.2772 105.055 82.1209 104.921C81.8057 104.651 81.5794 104.276 81.4389 103.872C81.3034 103.473 81.2443 103.057 81.2419 102.652C81.2379 102.248 81.288 101.862 81.3565 101.499C81.4265 101.135 81.5134 100.794 81.6097 100.46L81.7511 99.9564L81.9104 99.4607C82.3378 98.1406 82.9036 96.8915 83.5643 95.7264C84.2229 94.5584 85.0002 93.4931 85.8564 92.5353L86.0162 92.355L86.183 92.1838L86.517 91.8419C86.6307 91.7314 86.7473 91.6256 86.8625 91.5175C86.9781 91.4105 87.0918 91.2993 87.2129 91.2014C87.4517 90.9995 87.6884 90.7934 87.9376 90.6102L88.1222 90.469L88.2145 90.3987C88.2309 90.3867 88.2428 90.3764 88.2632 90.3626L88.3242 90.3212C88.4885 90.2166 88.6682 90.1463 88.8538 90.1229C89.2236 90.07 89.6227 90.2034 89.9101 90.5206C90.058 90.6787 90.1766 90.9052 90.2307 91.1383C90.2878 91.3726 90.2858 91.5974 90.2689 91.7999C90.251 92.0035 90.2153 92.1898 90.1766 92.3653L90.0609 92.867L89.8301 93.8608C89.5254 95.1869 89.2077 96.5087 88.897 97.833V97.836L88.4161 97.7321C88.4518 97.2862 88.5511 96.8362 88.7541 96.4324C88.8573 96.2317 88.9839 96.0461 89.1427 95.8917C89.3015 95.7342 89.4857 95.6249 89.6803 95.5552C89.8753 95.4891 90.0843 95.4651 90.2932 95.5071C90.3975 95.5275 90.5012 95.563 90.5995 95.6189C90.6496 95.6441 90.6958 95.6784 90.7424 95.712L90.8392 95.7859C91.074 95.9457 91.3673 95.9764 91.6086 95.8478C91.6696 95.8184 91.7252 95.7763 91.7783 95.73C91.8036 95.7048 91.8304 95.682 91.8528 95.6525L91.889 95.6099L91.9327 95.5534L92.2826 95.1015L92.9824 94.1979L93.6823 93.2942L94.0322 92.8423C94.1181 92.7324 94.2417 92.6362 94.3787 92.6032C94.5157 92.5677 94.6581 92.5912 94.7792 92.6579C94.9008 92.7246 95.0056 92.8333 95.077 92.9751C95.149 93.1169 95.1803 93.2948 95.1639 93.457C95.1619 93.4991 95.1545 93.5375 95.1455 93.5754C95.1376 93.6114 95.1267 93.6589 95.1207 93.6763L95.079 93.8187L94.9996 94.1059C94.8969 94.4899 94.81 94.8798 94.7375 95.274C94.6656 95.6681 94.6085 96.0659 94.5673 96.4667C94.5628 96.5159 94.5564 96.5688 94.5534 96.6151L94.5504 96.7377C94.5459 96.7791 94.5524 96.8182 94.5569 96.8578C94.5633 96.8969 94.5603 96.9383 94.5727 96.9756C94.6005 97.1312 94.669 97.2706 94.7529 97.3926C94.8368 97.5164 94.9534 97.6071 95.0755 97.6702C95.1361 97.7062 95.2026 97.7201 95.2671 97.7399C95.3331 97.7465 95.3992 97.7591 95.4647 97.7489C95.5947 97.7363 95.7248 97.6954 95.8359 97.6053L95.8791 97.5758L95.9178 97.5368L95.9968 97.4587L96.1774 97.2442C96.6589 96.6722 97.1195 96.0737 97.5563 95.4518C98.4289 94.2057 99.2101 92.8658 99.8866 91.4526L100.134 90.9184L100.254 90.6486L100.314 90.5134L100.329 90.4798C100.33 90.4762 100.328 90.478 100.329 90.4774C100.331 90.4768 100.327 90.481 100.328 90.484C100.328 90.5068 100.336 90.511 100.334 90.5092C100.334 90.5092 100.337 90.5122 100.345 90.511C100.352 90.5092 100.362 90.5068 100.362 90.505C100.362 90.505 100.362 90.505 100.361 90.505L100.34 90.5315L100.297 90.5843C100.268 90.6192 100.24 90.6552 100.212 90.6919C100.155 90.7634 100.101 90.8379 100.047 90.9124C99.833 91.2128 99.639 91.5343 99.4672 91.8726C99.3818 92.042 99.3014 92.215 99.2265 92.3917C99.1898 92.4806 99.1535 92.5695 99.1193 92.6597L99.0691 92.7955L99.0443 92.8634L99.0279 92.9246C98.9307 93.2443 98.9292 93.5976 99.0498 93.901C99.1674 94.2021 99.3828 94.4586 99.6444 94.5734C99.772 94.6419 99.9114 94.6557 100.048 94.6605C100.184 94.6449 100.322 94.6185 100.448 94.5397L100.545 94.4863L100.653 94.41C100.725 94.3583 100.798 94.3096 100.869 94.2555C101.012 94.151 101.153 94.0422 101.293 93.9311C102.41 93.0382 103.411 91.9314 104.243 90.663C104.326 90.5345 104.48 90.5128 104.587 90.6144C104.692 90.7159 104.71 90.9022 104.626 91.0308C103.761 92.3496 102.723 93.4979 101.563 94.425C101.417 94.5403 101.271 94.6533 101.123 94.7621C101.049 94.8179 100.973 94.869 100.898 94.9225L100.786 95.0018L100.65 95.0793C100.471 95.1869 100.267 95.2343 100.064 95.2524C99.8613 95.2505 99.6548 95.2223 99.4677 95.1256C99.0865 94.9543 98.7783 94.5926 98.6056 94.1492C98.4279 93.7052 98.4294 93.1674 98.5693 92.718L98.5936 92.632L98.6205 92.5587L98.6746 92.4121C98.7113 92.3148 98.7505 92.2186 98.7902 92.1225C98.8706 91.932 98.9575 91.7446 99.0498 91.5619C99.2349 91.1966 99.4449 90.8493 99.6762 90.5242C99.7347 90.4437 99.7933 90.3632 99.8544 90.2851C99.8846 90.2461 99.9149 90.207 99.9462 90.1691L99.9928 90.1121L100.016 90.0832C100.031 90.0664 100.048 90.0496 100.064 90.034C100.132 89.9715 100.223 89.9228 100.316 89.9192C100.409 89.9132 100.498 89.942 100.573 89.9925C100.72 90.0892 100.83 90.2977 100.815 90.5285C100.811 90.5819 100.802 90.6396 100.786 90.6853C100.779 90.7081 100.769 90.7345 100.761 90.7544L100.746 90.7886L100.685 90.9268L100.563 91.2026L100.31 91.7482C99.6186 93.1926 98.8205 94.562 97.9285 95.8352C97.4818 96.4709 97.0113 97.0819 96.5194 97.6672L96.3348 97.8859L96.2166 98.0049L96.1561 98.0631L96.0886 98.1112C95.9134 98.2488 95.7034 98.3209 95.4959 98.3395C95.3912 98.3527 95.2875 98.3377 95.1837 98.3233C95.0825 98.2957 94.9807 98.2692 94.8864 98.2164C94.6963 98.1196 94.5191 97.9772 94.3836 97.7831C94.2486 97.5921 94.1414 97.3637 94.0953 97.1144C94.0784 97.0537 94.0779 96.99 94.0694 96.9275C94.0625 96.8644 94.0555 96.8019 94.0595 96.7395L94.0655 96.5526L94.0804 96.3934C94.1235 95.9746 94.1831 95.5582 94.2586 95.146C94.3345 94.7338 94.4253 94.3258 94.5325 93.9245L94.6154 93.624L94.6591 93.475C94.669 93.4444 94.667 93.4408 94.6705 93.4276C94.674 93.4161 94.677 93.4047 94.676 93.3945C94.6799 93.3525 94.674 93.3176 94.6571 93.2822C94.6397 93.2473 94.6095 93.2155 94.5757 93.1974C94.5032 93.1632 94.4496 93.1752 94.3876 93.2473L94.0377 93.6991L93.3378 94.6028L92.638 95.5065L92.2881 95.9584L92.2444 96.0148L92.1893 96.0803C92.1531 96.126 92.1109 96.1644 92.0702 96.2041C91.9858 96.2792 91.8949 96.3459 91.7977 96.394C91.41 96.5989 90.9539 96.5484 90.596 96.3032L90.4759 96.2125C90.4491 96.1945 90.4233 96.1735 90.394 96.1596C90.3379 96.1272 90.2759 96.1062 90.2118 96.0935C90.0838 96.0671 89.9448 96.0821 89.8123 96.1266C89.5433 96.2185 89.3224 96.4396 89.1685 96.7449C89.0156 97.0477 88.9303 97.4148 88.901 97.7892L88.421 97.6852V97.6822C88.697 96.3465 88.9655 95.009 89.2464 93.6751L89.4554 92.6741L89.5586 92.1778C89.5899 92.0198 89.6137 91.8684 89.6227 91.7296C89.6311 91.5908 89.6257 91.464 89.5979 91.3684C89.5706 91.2717 89.5299 91.1978 89.4638 91.1293C89.3259 90.9851 89.1273 90.9214 88.9342 90.9557C88.8375 90.9707 88.7427 91.0121 88.6568 91.0704L88.625 91.0933L88.5838 91.1263L88.4975 91.1966L88.3247 91.3366C88.091 91.5175 87.8706 91.7217 87.6477 91.9206C87.5345 92.0174 87.4293 92.1267 87.3211 92.2319C87.2139 92.3382 87.1052 92.4422 86.9995 92.5503L86.6893 92.885L86.5339 93.052L86.3845 93.2263C85.5839 94.1522 84.8592 95.1766 84.2507 96.2954C83.6397 97.4106 83.1205 98.6015 82.7349 99.8531L82.5909 100.322L82.4644 100.799C82.377 101.117 82.3016 101.436 82.247 101.743C82.1343 102.357 82.1308 102.947 82.3035 103.428C82.3864 103.656 82.515 103.852 82.6674 103.976C82.7438 104.038 82.8232 104.087 82.9106 104.111C82.9989 104.138 83.0848 104.155 83.1717 104.144C83.3434 104.132 83.5285 104.045 83.7112 103.892C83.8933 103.739 84.0676 103.528 84.2269 103.294C84.3862 103.058 84.5312 102.796 84.6622 102.521L84.7585 102.312L84.8568 102.086L85.0528 101.636C85.1819 101.334 85.3055 101.029 85.432 100.726L85.7934 99.8056C86.7315 97.3379 87.5038 94.7771 88.084 92.1532C88.2265 91.4964 88.362 90.8373 88.4816 90.1739C88.5411 89.8423 88.6017 89.5106 88.6533 89.1771L88.7342 88.6778C88.7575 88.521 88.7779 88.3678 88.7908 88.2152C88.8166 87.9129 88.8241 87.6119 88.7878 87.3547C88.7526 87.097 88.6831 86.8897 88.5848 86.7737C88.5392 86.7076 88.4766 86.6668 88.4071 86.6229C88.3287 86.5887 88.2493 86.552 88.1614 86.5478C87.9892 86.5292 87.7986 86.5778 87.6284 86.6884C87.6055 86.7028 87.5891 86.7142 87.5623 86.7341L87.4765 86.802L87.3042 86.9378L86.9598 87.2087C86.7329 87.395 86.518 87.6011 86.2942 87.7928C86.0763 87.9941 85.8678 88.211 85.6539 88.4195C85.4459 88.6364 85.2479 88.8671 85.0439 89.09C84.2537 90.0153 83.538 91.0398 82.923 92.1508C81.6876 94.3685 80.8373 96.9125 80.4606 99.5827C80.4383 99.7443 80.3117 99.8531 80.1782 99.8254C80.0526 99.7996 79.9658 99.6608 79.9747 99.51H79.9767Z" fill="url(#paint15_linear_57_4)"/>
<path d="M105.439 90.515C105.358 90.515 105.278 90.4655 105.232 90.3755C105.16 90.2361 105.195 90.0525 105.309 89.965L107.754 88.1024C107.868 88.0148 108.019 88.0571 108.091 88.1966C108.163 88.336 108.128 88.5196 108.013 88.6065L105.569 90.4691C105.529 90.4999 105.483 90.5144 105.439 90.5144V90.515Z" fill="white"/>
<path d="M121.374 105.338C121.307 105.338 121.253 105.274 121.252 105.192C121.252 105.187 121.242 104.607 121.197 102.618C121.195 102.536 121.248 102.468 121.316 102.466C121.383 102.461 121.439 102.528 121.441 102.61C121.488 104.6 121.496 105.181 121.496 105.187C121.498 105.269 121.444 105.337 121.376 105.338H121.374Z" fill="white"/>
<path d="M121.264 100.495C121.198 100.495 121.144 100.432 121.142 100.352C121.109 99.0635 121.058 97.6401 121.005 96.1325C120.932 94.0963 120.857 91.9909 120.818 89.9624C120.713 84.6208 121.438 82.5743 122.064 81.7974C122.399 81.3828 122.674 81.3708 122.705 81.3708C122.772 81.3708 122.827 81.4369 122.827 81.5192C122.827 81.6015 122.774 81.6658 122.707 81.6676C122.676 81.67 120.904 81.8731 121.062 89.9558C121.101 91.9813 121.176 94.0854 121.249 96.1199C121.302 97.6281 121.353 99.0527 121.386 100.343C121.388 100.424 121.335 100.493 121.267 100.495C121.266 100.495 121.265 100.495 121.263 100.495H121.264Z" fill="url(#paint16_linear_57_4)"/>
<path d="M134.07 99.8952C134.006 99.8952 133.952 99.8345 133.948 99.7558C133.945 99.7077 133.705 94.8804 133.273 90.8625C132.828 86.7226 134.691 85.8532 134.771 85.8184C134.834 85.7901 134.904 85.8298 134.928 85.9073C134.951 85.9842 134.918 86.0689 134.855 86.0972C134.782 86.1302 133.098 86.9359 133.516 90.8247C133.948 94.8528 134.19 99.6903 134.192 99.7389C134.196 99.8207 134.145 99.891 134.078 99.8958C134.075 99.8958 134.073 99.8958 134.07 99.8958V99.8952Z" fill="url(#paint17_linear_57_4)"/>
</g>
<path d="M118.064 116.019C118.648 116.081 119.662 116.181 120.46 116.224C120.941 116.25 121.217 116.192 121.376 116.114C121.376 116.136 121.376 116.156 121.375 116.176C121.371 116.278 121.303 116.36 121.218 116.366C119.708 116.469 118.508 116.401 118.08 116.369C117.992 116.363 117.939 116.246 117.984 116.154C118.007 116.108 118.035 116.063 118.064 116.019L118.064 116.019Z" fill="url(#paint18_linear_57_4)"/>
<path d="M120.46 116.233C119.661 116.19 118.648 116.091 118.064 116.029C118.638 115.172 120.46 114.595 120.46 114.595H120.975C121.329 115.215 121.38 115.806 121.376 116.124C121.217 116.201 120.941 116.258 120.46 116.233Z" fill="url(#paint19_linear_57_4)"/>
<path d="M121.062 113.573L121.014 114.732C121.008 114.858 120.931 114.964 120.828 114.981C120.725 114.999 120.587 115.001 120.441 114.942C120.352 114.906 120.285 114.813 120.268 114.701L120.102 113.573H121.062L121.062 113.573Z" fill="url(#paint20_linear_57_4)"/>
<path d="M127.747 116.215C128 116.172 128.115 116.012 128.163 115.84C128.163 115.842 128.164 115.843 128.164 115.845C128.201 116.025 128.115 116.213 127.942 116.302C127.733 116.409 127.505 116.428 127.328 116.419C127.138 116.409 126.963 116.314 126.868 116.16L126.866 116.158C127.057 116.273 127.325 116.287 127.747 116.215Z" fill="url(#paint21_linear_57_4)"/>
<path d="M126.553 113.571H126.977C127.624 113.554 128.03 115.213 128.163 115.856C128.114 116.027 128 116.187 127.747 116.23C127.324 116.302 127.056 116.288 126.866 116.173C126.516 115.614 126.343 114.796 126.26 114.317C126.165 113.774 126.553 113.571 126.553 113.571Z" fill="url(#paint22_linear_57_4)"/>
<path d="M126.923 112.495L127.159 113.635C127.188 113.775 127.133 113.919 127.026 113.986C126.894 114.068 126.709 114.155 126.538 114.129C126.458 114.118 126.392 114.049 126.365 113.957L126.019 112.757L126.924 112.495H126.923Z" fill="url(#paint23_linear_57_4)"/>
<path d="M127.204 112.823C126.911 113.138 125.957 113.179 125.957 113.179C122.521 103.197 121.115 101.778 121.115 101.778C121.612 105.546 121.195 113.888 121.195 113.888C120.629 114.19 119.897 113.888 119.897 113.888C119.851 107.719 119.068 102.339 118.143 98.0978C120.465 98.0347 121.7 97.0727 122.103 96.6864C124.039 100.465 127.204 112.822 127.204 112.822L127.204 112.823Z" fill="url(#paint24_linear_57_4)"/>
<path d="M121.513 85.207C121.953 87.861 121.795 92.6114 121.692 94.7786C121.663 95.3879 122.014 96.2321 122.298 96.8077C122.343 96.8978 122.315 97.0138 122.238 97.0619C121.763 97.3575 120.153 98.2738 118.287 98.3879C118.162 98.3958 118.051 98.293 118.019 98.147C116.635 91.8903 115.027 87.8929 115.027 87.8929C116.802 84.4614 121.514 85.207 121.514 85.207H121.513Z" fill="url(#paint25_linear_57_4)"/>
<path d="M120.881 101.549C120.901 101.549 120.92 101.543 120.938 101.53C120.99 101.491 121.007 101.409 120.975 101.347C120.957 101.31 120.512 100.436 119.612 99.9082C119.558 99.8762 119.492 99.904 119.466 99.9704C119.439 100.037 119.462 100.117 119.517 100.149C120.355 100.641 120.782 101.477 120.787 101.485C120.808 101.526 120.844 101.549 120.881 101.549H120.881Z" fill="url(#paint26_linear_57_4)"/>
<path d="M124.271 92.825C124.13 94.0673 123.712 95.4218 122.878 96.8614L122.561 96.5469C122.561 96.5469 122.927 94.7403 122.719 92.6898C123.233 92.5679 123.841 92.6935 124.271 92.8257V92.825Z" fill="url(#paint27_linear_57_4)"/>
<path d="M121.023 88.4817L121.513 85.2071C121.513 85.2071 124.794 88.2426 124.271 92.8247C123.841 92.6931 123.233 92.5681 122.719 92.6895C122.569 91.2192 122.121 89.6228 121.023 88.4823V88.4817Z" fill="url(#paint28_linear_57_4)"/>
<path d="M115.07 87.8924L117.188 90.4755C117.555 92.4342 116.965 93.6083 116.161 94.3113C115.85 93.4815 115.466 92.8693 115.158 92.4649C115.876 90.5313 115.07 87.8918 115.07 87.8918V87.8924Z" fill="url(#paint29_linear_57_4)"/>
<path d="M115.158 92.4655C115.466 92.8724 115.85 93.487 116.161 94.3208C114.105 96.5022 112.82 94.5907 112.82 94.5907L113.234 94.3015C114.271 93.9905 114.852 93.292 115.158 92.4655Z" fill="url(#paint30_linear_57_4)"/>
<path d="M116.194 83.8209L116.805 86.5541C116.874 86.8614 117.147 87.0263 117.39 86.9079C117.652 86.7805 117.984 86.6067 118.271 86.4183C118.577 86.2178 118.672 85.7397 118.479 85.3883L117.208 83.0831L116.194 83.8203L116.194 83.8209Z" fill="url(#paint31_linear_57_4)"/>
<path d="M114.856 81.7572C114.851 81.8043 115.366 84.8762 115.366 84.8762L116.802 84.4807L116.669 81.4806C116.669 81.4806 114.949 80.9711 114.856 81.7572Z" fill="url(#paint32_linear_57_4)"/>
<path d="M116.346 82.1409L116.518 83.7062C116.52 83.726 116.52 83.7458 116.518 83.7663C116.503 83.8888 116.428 84.3064 116.08 84.1875C115.763 84.0793 115.474 83.9862 115.273 84.0601C115.184 84.0931 115.13 84.2037 115.148 84.3148C115.195 84.5924 115.311 85.2161 115.479 85.7395C115.513 85.8458 115.609 85.9017 115.699 85.8692C115.972 85.7731 116.541 85.5508 116.965 85.2426C117.023 85.2005 117.057 85.1254 117.054 85.0443C117.04 84.6489 117.002 83.4478 117.034 83.1113C117.064 82.7953 117.384 82.606 117.524 82.5381C117.57 82.5159 117.605 82.4726 117.624 82.4167C117.688 82.2215 117.777 81.7684 117.306 81.5834C117.207 81.5443 117.156 81.4157 117.19 81.298C117.26 81.063 117.29 80.7037 116.925 80.506C116.555 80.3053 116.278 80.5439 116.129 80.7386C116.069 80.8173 115.972 80.8293 115.897 80.7716C115.854 80.7392 115.799 80.7283 115.733 80.7782C115.644 80.8455 115.525 80.7998 115.479 80.6851C115.39 80.4646 115.209 80.2284 114.847 80.3035C114.204 80.4369 114.131 81.3004 114.301 81.8057C114.47 82.3116 115.161 82.1187 115.508 81.864C115.771 81.6699 116.113 81.8736 116.262 81.9817C116.309 82.016 116.34 82.0749 116.347 82.1409H116.346Z" fill="url(#paint33_linear_57_4)"/>
<path d="M117.092 83.6921C117.092 83.6921 116.828 82.7916 117.1 82.5706C117.372 82.3503 117.774 82.4644 117.685 83.1169C117.575 83.9287 117.092 83.6915 117.092 83.6915V83.6921Z" fill="url(#paint34_linear_57_4)"/>
<path d="M111.919 98.653C111.709 99.3392 111.999 100.102 112.565 100.356L124.285 105.608C124.852 105.863 125.482 105.512 125.692 104.826C125.902 104.14 125.612 103.378 125.046 103.123L113.326 97.8707C112.759 97.6165 112.129 97.9668 111.919 98.653Z" fill="url(#paint35_linear_57_4)"/>
<path d="M89.9503 85.5684C89.9067 85.712 89.9667 85.8714 90.0849 85.9245L91.5818 86.5987L91.7402 86.0784L90.2432 85.4042C90.1251 85.3511 89.994 85.4241 89.9503 85.5678V85.5684Z" fill="url(#paint36_linear_57_4)"/>
<path d="M90.9768 86.0279C90.8234 86.529 91.0115 87.089 91.4101 87.3179L96.3403 90.1564C96.9384 90.5006 97.5489 90.8125 98.1698 91.0907L113.293 97.8689C113.734 98.0666 114.225 97.7938 114.388 97.2596L114.786 95.9606C114.949 95.4258 114.723 94.8322 114.282 94.6345L99.1451 87.8497C98.5336 87.5757 97.9122 87.3348 97.2834 87.1281L91.9997 85.3904C91.5739 85.2504 91.1301 85.5268 90.9768 86.0279Z" fill="url(#paint37_linear_57_4)"/>
<path d="M132.893 104.833C132.74 105.337 132.536 105.722 132.422 105.722H131.02C130.85 105.722 130.69 105.689 130.54 105.621L127.545 104.273C127.438 104.224 127.484 103.75 127.647 103.213L128.045 101.908C128.208 101.371 128.428 100.975 128.534 101.023L131.533 102.374C131.681 102.44 131.818 102.54 131.945 102.672L133.012 103.786C133.098 103.876 133.047 104.33 132.894 104.834L132.893 104.833Z" fill="url(#paint38_linear_57_4)"/>
<path d="M92.3442 86.6453C92.0841 87.4955 92.4032 88.4454 93.0798 88.8342L101.446 93.6488C102.461 94.2328 103.497 94.7616 104.55 95.2338L128.304 105.876C129.052 106.212 129.885 105.749 130.162 104.842L130.836 102.638C131.113 101.731 130.731 100.723 129.982 100.388L106.204 89.7342C105.167 89.2692 104.113 88.8612 103.045 88.5097L94.0799 85.5625C93.3572 85.3252 92.6043 85.7945 92.3442 86.6447V86.6453Z" fill="url(#paint39_linear_57_4)"/>
<path d="M125.866 98.5487L124.187 104.037L124.871 104.344L126.55 98.8554L125.866 98.5487Z" fill="url(#paint40_linear_57_4)"/>
<path d="M110.631 98.2163C110.503 98.3382 110.064 98.0841 109.796 97.9084C109.665 97.8227 109.602 97.6368 109.646 97.4648C109.711 97.2173 109.819 96.8974 109.951 96.857C110.171 96.79 111.159 97.7153 110.631 98.2169L110.631 98.2163Z" fill="url(#paint41_linear_57_4)"/>
<path d="M122.691 96.4753L121.211 96.3282L120.57 97.0488C120.57 97.0488 120.721 97.3047 121.195 97.1577C121.67 97.0107 122.32 96.975 122.32 96.975C122.32 96.975 122.974 97.3349 122.982 96.6616L122.691 96.4759V96.4753Z" fill="url(#paint42_linear_57_4)"/>
<path d="M124.074 44.4908C124.018 43.4309 123.488 42.4918 122.696 42.0363L112.427 36.1323C111.769 35.7544 111.006 35.7544 110.348 36.1323L100.079 42.0363C99.2861 42.4918 98.7575 43.4309 98.7009 44.4908C97.7375 62.5152 107.285 69.0825 110.414 70.742C111.035 71.0713 111.74 71.0713 112.361 70.742C115.49 69.0831 125.038 62.5158 124.074 44.4908Z" fill="url(#paint43_linear_57_4)"/>
<path d="M108.281 38.7546C108.189 38.7546 108.101 38.6912 108.059 38.5838C108 38.4341 108.053 38.256 108.176 38.1848L110.602 36.7832C110.725 36.712 110.872 36.776 110.93 36.9251C110.989 37.0748 110.936 37.2528 110.814 37.3241L108.387 38.7256C108.353 38.7455 108.317 38.7546 108.282 38.7546H108.281Z" fill="url(#paint44_linear_57_4)"/>
<path d="M99.4862 48.4696C99.3541 48.4696 99.2449 48.3429 99.2405 48.1818C99.2077 47.006 99.2251 45.7796 99.2911 44.5371C99.3338 43.7379 99.7328 43.0277 100.332 42.6828L107.241 38.7112C107.364 38.6403 107.51 38.704 107.569 38.8524C107.627 39.0014 107.575 39.1787 107.452 39.2496L100.544 43.2212C100.105 43.4735 99.8133 43.9921 99.7825 44.5755C99.717 45.7982 99.7001 47.0048 99.7324 48.1614C99.7368 48.326 99.6306 48.4636 99.4946 48.469C99.4916 48.469 99.4891 48.469 99.4862 48.469V48.4696Z" fill="url(#paint45_linear_57_4)"/>
<path d="M121.591 45.1945C121.58 44.9259 121.448 44.6861 121.247 44.5702L111.647 39.0507C111.483 38.9564 111.293 38.9564 111.128 39.0507L101.529 44.5702C101.328 44.6855 101.196 44.9253 101.184 45.1945C100.9 51.918 102.183 57.5282 105 61.8765C107.148 65.1914 109.66 66.9682 111.132 67.7967C111.294 67.8881 111.481 67.8881 111.643 67.7967C113.115 66.9682 115.627 65.1914 117.775 61.8765C120.592 57.5282 121.875 51.918 121.591 45.1945Z" fill="url(#paint46_linear_57_4)"/>
<path d="M108.549 52.4184H107.592V47.8027C107.592 45.9899 108.714 44.4577 110.2 44.239L112.156 43.9512C112.998 43.8274 113.845 44.1465 114.48 44.8279C115.115 45.5086 115.479 46.488 115.479 47.5149V51.5442H114.522V47.5149C114.522 46.8191 114.276 46.1557 113.846 45.6949C113.416 45.234 112.842 45.0171 112.272 45.1013L110.315 45.3891C109.308 45.5375 108.549 46.5751 108.549 47.8027V52.4184H108.549Z" fill="url(#paint47_linear_57_4)"/>
<path d="M107.31 51.3826L115.697 50.8202C116.037 50.7974 116.324 51.1254 116.324 51.5388V59.5825C116.324 59.9796 116.058 60.3017 115.73 60.3017H107.544C107.224 60.3017 106.961 59.9934 106.95 59.6059L106.749 52.1253C106.738 51.7347 106.987 51.4048 107.31 51.3832L107.31 51.3826Z" fill="url(#paint48_linear_57_4)"/>
<path d="M112.903 57.9968L112.396 56.2303C112.335 56.0176 112.376 55.7802 112.507 55.6204C112.767 55.3013 112.922 54.8561 112.903 54.3676C112.871 53.506 112.289 52.8072 111.577 52.7742C110.789 52.7375 110.141 53.5 110.141 54.4457C110.141 54.9703 110.34 55.4383 110.652 55.7454C110.814 55.9046 110.881 56.166 110.812 56.4045L110.355 57.9974C110.243 58.3849 110.481 58.7893 110.82 58.7893H112.437C112.776 58.7893 113.014 58.3849 112.902 57.9974L112.903 57.9968Z" fill="url(#paint49_linear_57_4)"/>
<path d="M58.0799 55.1169C58.0298 54.1754 57.5598 53.3414 56.856 52.9364L47.7351 47.6922C47.1509 47.3563 46.4729 47.3563 45.8887 47.6922L36.7678 52.9364C36.064 53.3414 35.594 54.1754 35.5438 55.1169C34.6881 71.126 43.1677 76.9591 45.9477 78.433C46.4992 78.725 47.1256 78.725 47.6765 78.433C50.4561 76.9597 58.9356 71.1266 58.0804 55.1169H58.0799Z" fill="url(#paint50_linear_57_4)"/>
<path d="M44.0531 49.9933C43.9802 49.9933 43.9097 49.9432 43.8764 49.8575C43.8303 49.7392 43.8715 49.5973 43.9693 49.5406L46.1244 48.2959C46.2222 48.2398 46.3383 48.2899 46.385 48.4088C46.4311 48.5271 46.3899 48.669 46.2922 48.7257L44.137 49.9703C44.1097 49.986 44.0814 49.9933 44.0531 49.9933Z" fill="url(#paint51_linear_57_4)"/>
<path d="M36.2411 58.6223C36.1364 58.6223 36.0495 58.5214 36.0461 58.3934C36.0173 57.3497 36.0322 56.2615 36.0912 55.159C36.1285 54.4596 36.4779 53.8377 37.003 53.5355L43.1389 50.0079C43.2362 49.952 43.3528 50.0019 43.3994 50.1202C43.4456 50.2386 43.4044 50.3792 43.3066 50.4357L37.1708 53.9633C36.7737 54.1916 36.5097 54.6615 36.4814 55.1896C36.4233 56.2772 36.4084 57.3497 36.4367 58.3777C36.4402 58.5081 36.3558 58.6175 36.2481 58.6223C36.2456 58.6223 36.2436 58.6223 36.2416 58.6223H36.2411Z" fill="url(#paint52_linear_57_4)"/>
<path d="M55.8746 55.7413C55.8647 55.5027 55.7471 55.2894 55.5689 55.1873L47.0422 50.2849C46.8967 50.2014 46.7275 50.2014 46.582 50.2849L38.0553 55.1873C37.8771 55.29 37.7595 55.5027 37.7496 55.7413C37.4974 61.7132 38.637 66.696 41.1386 70.5583C43.0461 73.5025 45.2771 75.0803 46.585 75.817C46.729 75.8981 46.8947 75.8981 47.0387 75.817C48.3461 75.0809 50.5776 73.5031 52.4851 70.5583C54.9872 66.696 56.1263 61.7138 55.8741 55.7413H55.8746Z" fill="url(#paint53_linear_57_4)"/>
<path d="M47.8631 71.2282V63.3C49.5799 62.7688 50.8496 60.8833 50.8496 58.6392C50.8496 55.9822 49.0707 53.8287 46.8759 53.8287C44.681 53.8287 42.9021 55.9822 42.9021 58.6392C42.9021 60.9897 44.2948 62.9449 46.1353 63.3649V65.6307H45.1357C44.7609 65.6307 44.4572 65.9984 44.4572 66.452V66.4821C44.4572 66.9357 44.7609 67.3035 45.1357 67.3035H46.1353V69.395H44.5927C44.2179 69.395 43.9142 69.7627 43.9142 70.2164V70.2464C43.9142 70.7001 44.2179 71.0678 44.5927 71.0678H46.1353V71.227C46.1353 71.799 46.5185 72.2629 46.991 72.2629H47.0074C47.4799 72.2629 47.8631 71.799 47.8631 71.227V71.2282ZM44.4239 58.6392C44.4239 57 45.5213 55.6709 46.8759 55.6709C48.2304 55.6709 49.3278 56.9994 49.3278 58.6392C49.3278 60.2789 48.2304 61.6074 46.8759 61.6074C45.5213 61.6074 44.4239 60.2783 44.4239 58.6392Z" fill="url(#paint54_linear_57_4)"/>
<path d="M44.0089 76.955C44.0089 76.955 47.1722 81.8579 43.5632 86.845L42.2062 86.6918C42.2062 86.6918 44.8185 81.6146 43.6551 77.5672L42.3169 77.4591C42.0717 77.4393 41.8404 77.3113 41.6677 77.0998L41.2855 76.6323C41.15 76.4665 41.278 76.1889 41.4657 76.2418L44.0089 76.955Z" fill="url(#paint55_linear_57_4)"/>
<path d="M42.2763 100.954C42.2763 100.954 39.7132 107.717 38.3686 110.517C38.3686 110.517 38.1015 112.28 38.3686 112.834L38.5964 112.957L37.5342 112.918C37.5342 112.918 37.4399 110.548 37.5134 110.415C37.5868 110.283 37.7342 110.291 37.7342 110.291C37.7342 110.291 38.1899 105.923 39.5087 104.991L40.7873 99.6605L42.2763 100.954Z" fill="url(#paint56_linear_57_4)"/>
<path d="M39.0496 113.304C39.051 113.335 38.2202 113.32 37.7685 113.31C37.6017 113.307 37.4598 113.164 37.424 112.966L37.083 110.787C37.0508 110.58 37.1585 110.379 37.3277 110.332L37.5178 110.279C37.5178 110.279 37.7893 110.732 37.704 111.158C37.6186 111.585 37.5427 112.69 37.7586 112.818C37.9745 112.947 38.5959 112.969 38.5959 112.969C38.5959 112.969 39.0352 113.022 39.0496 113.303V113.304Z" fill="url(#paint57_linear_57_4)"/>
<path d="M44.7054 113.333C44.7893 113.392 44.755 113.548 44.6582 113.546C43.9028 113.537 42.2097 113.508 42.0594 113.432C41.8653 113.333 42.1303 112.485 42.4088 112.197L43.9485 112.809L44.7049 113.333H44.7054Z" fill="url(#paint58_linear_57_4)"/>
<path d="M45.1834 100.523C45.1834 100.523 43.5271 110.222 43.0585 112.114L44.1669 112.956C44.1669 112.956 43.6115 112.842 43.1995 112.806C42.7875 112.77 42.4088 112.197 42.4088 112.197L42.5418 111.941C42.5418 111.941 42.9573 102.294 42.856 101.199L45.1834 100.523Z" fill="url(#paint59_linear_57_4)"/>
<path d="M49.2951 77.8982C49.2951 77.8982 49.5234 82.9442 45.7288 85.5225L46.6426 88.0448C46.6426 88.0448 50.0738 85.5327 49.9512 78.6818C49.9478 78.4805 50.0034 78.284 50.1121 78.1314L50.8422 77.1057C51.1206 76.7152 51.2244 76.1852 51.1211 75.6847L51.0248 75.2196C50.9926 75.064 50.8462 74.9889 50.7315 75.0694L50.6551 75.1229C50.4119 75.2935 50.2193 75.5531 50.1046 75.8638L49.7462 76.8341C49.6291 77.1514 49.5864 77.2109 49.3586 77.1982C49.2837 77.194 49.2087 77.2025 49.1367 77.2277L48.755 77.3599L49.2951 77.8994V77.8982Z" fill="url(#paint60_linear_57_4)"/>
<path d="M45.8608 85.1445C45.226 85.3578 43.0754 86.0428 41.7322 86.0145L42.5567 91.6463L42.4912 92.565L45.1789 92.5506C45.1789 92.5506 45.9353 90.4236 46.5324 89.3625C46.7046 89.0561 46.5766 88.6907 46.4788 88.3398L46.6133 88.2317C46.7498 88.1217 46.8094 87.9144 46.7582 87.7258L46.1036 85.3013C46.0698 85.1794 45.9631 85.1103 45.8608 85.1445Z" fill="url(#paint61_linear_57_4)"/>
<path d="M45.3943 92.0694L45.3412 92.6258C45.3412 92.6258 46.1006 95.3795 44.9615 101.812C44.9615 101.812 42.4936 102.658 40.4656 100.633C40.4656 100.633 41.0379 94.5623 41.1942 94.2793C41.9725 92.8709 42.4912 92.5645 42.4912 92.5645L42.5145 91.9564C42.5145 91.9564 44.6835 92.4311 45.3943 92.0694Z" fill="url(#paint62_linear_57_4)"/>
<path d="M44.3425 85.6082C44.352 85.5931 43.7812 83.5126 43.7812 83.5126L42.9637 83.6025L42.6445 85.9626C42.6445 85.9626 43.9256 86.2772 44.342 85.6076L44.3425 85.6082Z" fill="url(#paint63_linear_57_4)"/>
<path d="M43.1592 80.2486C43.2138 80.2897 44.9059 81.1404 44.5421 83.2771C44.5207 83.4033 44.4512 83.5101 44.3544 83.5627C44.1063 83.6973 43.5717 83.9279 42.9324 83.8488C42.0459 83.7396 41.4652 81.8576 41.49 81.31C41.5148 80.7624 42.6192 79.8387 43.1592 80.248V80.2486Z" fill="url(#paint64_linear_57_4)"/>
<path d="M43.7186 84.7029C43.7186 84.2372 43.6382 83.7944 43.4933 83.3936C43.33 82.9418 43.3637 82.4143 43.6248 82.0357C44.0527 81.4162 44.2075 80.6309 43.9718 79.9435C43.604 78.8698 42.4236 78.4426 41.3362 78.9888C40.5653 79.3763 40.0486 80.1484 39.9439 80.9482C39.8838 81.4078 39.6808 81.8176 39.3756 82.1C38.9428 82.5002 38.6127 83.0554 38.4415 83.6971C38.3258 84.1309 38.0935 84.504 37.7664 84.7299C37.0279 85.2401 36.4129 86.0272 36.0401 87.0372C35.105 89.571 36.0496 92.5458 38.1501 93.6814C40.2501 94.8171 42.7105 93.6832 43.6457 91.1494C44.1648 89.7417 44.1038 88.1981 43.5866 86.9098C43.457 86.5866 43.4297 86.214 43.5375 85.8788C43.6541 85.5147 43.7191 85.1187 43.7191 84.7041L43.7186 84.7029Z" fill="white"/>
<defs>
<linearGradient id="paint0_linear_57_4" x1="28.4262" y1="73.5618" x2="135.664" y2="73.5618" gradientUnits="userSpaceOnUse">
<stop stop-color="#DAE3FE"/>
<stop offset="1" stop-color="#E9EFFD"/>
</linearGradient>
<linearGradient id="paint1_linear_57_4" x1="45.6896" y1="48.7833" x2="59.5135" y2="104.182" gradientUnits="userSpaceOnUse">
<stop stop-color="#09005D"/>
<stop offset="1" stop-color="#1A0F91"/>
</linearGradient>
<linearGradient id="paint2_linear_57_4" x1="35.4495" y1="74.8213" x2="44.6335" y2="111.626" gradientUnits="userSpaceOnUse">
<stop stop-color="#4042E2"/>
<stop offset="1" stop-color="#4F52FF"/>
</linearGradient>
<linearGradient id="paint3_linear_57_4" x1="25.4401" y1="71.3755" x2="29.4496" y2="71.3755" gradientUnits="userSpaceOnUse">
<stop stop-color="#DAE3FE"/>
<stop offset="1" stop-color="#E9EFFD"/>
</linearGradient>
<linearGradient id="paint4_linear_57_4" x1="98.7798" y1="108.217" x2="77.5329" y2="178.773" gradientUnits="userSpaceOnUse">
<stop stop-color="#09005D"/>
<stop offset="1" stop-color="#1A0F91"/>
</linearGradient>
<linearGradient id="paint5_linear_57_4" x1="58.0729" y1="116.419" x2="154.551" y2="74.1011" gradientUnits="userSpaceOnUse">
<stop stop-color="#FE7062"/>
<stop offset="1" stop-color="#FF928E"/>
</linearGradient>
<linearGradient id="paint6_linear_57_4" x1="58.6923" y1="117.244" x2="146.421" y2="117.244" gradientUnits="userSpaceOnUse">
<stop stop-color="#DAE3FE"/>
<stop offset="1" stop-color="#E9EFFD"/>
</linearGradient>
<linearGradient id="paint7_linear_57_4" x1="149.789" y1="79.5521" x2="130.292" y2="92.3855" gradientUnits="userSpaceOnUse">
<stop stop-color="#4042E2"/>
<stop offset="1" stop-color="#4F52FF"/>
</linearGradient>
<linearGradient id="paint8_linear_57_4" x1="147.99" y1="80.0022" x2="120.438" y2="98.2862" gradientUnits="userSpaceOnUse">
<stop stop-color="#4042E2"/>
<stop offset="1" stop-color="#4F52FF"/>
</linearGradient>
<linearGradient id="paint9_linear_57_4" x1="122.909" y1="68.1822" x2="96.9929" y2="17.1325" gradientUnits="userSpaceOnUse">
<stop stop-color="#53D8FF"/>
<stop offset="0.21" stop-color="#4DB9FD"/>
<stop offset="1" stop-color="#3840F7"/>
</linearGradient>
<linearGradient id="paint10_linear_57_4" x1="114.729" y1="60.5007" x2="35.7029" y2="135.743" gradientUnits="userSpaceOnUse">
<stop stop-color="#4042E2"/>
<stop offset="1" stop-color="#4F52FF"/>
</linearGradient>
<linearGradient id="paint11_linear_57_4" x1="77.409" y1="62.2772" x2="110.627" y2="62.2772" gradientUnits="userSpaceOnUse">
<stop stop-color="#DAE3FE"/>
<stop offset="1" stop-color="#E9EFFD"/>
</linearGradient>
<linearGradient id="paint12_linear_57_4" x1="77.8071" y1="67.0291" x2="100.135" y2="67.0291" gradientUnits="userSpaceOnUse">
<stop stop-color="#DAE3FE"/>
<stop offset="1" stop-color="#E9EFFD"/>
</linearGradient>
<linearGradient id="paint13_linear_57_4" x1="76.8879" y1="73.7222" x2="110.105" y2="73.7222" gradientUnits="userSpaceOnUse">
<stop stop-color="#DAE3FE"/>
<stop offset="1" stop-color="#E9EFFD"/>
</linearGradient>
<linearGradient id="paint14_linear_57_4" x1="77.2859" y1="78.4748" x2="99.6141" y2="78.4748" gradientUnits="userSpaceOnUse">
<stop stop-color="#DAE3FE"/>
<stop offset="1" stop-color="#E9EFFD"/>
</linearGradient>
<linearGradient id="paint15_linear_57_4" x1="79.9757" y1="95.2974" x2="104.682" y2="95.2974" gradientUnits="userSpaceOnUse">
<stop stop-color="#DAE3FE"/>
<stop offset="1" stop-color="#E9EFFD"/>
</linearGradient>
<linearGradient id="paint16_linear_57_4" x1="120.808" y1="90.9334" x2="122.828" y2="90.9334" gradientUnits="userSpaceOnUse">
<stop stop-color="#DAE3FE"/>
<stop offset="1" stop-color="#E9EFFD"/>
</linearGradient>
<linearGradient id="paint17_linear_57_4" x1="133.204" y1="92.852" x2="134.935" y2="92.852" gradientUnits="userSpaceOnUse">
<stop stop-color="#DAE3FE"/>
<stop offset="1" stop-color="#E9EFFD"/>
</linearGradient>
<linearGradient id="paint18_linear_57_4" x1="121.376" y1="116.22" x2="117.967" y2="116.22" gradientUnits="userSpaceOnUse">
<stop stop-color="#4042E2"/>
<stop offset="1" stop-color="#4F52FF"/>
</linearGradient>
<linearGradient id="paint19_linear_57_4" x1="121.376" y1="115.418" x2="118.063" y2="115.418" gradientUnits="userSpaceOnUse">
<stop stop-color="#09005D"/>
<stop offset="1" stop-color="#1A0F91"/>
</linearGradient>
<linearGradient id="paint20_linear_57_4" x1="121.061" y1="114.283" x2="120.101" y2="114.283" gradientUnits="userSpaceOnUse">
<stop stop-color="#FF928E"/>
<stop offset="1" stop-color="#FEB3B1"/>
</linearGradient>
<linearGradient id="paint21_linear_57_4" x1="128.172" y1="116.131" x2="126.866" y2="116.131" gradientUnits="userSpaceOnUse">
<stop stop-color="#4042E2"/>
<stop offset="1" stop-color="#4F52FF"/>
</linearGradient>
<linearGradient id="paint22_linear_57_4" x1="128.163" y1="114.922" x2="126.245" y2="114.922" gradientUnits="userSpaceOnUse">
<stop stop-color="#09005D"/>
<stop offset="1" stop-color="#1A0F91"/>
</linearGradient>
<linearGradient id="paint23_linear_57_4" x1="127.166" y1="113.315" x2="126.018" y2="113.315" gradientUnits="userSpaceOnUse">
<stop stop-color="#FF928E"/>
<stop offset="1" stop-color="#FEB3B1"/>
</linearGradient>
<linearGradient id="paint24_linear_57_4" x1="123.017" y1="109.961" x2="124.539" y2="123.547" gradientUnits="userSpaceOnUse">
<stop stop-color="#4042E2"/>
<stop offset="1" stop-color="#4F52FF"/>
</linearGradient>
<linearGradient id="paint25_linear_57_4" x1="119.512" y1="91.5004" x2="105.584" y2="99.6135" gradientUnits="userSpaceOnUse">
<stop stop-color="#09005D"/>
<stop offset="1" stop-color="#1A0F91"/>
</linearGradient>
<linearGradient id="paint26_linear_57_4" x1="123.299" y1="108.204" x2="122.557" y2="106.983" gradientUnits="userSpaceOnUse">
<stop stop-color="#53D8FF"/>
<stop offset="1" stop-color="#3840F7"/>
</linearGradient>
<linearGradient id="paint27_linear_57_4" x1="119.482" y1="82.9748" x2="125.207" y2="94.4992" gradientUnits="userSpaceOnUse">
<stop stop-color="#FF928E"/>
<stop offset="1" stop-color="#FEB3B1"/>
</linearGradient>
<linearGradient id="paint28_linear_57_4" x1="119.668" y1="91.7678" x2="105.741" y2="99.8809" gradientUnits="userSpaceOnUse">
<stop stop-color="#09005D"/>
<stop offset="1" stop-color="#1A0F91"/>
</linearGradient>
<linearGradient id="paint29_linear_57_4" x1="110.888" y1="88.8854" x2="144.656" y2="99.6688" gradientUnits="userSpaceOnUse">
<stop stop-color="#09005D"/>
<stop offset="1" stop-color="#1A0F91"/>
</linearGradient>
<linearGradient id="paint30_linear_57_4" x1="115.911" y1="93.4644" x2="112.768" y2="94.3989" gradientUnits="userSpaceOnUse">
<stop stop-color="#FF928E"/>
<stop offset="1" stop-color="#FEB3B1"/>
</linearGradient>
<linearGradient id="paint31_linear_57_4" x1="117.377" y1="83.0674" x2="117.43" y2="90.3752" gradientUnits="userSpaceOnUse">
<stop stop-color="#FF928E"/>
<stop offset="1" stop-color="#FEB3B1"/>
</linearGradient>
<linearGradient id="paint32_linear_57_4" x1="115.434" y1="81.8856" x2="118.585" y2="86.5838" gradientUnits="userSpaceOnUse">
<stop stop-color="#FF928E"/>
<stop offset="1" stop-color="#FEB3B1"/>
</linearGradient>
<linearGradient id="paint33_linear_57_4" x1="117.534" y1="83.3991" x2="114.015" y2="82.9797" gradientUnits="userSpaceOnUse">
<stop stop-color="#09005D"/>
<stop offset="1" stop-color="#1A0F91"/>
</linearGradient>
<linearGradient id="paint34_linear_57_4" x1="119.278" y1="86.3618" x2="116.741" y2="83.4961" gradientUnits="userSpaceOnUse">
<stop stop-color="#FF928E"/>
<stop offset="1" stop-color="#FEB3B1"/>
</linearGradient>
<linearGradient id="paint35_linear_57_4" x1="119.142" y1="91.9685" x2="118.633" y2="102.055" gradientUnits="userSpaceOnUse">
<stop stop-color="#4042E2"/>
<stop offset="1" stop-color="#4F52FF"/>
</linearGradient>
<linearGradient id="paint36_linear_57_4" x1="89.6459" y1="85.0318" x2="94.1944" y2="87.3967" gradientUnits="userSpaceOnUse">
<stop stop-color="#09005D"/>
<stop offset="1" stop-color="#1A0F91"/>
</linearGradient>
<linearGradient id="paint37_linear_57_4" x1="105.076" y1="92.7451" x2="97.3248" y2="88.5297" gradientUnits="userSpaceOnUse">
<stop stop-color="#4042E2"/>
<stop offset="1" stop-color="#4F52FF"/>
</linearGradient>
<linearGradient id="paint38_linear_57_4" x1="129.756" y1="103.386" x2="131.627" y2="103.583" gradientUnits="userSpaceOnUse">
<stop stop-color="#4042E2"/>
<stop offset="1" stop-color="#4F52FF"/>
</linearGradient>
<linearGradient id="paint39_linear_57_4" x1="86.4818" y1="93.6861" x2="116.904" y2="95.4107" gradientUnits="userSpaceOnUse">
<stop stop-color="#09005D"/>
<stop offset="1" stop-color="#1A0F91"/>
</linearGradient>
<linearGradient id="paint40_linear_57_4" x1="122.989" y1="98.2227" x2="130.337" y2="105.021" gradientUnits="userSpaceOnUse">
<stop stop-color="#4042E2"/>
<stop offset="1" stop-color="#4F52FF"/>
</linearGradient>
<linearGradient id="paint41_linear_57_4" x1="110.784" y1="97.5505" x2="109.632" y2="97.5505" gradientUnits="userSpaceOnUse">
<stop stop-color="#FF928E"/>
<stop offset="1" stop-color="#FEB3B1"/>
</linearGradient>
<linearGradient id="paint42_linear_57_4" x1="117.447" y1="83.9409" x2="123.194" y2="95.4808" gradientUnits="userSpaceOnUse">
<stop stop-color="#FF928E"/>
<stop offset="1" stop-color="#FEB3B1"/>
</linearGradient>
<linearGradient id="paint43_linear_57_4" x1="113.266" y1="4.21082" x2="109.997" y2="54.9817" gradientUnits="userSpaceOnUse">
<stop stop-color="#09005D"/>
<stop offset="1" stop-color="#1A0F91"/>
</linearGradient>
<linearGradient id="paint44_linear_57_4" x1="108.035" y1="37.7544" x2="110.954" y2="37.7544" gradientUnits="userSpaceOnUse">
<stop stop-color="#DAE3FE"/>
<stop offset="1" stop-color="#E9EFFD"/>
</linearGradient>
<linearGradient id="paint45_linear_57_4" x1="99.2246" y1="43.5763" x2="107.593" y2="43.5763" gradientUnits="userSpaceOnUse">
<stop stop-color="#DAE3FE"/>
<stop offset="1" stop-color="#E9EFFD"/>
</linearGradient>
<linearGradient id="paint46_linear_57_4" x1="106.91" y1="35.5496" x2="119.257" y2="60.5866" gradientUnits="userSpaceOnUse">
<stop stop-color="#4042E2"/>
<stop offset="1" stop-color="#4F52FF"/>
</linearGradient>
<linearGradient id="paint47_linear_57_4" x1="111.085" y1="44.1369" x2="112.591" y2="57.2381" gradientUnits="userSpaceOnUse">
<stop stop-color="#FE7062"/>
<stop offset="1" stop-color="#FF928E"/>
</linearGradient>
<linearGradient id="paint48_linear_57_4" x1="110.785" y1="50.6285" x2="114.618" y2="65.7722" gradientUnits="userSpaceOnUse">
<stop stop-color="#FE7062"/>
<stop offset="1" stop-color="#FF928E"/>
</linearGradient>
<linearGradient id="paint49_linear_57_4" x1="109.882" y1="65.4738" x2="107.032" y2="76.3021" gradientUnits="userSpaceOnUse">
<stop stop-color="#4042E2"/>
<stop offset="1" stop-color="#4F52FF"/>
</linearGradient>
<linearGradient id="paint50_linear_57_4" x1="45.8192" y1="91.3736" x2="47.1277" y2="60.7448" gradientUnits="userSpaceOnUse">
<stop stop-color="#09005D"/>
<stop offset="1" stop-color="#1A0F91"/>
</linearGradient>
<linearGradient id="paint51_linear_57_4" x1="43.8576" y1="49.1331" x2="46.4034" y2="49.1331" gradientUnits="userSpaceOnUse">
<stop stop-color="#DAE3FE"/>
<stop offset="1" stop-color="#E9EFFD"/>
</linearGradient>
<linearGradient id="paint52_linear_57_4" x1="36.0317" y1="54.304" x2="43.4183" y2="54.304" gradientUnits="userSpaceOnUse">
<stop stop-color="#DAE3FE"/>
<stop offset="1" stop-color="#E9EFFD"/>
</linearGradient>
<linearGradient id="paint53_linear_57_4" x1="40.6299" y1="40.6238" x2="51.5971" y2="62.8619" gradientUnits="userSpaceOnUse">
<stop stop-color="#4042E2"/>
<stop offset="1" stop-color="#4F52FF"/>
</linearGradient>
<linearGradient id="paint54_linear_57_4" x1="51.1941" y1="52.639" x2="33.8909" y2="76.56" gradientUnits="userSpaceOnUse">
<stop stop-color="#FE7062"/>
<stop offset="1" stop-color="#FF928E"/>
</linearGradient>
<linearGradient id="paint55_linear_57_4" x1="39.7994" y1="68.9276" x2="43.098" y2="77.2798" gradientUnits="userSpaceOnUse">
<stop stop-color="#FF928E"/>
<stop offset="1" stop-color="#FEB3B1"/>
</linearGradient>
<linearGradient id="paint56_linear_57_4" x1="42.2763" y1="106.308" x2="37.4851" y2="106.308" gradientUnits="userSpaceOnUse">
<stop stop-color="#FF928E"/>
<stop offset="1" stop-color="#FEB3B1"/>
</linearGradient>
<linearGradient id="paint57_linear_57_4" x1="35.6903" y1="93.2558" x2="39.163" y2="111.811" gradientUnits="userSpaceOnUse">
<stop stop-color="#53D8FF"/>
<stop offset="1" stop-color="#3840F7"/>
</linearGradient>
<linearGradient id="paint58_linear_57_4" x1="40.7108" y1="92.3122" x2="44.1818" y2="110.863" gradientUnits="userSpaceOnUse">
<stop stop-color="#53D8FF"/>
<stop offset="1" stop-color="#3840F7"/>
</linearGradient>
<linearGradient id="paint59_linear_57_4" x1="45.1834" y1="106.74" x2="42.4088" y2="106.74" gradientUnits="userSpaceOnUse">
<stop stop-color="#FF928E"/>
<stop offset="1" stop-color="#FEB3B1"/>
</linearGradient>
<linearGradient id="paint60_linear_57_4" x1="51.1603" y1="81.5406" x2="45.7288" y2="81.5406" gradientUnits="userSpaceOnUse">
<stop stop-color="#FF928E"/>
<stop offset="1" stop-color="#FEB3B1"/>
</linearGradient>
<linearGradient id="paint61_linear_57_4" x1="45.2082" y1="85.1151" x2="31.5746" y2="107.421" gradientUnits="userSpaceOnUse">
<stop stop-color="#CB236D"/>
<stop offset="1" stop-color="#4C246D"/>
</linearGradient>
<linearGradient id="paint62_linear_57_4" x1="47.6333" y1="91.5665" x2="36.811" y2="101.649" gradientUnits="userSpaceOnUse">
<stop stop-color="#4042E2"/>
<stop offset="1" stop-color="#4F52FF"/>
</linearGradient>
<linearGradient id="paint63_linear_57_4" x1="109.106" y1="195.512" x2="117.523" y2="205.075" gradientUnits="userSpaceOnUse">
<stop stop-color="#FF928E"/>
<stop offset="1" stop-color="#FEB3B1"/>
</linearGradient>
<linearGradient id="paint64_linear_57_4" x1="110.057" y1="194.691" x2="118.473" y2="204.254" gradientUnits="userSpaceOnUse">
<stop stop-color="#FF928E"/>
<stop offset="1" stop-color="#FEB3B1"/>
</linearGradient>
</defs>
</svg>
