<svg width="170" height="170" viewBox="0 0 170 170" fill="none" xmlns="http://www.w3.org/2000/svg">
<path d="M164.5 85.1082C164.5 128.897 128.918 164.416 85 164.416C41.0816 164.416 5.5 128.897 5.5 85.1082C5.5 41.3192 41.0816 5.80005 85 5.80005C128.918 5.80005 164.5 41.3192 164.5 85.1082Z" fill="#101010" stroke="#242424" stroke-width="11"/>
<path d="M83.0899 119.497C111.647 119.497 134.797 114.475 134.797 108.28C134.797 102.085 111.647 97.0636 83.0899 97.0636C54.5331 97.0636 31.3831 102.085 31.3831 108.28C31.3831 114.475 54.5331 119.497 83.0899 119.497Z" fill="#C7C7C7"/>
<path d="M126.819 90.2233C122.344 94.1524 116.139 88.0781 117.622 83.1072C118.39 80.5388 120.21 78.4952 120.573 75.7768C120.95 72.9727 122.148 71.7862 124.109 70.0909C124.876 69.4267 125.183 68.2027 125.542 67.2064C126.217 65.3236 127.224 63.7407 128.848 62.731C130.847 61.4856 134.782 63.1649 135.271 65.953C135.866 69.3383 131.897 70.9399 130.597 73.1119C129.482 74.9787 130.535 77.4347 128.901 79.4567C126.447 82.4939 130.339 87.3255 126.819 90.2207V90.2233Z" fill="#88C8FC"/>
<path d="M122.131 95.9575C122.039 95.9575 121.96 95.8798 121.95 95.7754C121.156 86.1149 123.816 76.3232 129.247 68.9124C129.31 68.8267 129.424 68.8133 129.504 68.883C129.581 68.9526 129.593 69.0785 129.53 69.1642C124.16 76.4946 121.529 86.1819 122.313 95.7379C122.323 95.8477 122.248 95.9468 122.148 95.9548C122.143 95.9548 122.136 95.9548 122.131 95.9548V95.9575Z" fill="#29275F"/>
<path d="M124.665 83.8705C123.458 85.7614 122.507 87.8799 120.459 88.295C117.366 88.9244 113.663 92.1892 113.852 96.453C113.798 105.136 125.764 104.959 126.689 98.5099C127.124 95.462 127.824 94.1336 130.639 93.6864C132.326 93.4185 132.834 91.8491 133.308 90.2368C133.749 89.4976 134.378 88.9271 135.133 88.6218C136.205 88.1906 137.413 88.378 138.56 88.3379C139.572 88.3057 140.581 88.0727 141.334 87.3362C142.048 86.6318 142.515 85.6328 142.641 84.5187C142.762 83.4072 142.51 82.2448 141.927 81.2566C141.375 80.3272 140.538 79.5692 139.635 79.1755C138.611 78.7256 137.563 78.7336 136.614 79.1675C135.516 79.6683 134.661 80.5763 133.809 81.4628C133.804 81.4708 133.797 81.4762 133.792 81.4815C132.696 82.6251 131.132 83.0349 129.581 82.6064C127.732 82.0948 125.97 81.8324 124.668 83.8705H124.665Z" fill="#508DD2"/>
<path d="M113.704 104.327C113.673 104.327 113.641 104.319 113.612 104.298C113.525 104.241 113.498 104.118 113.549 104.022C118.634 94.5461 126.619 87.4862 136.029 84.1384C136.123 84.1035 136.227 84.1625 136.256 84.2669C136.288 84.3714 136.234 84.4865 136.14 84.5187C126.815 87.8344 118.903 94.8327 113.861 104.223C113.827 104.287 113.767 104.322 113.704 104.322V104.327Z" fill="#29275F"/>
<path d="M41.3547 93.8149C45.8298 97.7439 52.0353 91.6696 50.5517 86.6988C49.7845 84.1303 47.9644 82.0868 47.6014 79.3684C47.2238 76.5642 46.0258 75.3778 44.0654 73.6824C43.2981 73.0182 42.9908 71.7943 42.6326 70.7979C41.9573 68.9151 40.9505 67.3323 39.3265 66.3226C37.3273 65.0772 33.392 66.7564 32.9031 69.5445C32.3077 72.9298 36.2769 74.5314 37.5766 76.7035C38.6924 78.5703 37.6395 81.0262 39.2732 83.0483C41.7274 86.0855 37.8356 90.917 41.3547 93.8122V93.8149Z" fill="#508DD2"/>
<path d="M46.0427 99.5491C46.0427 99.5491 46.0306 99.5491 46.0258 99.5491C45.9266 99.5383 45.8515 99.4419 45.8612 99.3321C46.6454 89.7761 44.0145 80.0888 38.644 72.7584C38.581 72.6727 38.5931 72.5468 38.6706 72.4772C38.748 72.4076 38.8618 72.421 38.9247 72.5067C44.3558 79.9174 47.0157 89.7091 46.2218 99.3696C46.2122 99.4741 46.1347 99.5517 46.0403 99.5517L46.0427 99.5491Z" fill="#29275F"/>
<path d="M27 83.6964C27.5518 82.7671 28.3892 82.0091 29.292 81.6154C30.3158 81.1655 31.3638 81.1735 32.3125 81.6074C33.4113 82.1082 34.2657 83.0162 35.1176 83.9027C35.1224 83.9107 35.1297 83.9161 35.1345 83.9214C36.2309 85.065 37.7944 85.4748 39.3458 85.0463C41.1949 84.5347 42.9569 84.2723 44.2614 86.3104C45.4691 88.2013 46.4203 90.3198 48.4678 90.7349C51.561 91.3643 55.264 94.6291 55.0752 98.8929C55.1284 107.576 43.1626 107.399 42.2381 100.95C41.8024 97.9019 41.1029 96.5735 38.2882 96.1262C36.6012 95.8584 36.093 94.289 35.6186 92.6767C35.1781 91.9375 34.5488 91.367 33.7937 91.0617C32.7215 90.6305 31.5138 90.8179 30.3666 90.7778C29.3549 90.7456 28.3457 90.5126 27.593 89.7761" fill="#88C8FC"/>
<path d="M55.2204 106.767C55.1575 106.767 55.097 106.732 55.0631 106.668C50.0241 97.2779 42.1122 90.2796 32.7845 86.9639C32.6901 86.9291 32.6368 86.8166 32.6683 86.7122C32.6998 86.6077 32.8014 86.5488 32.8958 86.5836C42.3058 89.9314 50.2903 96.9913 55.3753 106.467C55.4261 106.563 55.3971 106.687 55.3124 106.743C55.2834 106.762 55.2519 106.772 55.2204 106.772V106.767Z" fill="#29275F"/>
<path d="M129.755 115.506H38.4673C37.4483 115.506 36.623 114.593 36.623 113.465V112.606H131.599V113.465C131.599 114.593 130.774 115.506 129.755 115.506Z" fill="#29275F"/>
<path d="M121.691 96.6056H46.5316L36.623 112.608H131.599L121.691 96.6056Z" fill="white"/>
<path d="M120.396 43.852H47.8241C47.1294 43.852 46.5679 44.4733 46.5679 45.242V96.6056H121.652V45.242C121.652 44.4733 121.091 43.852 120.396 43.852Z" fill="#29275F"/>
<path d="M119.355 48.2229H48.8672V92.5133H119.355V48.2229Z" fill="#67A4E9"/>
<path d="M129.755 115.707H38.4673C37.3491 115.707 36.4415 114.703 36.4415 113.465V112.606C36.4415 112.496 36.5238 112.405 36.623 112.405H131.599C131.699 112.405 131.781 112.496 131.781 112.606V113.465C131.781 114.703 130.873 115.707 129.755 115.707ZM36.8045 112.806V113.465C36.8045 114.48 37.55 115.305 38.4673 115.305H129.755C130.673 115.305 131.418 114.48 131.418 113.465V112.806H36.8045Z" fill="#29275F"/>
<path d="M131.599 112.809H36.623C36.5553 112.809 36.4947 112.769 36.4633 112.702C36.4318 112.635 36.4367 112.557 36.473 112.496L46.3816 96.4931C46.4155 96.4396 46.4711 96.4048 46.5316 96.4048H121.691C121.751 96.4048 121.807 96.4369 121.841 96.4931L131.75 112.496C131.788 112.557 131.791 112.638 131.759 112.702C131.728 112.769 131.667 112.809 131.599 112.809ZM131.256 112.407L121.596 96.8065H46.626L36.9667 112.407H131.256Z" fill="#29275F"/>
<path d="M121.652 96.8065H46.5679C46.4687 96.8065 46.3864 96.7154 46.3864 96.6056V45.242C46.3864 44.3662 47.0302 43.6511 47.8241 43.6511H120.396C121.19 43.6511 121.834 44.3635 121.834 45.242V96.6056C121.834 96.7154 121.751 96.8065 121.652 96.8065ZM46.7495 96.4048H121.471V45.242C121.471 44.5858 120.989 44.0528 120.396 44.0528H47.8241C47.2311 44.0528 46.7495 44.5858 46.7495 45.242V96.4048Z" fill="#29275F"/>
<path d="M119.355 92.7141H48.8672C48.768 92.7141 48.6857 92.6231 48.6857 92.5133V48.2229C48.6857 48.1131 48.768 48.022 48.8672 48.022H119.355C119.455 48.022 119.537 48.1131 119.537 48.2229V92.5133C119.537 92.6231 119.455 92.7141 119.355 92.7141ZM49.0487 92.3124H119.174V48.4237H49.0487V92.3124Z" fill="#29275F"/>
<path d="M103.42 94.3479H64.7999V96.2896H103.42V94.3479Z" fill="white"/>
<path d="M80.8366 45.9892C80.8366 46.7123 80.3066 47.2989 79.6531 47.2989C78.9996 47.2989 78.4696 46.7123 78.4696 45.9892C78.4696 45.2661 78.9996 44.6795 79.6531 44.6795C80.3066 44.6795 80.8366 45.2661 80.8366 45.9892Z" fill="#67A4E9"/>
<path d="M97.7301 111.513H70.4924C70.4246 111.513 70.3641 111.473 70.3326 111.406C70.3012 111.339 70.306 111.261 70.3423 111.199L73.1837 106.612C73.2176 106.558 73.2733 106.523 73.3338 106.523H94.8887C94.9493 106.523 95.0049 106.555 95.0388 106.612L97.8802 111.199C97.9189 111.261 97.9213 111.341 97.8899 111.406C97.8584 111.473 97.7979 111.513 97.7301 111.513ZM70.836 111.111H97.384L94.7919 106.925H73.4282L70.836 111.111Z" fill="#29275F"/>
<path d="M56.3822 100.896H51.3601C51.2947 100.896 51.2366 100.859 51.2028 100.797C51.1713 100.736 51.1689 100.661 51.2028 100.596L52.4928 98.0573C52.5242 97.993 52.5847 97.9555 52.6501 97.9555H57.4761C57.539 97.9555 57.5971 97.9903 57.6286 98.0493C57.6625 98.1082 57.6649 98.1805 57.6383 98.2421L56.5467 100.781C56.5177 100.851 56.4523 100.896 56.3822 100.896ZM51.6699 100.494H56.2684L57.1881 98.3572H52.7566L51.6723 100.494H51.6699Z" fill="#29275F"/>
<path d="M65.054 100.896H60.0319C59.9714 100.896 59.9158 100.864 59.8819 100.808C59.848 100.752 59.8407 100.682 59.8649 100.62L60.8137 98.0814C60.8427 98.0064 60.9081 97.9582 60.9807 97.9582H65.8067C65.8648 97.9582 65.9205 97.9903 65.9543 98.0412C65.9882 98.0948 65.9979 98.1617 65.981 98.2206L65.2283 100.76C65.2041 100.843 65.1339 100.899 65.0564 100.899L65.054 100.896ZM60.303 100.494H64.9233L65.555 98.3572H61.1017L60.303 100.494Z" fill="#29275F"/>
<path d="M68.7038 100.896C68.6481 100.896 68.5949 100.867 68.561 100.819C68.5271 100.77 68.515 100.706 68.5295 100.644L69.137 98.1055C69.1588 98.0171 69.229 97.9555 69.3137 97.9555H74.1397C74.193 97.9555 74.2438 97.9823 74.2801 98.0278C74.314 98.0733 74.3285 98.1349 74.3188 98.1912L73.9074 100.73C73.8929 100.827 73.8178 100.896 73.7283 100.896H68.7038ZM73.5734 100.494L73.9195 98.3572H69.4492L68.9361 100.494H73.5734Z" fill="#29275F"/>
<path d="M82.4001 100.896H77.378C77.3272 100.896 77.2764 100.872 77.2425 100.829C77.2086 100.786 77.1917 100.73 77.1989 100.671L77.4676 98.1322C77.4773 98.0305 77.5547 97.9555 77.6491 97.9555H82.4751C82.5236 97.9555 82.572 97.9769 82.6058 98.0171C82.6397 98.0573 82.6591 98.1081 82.6567 98.1644L82.5841 100.703C82.5816 100.813 82.5018 100.899 82.4025 100.899L82.4001 100.896ZM77.5814 100.494H82.2234L82.2839 98.3572H77.8064L77.5814 100.494Z" fill="#29275F"/>
<path d="M91.072 100.896H86.0499C85.9507 100.896 85.8708 100.811 85.8684 100.701L85.7958 98.1617C85.7958 98.1081 85.8127 98.0546 85.8466 98.0144C85.8805 97.9742 85.9265 97.9528 85.9773 97.9528H90.8033C90.8953 97.9528 90.9727 98.0305 90.9848 98.1296L91.2535 100.669C91.2583 100.725 91.2438 100.784 91.2099 100.827C91.176 100.869 91.1252 100.894 91.0744 100.894L91.072 100.896ZM86.2242 100.494H90.8662L90.6412 98.3572H86.1636L86.2242 100.494Z" fill="#29275F"/>
<path d="M99.7438 100.896H94.7217C94.6346 100.896 94.5596 100.827 94.5426 100.73L94.1312 98.1912C94.1215 98.1322 94.136 98.0733 94.1699 98.0278C94.2038 97.9823 94.2546 97.9555 94.3103 97.9555H99.1363C99.2186 97.9555 99.2912 98.0171 99.3106 98.1055L99.9181 100.644C99.9326 100.706 99.9205 100.77 99.8866 100.819C99.8527 100.867 99.7995 100.896 99.7438 100.896ZM99.5066 100.494L98.9935 98.3572H94.5233L94.8694 100.494H99.5066Z" fill="#29275F"/>
<path d="M108.418 100.896H103.396C103.319 100.896 103.248 100.84 103.224 100.757L102.471 98.218C102.455 98.1564 102.462 98.0894 102.498 98.0385C102.532 97.9876 102.588 97.9555 102.646 97.9555H107.472C107.544 97.9555 107.612 98.0037 107.639 98.0787L108.588 100.618C108.612 100.679 108.604 100.752 108.571 100.805C108.537 100.861 108.481 100.894 108.421 100.894L108.418 100.896ZM103.527 100.494H108.147L107.348 98.3572H102.895L103.527 100.494Z" fill="#29275F"/>
<path d="M117.09 100.896H112.068C111.998 100.896 111.935 100.851 111.903 100.781L110.812 98.2421C110.785 98.1805 110.79 98.1055 110.821 98.0492C110.855 97.9903 110.913 97.9555 110.974 97.9555H115.8C115.865 97.9555 115.926 97.9957 115.957 98.0573L117.247 100.596C117.279 100.658 117.279 100.736 117.247 100.797C117.216 100.859 117.155 100.896 117.09 100.896ZM112.182 100.494H116.78L115.696 98.3572H111.264L112.184 100.494H112.182Z" fill="#29275F"/>
<path d="M50.9462 104.456H45.9241C45.8588 104.456 45.8007 104.418 45.7668 104.357C45.7354 104.295 45.7329 104.22 45.7668 104.156L47.0568 101.617C47.0883 101.552 47.1488 101.515 47.2141 101.515H52.0402C52.1031 101.515 52.1612 101.55 52.1927 101.609C52.2265 101.668 52.229 101.74 52.2023 101.801L51.1108 104.34C51.0817 104.41 51.0164 104.456 50.9462 104.456ZM46.2339 104.054H50.8325L51.7522 101.917H47.3206L46.2364 104.054H46.2339Z" fill="#29275F"/>
<path d="M59.6181 104.456H54.596C54.5355 104.456 54.4798 104.424 54.4459 104.367C54.412 104.311 54.4072 104.241 54.429 104.18L55.3777 101.641C55.4068 101.566 55.4721 101.518 55.5447 101.518H60.3708C60.4289 101.518 60.4845 101.55 60.5184 101.601C60.5523 101.654 60.562 101.721 60.545 101.78L59.7923 104.319C59.7681 104.402 59.6979 104.458 59.6205 104.458L59.6181 104.456ZM54.8671 104.054H59.4874L60.1191 101.917H55.6658L54.8671 104.054Z" fill="#29275F"/>
<path d="M63.2703 104.456C63.2146 104.456 63.1613 104.426 63.1275 104.378C63.0936 104.33 63.0815 104.265 63.096 104.204L63.7035 101.665C63.7253 101.577 63.7955 101.515 63.8802 101.515H68.7062C68.7594 101.515 68.8103 101.542 68.8466 101.587C68.8805 101.633 68.895 101.694 68.8853 101.751L68.4739 104.29C68.4593 104.386 68.3843 104.456 68.2947 104.456H63.2703ZM68.1399 104.054L68.486 101.917H64.0157L63.5026 104.054H68.1399Z" fill="#29275F"/>
<path d="M76.9642 104.456H71.9421C71.8913 104.456 71.8405 104.432 71.8066 104.389C71.7727 104.346 71.7557 104.29 71.763 104.233L72.0317 101.694C72.0413 101.593 72.1188 101.518 72.2132 101.518H77.0392C77.0876 101.518 77.136 101.539 77.1699 101.579C77.2038 101.619 77.2231 101.67 77.2207 101.726L77.1481 104.265C77.1457 104.375 77.0658 104.461 76.9666 104.461L76.9642 104.456ZM72.1454 104.054H76.7875L76.848 101.917H72.3705L72.1454 104.054Z" fill="#29275F"/>
<path d="M85.636 104.456H80.614C80.5147 104.456 80.4349 104.37 80.4324 104.26L80.3598 101.721C80.3598 101.668 80.3768 101.614 80.4106 101.574C80.4445 101.534 80.4929 101.512 80.5413 101.512H85.3674C85.4593 101.512 85.5368 101.59 85.5489 101.689L85.8175 104.228C85.8224 104.284 85.8079 104.343 85.774 104.386C85.7401 104.429 85.6893 104.453 85.6384 104.453L85.636 104.456ZM80.7882 104.054H85.4303L85.2052 101.917H80.7277L80.7882 104.054Z" fill="#29275F"/>
<path d="M94.3079 104.456H89.2858C89.1987 104.456 89.1236 104.386 89.1067 104.29L88.6953 101.751C88.6856 101.692 88.7001 101.633 88.734 101.587C88.7679 101.542 88.8187 101.515 88.8744 101.515H93.7004C93.7827 101.515 93.8553 101.577 93.8746 101.665L94.4821 104.204C94.4967 104.263 94.4846 104.327 94.4507 104.378C94.4168 104.426 94.3636 104.456 94.3079 104.456ZM94.0707 104.054L93.5576 101.917H89.0873L89.4334 104.054H94.0707Z" fill="#29275F"/>
<path d="M102.982 104.456H97.9601C97.8826 104.456 97.8124 104.399 97.7882 104.316L97.0355 101.777C97.0186 101.716 97.0259 101.649 97.0622 101.598C97.096 101.547 97.1517 101.515 97.2098 101.515H102.036C102.108 101.515 102.176 101.563 102.203 101.638L103.152 104.177C103.176 104.239 103.169 104.311 103.135 104.365C103.101 104.421 103.045 104.453 102.985 104.453L102.982 104.456ZM98.0908 104.054H102.711L101.912 101.917H97.4591L98.0932 104.054H98.0908Z" fill="#29275F"/>
<path d="M111.654 104.456H106.632C106.562 104.456 106.499 104.41 106.467 104.34L105.376 101.801C105.349 101.74 105.354 101.668 105.385 101.609C105.419 101.55 105.477 101.515 105.538 101.515H110.364C110.429 101.515 110.49 101.555 110.521 101.617L111.809 104.156C111.84 104.217 111.84 104.295 111.809 104.357C111.777 104.418 111.717 104.456 111.652 104.456H111.654ZM106.746 104.054H111.344L110.26 101.917H105.828L106.748 104.054H106.746Z" fill="#29275F"/>
<path d="M120.147 104.456H115.125C115.054 104.456 114.992 104.41 114.96 104.34L113.869 101.801C113.842 101.74 113.847 101.668 113.878 101.609C113.912 101.55 113.97 101.515 114.031 101.515H118.857C118.922 101.515 118.983 101.555 119.014 101.617L120.304 104.156C120.336 104.217 120.336 104.295 120.304 104.357C120.273 104.418 120.212 104.456 120.147 104.456ZM115.238 104.054H119.837L118.753 101.917H114.321L115.241 104.054H115.238Z" fill="#29275F"/>
<path d="M100.593 35.7743H67.6292C65.31 35.7743 63.43 37.8548 63.43 40.4211V83.5572C63.43 86.1235 65.31 88.204 67.6292 88.204H100.593C102.912 88.204 104.793 86.1235 104.793 83.5572V40.4211C104.793 37.8548 102.912 35.7743 100.593 35.7743Z" fill="white"/>
<path d="M91.9771 38.3883C91.9771 39.0231 91.5124 39.5373 90.9388 39.5373C90.3652 39.5373 89.9006 39.0231 89.9006 38.3883C89.9006 37.7536 90.3652 37.2393 90.9388 37.2393C91.5124 37.2393 91.9771 37.7536 91.9771 38.3883Z" fill="#88C8FC"/>
<path d="M96.5394 38.3883C96.5394 39.0231 96.0747 39.5373 95.5011 39.5373C94.9275 39.5373 94.4628 39.0231 94.4628 38.3883C94.4628 37.7536 94.9275 37.2393 95.5011 37.2393C96.0747 37.2393 96.5394 37.7536 96.5394 38.3883Z" fill="#508DD2"/>
<path d="M101.104 38.3883C101.104 39.0231 100.639 39.5373 100.066 39.5373C99.4921 39.5373 99.0274 39.0231 99.0274 38.3883C99.0274 37.7536 99.4921 37.2393 100.066 37.2393C100.639 37.2393 101.104 37.7536 101.104 38.3883Z" fill="#29275F"/>
<path d="M100.591 88.4048H67.6292C65.2137 88.4048 63.2485 86.2301 63.2485 83.5572V40.4211C63.2485 37.7482 65.2137 35.5735 67.6292 35.5735H100.591C103.006 35.5735 104.972 37.7482 104.972 40.4211V83.5545C104.972 86.2274 103.006 88.4021 100.591 88.4021V88.4048ZM67.6292 35.9752C65.4122 35.9752 63.6115 37.9705 63.6115 40.4211V83.5545C63.6115 86.0078 65.4146 88.0004 67.6292 88.0004H100.591C102.808 88.0004 104.609 86.0051 104.609 83.5545V40.4211C104.609 37.9678 102.805 35.9752 100.591 35.9752H67.6292Z" fill="#29275F"/>
<path d="M104.793 40.622H63.43C63.3308 40.622 63.2485 40.5309 63.2485 40.4211C63.2485 40.3113 63.3308 40.2202 63.43 40.2202H104.793C104.892 40.2202 104.974 40.3113 104.974 40.4211C104.974 40.5309 104.892 40.622 104.793 40.622Z" fill="#29275F"/>
<path d="M77.6878 46.2838L73.1958 44.1787L68.7038 46.2838V34.5611H77.6878V46.2838Z" fill="#508DD2"/>
<path d="M76.9279 49.0397H66.5086V61.4937H76.9279V49.0397Z" fill="#88C8FC"/>
<path d="M101.711 49.0397H78.3679V50.0977H101.711V49.0397Z" fill="#C7C7C7"/>
<path d="M101.711 51.8733H78.3679V52.9313H101.711V51.8733Z" fill="#C7C7C7"/>
<path d="M101.711 54.7043H78.3679V55.7622H101.711V54.7043Z" fill="#C7C7C7"/>
<path d="M101.711 57.5379H78.3679V58.5958H101.711V57.5379Z" fill="#C7C7C7"/>
<path d="M91.8586 60.3715H78.3679V61.4294H91.8586V60.3715Z" fill="#C7C7C7"/>
<path d="M101.711 65.8726H66.5086V66.9305H101.711V65.8726Z" fill="#C7C7C7"/>
<path d="M101.711 68.7062H66.5086V69.7641H101.711V68.7062Z" fill="#C7C7C7"/>
<path d="M101.711 71.5398H66.5086V72.5977H101.711V71.5398Z" fill="#C7C7C7"/>
<path d="M101.711 74.3734H66.5086V75.4313H101.711V74.3734Z" fill="#C7C7C7"/>
<path d="M91.8586 77.207H66.5086V78.2649H91.8586V77.207Z" fill="#C7C7C7"/>
<path d="M101.569 43.852H85.3601V46.8088H101.569V43.852Z" fill="#88C8FC"/>
<path d="M85.1132 85.5123C85.0866 85.5123 85.06 85.5069 85.0358 85.4935L81.3279 83.5357C81.2384 83.4875 81.1997 83.367 81.2432 83.2679C81.2868 83.1688 81.3957 83.126 81.4853 83.1742L85.1157 85.0891L88.7461 83.1742C88.838 83.126 88.9445 83.1688 88.9881 83.2679C89.0317 83.367 88.9929 83.4875 88.9034 83.5357L85.1955 85.4935C85.1713 85.5069 85.1447 85.5123 85.1181 85.5123H85.1132Z" fill="#29275F"/>
<path d="M114.604 132.567L108.781 108.28C108.781 108.28 102.861 101.36 100.046 96.4101C97.2267 91.4553 96.1376 89.8109 95.8956 88.1932C95.6826 86.747 94.1457 76.2482 93.819 74.0145C93.7803 73.7735 93.8504 73.5271 94.0005 73.353C94.0247 73.3182 94.0538 73.2914 94.0876 73.2619C94.7653 72.6941 96.4184 71.9415 98.2989 75.5277C100.463 79.663 100.777 84.8802 100.826 86.0935L101.593 87.5263L103.689 91.4393L106.31 96.3271C106.31 96.3271 109.098 95.7566 111.005 93.2471L106.293 84.4463L105.47 82.9063L105.461 82.8929L99.8309 74.127C99.8309 74.127 97.0597 72.7986 94.3297 71.3738C91.5996 69.9489 90.7259 64.9941 92.7153 65.3316C93.4705 65.4602 95.1356 66.1351 96.9097 66.9252C99.7995 68.2054 102.977 69.7802 102.977 69.7802C104.221 68.5241 106.339 69.2472 106.339 69.2472C106.339 69.2472 107.825 68.3768 109.311 68.6178C110.795 68.8615 117.589 75.9402 118.656 78.2837C119.728 80.6271 122.238 102.675 122.238 102.675L136.125 132.567H114.604Z" fill="white"/>
<path d="M95.5592 67.1367C95.5132 67.5171 95.4164 67.9616 95.2034 68.3286C94.971 68.7276 94.5088 68.8776 94.1142 68.6955L92.1901 67.8197C91.8174 67.6483 91.5923 67.2251 91.6383 66.7859C91.6746 66.4324 91.7642 66.0253 91.965 65.6878C92.1877 65.3102 92.6185 65.1602 93.0033 65.3102L94.9662 66.0681C95.368 66.2235 95.6148 66.6707 95.5592 67.1367Z" fill="#AFD4EF"/>
<path d="M96.3627 77.1615C95.8496 77.6248 95.0533 77.6516 94.6298 77.6302C94.4628 77.6221 94.3272 77.4855 94.2982 77.3034L93.848 74.2288C93.8287 74.0868 93.8795 73.9422 93.9811 73.8538C94.5184 73.3932 95.1695 73.3932 95.489 73.4307C95.6124 73.444 95.7237 73.5244 95.777 73.6503C96.1231 74.4725 96.4014 76.208 96.4885 76.7972C96.5079 76.9365 96.4595 77.0758 96.3627 77.1641V77.1615Z" fill="#AFD4EF"/>
<path d="M106.291 84.449C104.381 86.9585 101.593 87.529 101.593 87.529L100.826 86.0961C100.78 84.8829 100.465 79.663 98.2989 75.5304C96.4208 71.9415 94.7677 72.6968 94.0876 73.2646C94.0537 73.2914 94.0247 73.3208 94.0005 73.3557L88.3637 62.8247C88.4581 62.9774 88.7049 63.3684 89.0292 63.7139L89.0825 63.7728C89.1745 63.8666 89.2689 63.9576 89.3681 64.0326C89.3971 64.0594 89.4286 64.0808 89.4601 64.1049C89.5157 64.1478 89.5738 64.1853 89.6319 64.2174C89.673 64.2415 89.7142 64.263 89.7553 64.279C89.7965 64.2951 89.8376 64.3139 89.8812 64.3272C89.9199 64.338 89.9586 64.3487 89.9998 64.354H90.007C90.0482 64.3621 90.0893 64.3647 90.1305 64.3647C90.2636 64.3647 90.3967 64.3272 90.5274 64.2442C91.0332 63.9148 91.1373 63.2693 91.1179 62.7257C91.1179 62.7096 91.1179 62.6908 91.1155 62.6748C91.1131 62.573 91.1058 62.4792 91.0937 62.3935C91.0937 62.3775 91.0913 62.3614 91.0913 62.348C91.0841 62.3052 91.0792 62.2677 91.0768 62.2328C91.0744 62.2302 91.0744 62.2248 91.0744 62.2248C91.0405 61.9918 90.9921 61.8284 90.9873 61.7963C90.9945 61.8043 91.0066 61.8177 91.0211 61.8391C91.0308 61.8499 91.0405 61.8606 91.0502 61.874C91.0623 61.8874 91.0744 61.9061 91.0889 61.9195C91.1349 61.9704 91.1954 62.0347 91.2656 62.1043C91.2946 62.1391 91.3261 62.1659 91.3576 62.1954C91.3963 62.2302 91.4326 62.2677 91.4737 62.2998C91.4834 62.3105 91.4955 62.3212 91.5052 62.3266C91.5512 62.3694 91.5996 62.4069 91.6504 62.4418C91.6625 62.4525 91.6746 62.4632 91.6891 62.4739C91.7714 62.5301 91.8586 62.5864 91.9457 62.6292C91.9917 62.6533 92.0376 62.6774 92.0836 62.6962C92.1296 62.7176 92.178 62.731 92.224 62.7444C92.2676 62.7605 92.316 62.7712 92.362 62.7765C92.4902 62.798 92.6161 62.7926 92.742 62.7551C92.7807 62.7444 92.817 62.731 92.8557 62.7123C92.8944 62.6962 92.9331 62.6694 92.9719 62.6453C93.0759 62.5757 93.1534 62.4846 93.2139 62.3748C93.2284 62.3507 93.2429 62.3266 93.2551 62.2971C93.2768 62.2409 93.2962 62.19 93.3107 62.1338C93.318 62.1204 93.3204 62.1096 93.3204 62.0963C93.3349 62.0507 93.3446 62.0025 93.3519 61.9543C93.3615 61.8981 93.3664 61.8418 93.3712 61.7883C93.3736 61.7802 93.3736 61.7722 93.3736 61.7615C93.3833 61.6436 93.3833 61.5204 93.3761 61.3919C93.3736 61.3437 93.3688 61.2955 93.3664 61.2499C93.3543 61.0946 93.3349 60.9366 93.3059 60.7866C93.2986 60.7357 93.2914 60.6848 93.2768 60.6366C93.2647 60.567 93.2526 60.4973 93.2357 60.4304C93.2212 60.3607 93.2042 60.2938 93.1897 60.2322C93.1171 59.9429 93.0493 59.734 93.03 59.6831L96.9097 66.9252C95.1332 66.1351 93.468 65.4602 92.7153 65.3316C90.7259 64.9941 91.5996 69.9489 94.3297 71.3738C97.0597 72.7986 99.8309 74.127 99.8309 74.127L105.461 82.8929L105.47 82.9063L106.293 84.4463L106.291 84.449Z" fill="#E6AC4B"/>
<path d="M108.387 88.3593C106.477 90.8742 103.689 91.4393 103.689 91.4393L101.593 87.5263C101.593 87.5263 104.381 86.9559 106.291 84.4463L108.387 88.3593Z" fill="#C7C7C7"/>
<path d="M111.003 93.2471C109.096 95.7566 106.308 96.3271 106.308 96.3271L103.686 91.4393C103.686 91.4393 106.475 90.8715 108.384 88.3593L111.001 93.2471H111.003Z" fill="white"/>
<path d="M93.3688 61.3865C93.3761 61.5151 93.3761 61.6356 93.3664 61.7561C93.3664 61.7668 93.3664 61.7775 93.364 61.7829C93.3616 61.8391 93.3543 61.8954 93.3446 61.949C93.3422 61.9623 93.3373 61.9811 93.3349 61.9945C93.3325 62.0106 93.3325 62.0266 93.3253 62.04C93.3228 62.0561 93.318 62.0748 93.3131 62.0909C93.3107 62.1043 93.3059 62.115 93.3035 62.1284C93.2889 62.1846 93.2696 62.2355 93.2478 62.2891C93.2357 62.3212 93.2236 62.3453 93.2066 62.3694C93.1461 62.4819 93.0687 62.5703 92.9646 62.6399C92.9259 62.664 92.8872 62.6882 92.8485 62.7069C92.8097 62.723 92.7734 62.739 92.7347 62.7498C92.6088 62.7872 92.483 62.7926 92.3547 62.7712C92.3112 62.7631 92.2627 62.7551 92.2168 62.739C92.1708 62.7256 92.1224 62.7123 92.0764 62.6908C92.0304 62.6748 91.9844 62.648 91.9384 62.6239C91.8513 62.5783 91.7617 62.5221 91.6819 62.4685C91.6698 62.4578 91.6577 62.4471 91.6432 62.4364C91.5923 62.4016 91.5463 62.3641 91.4979 62.3212C91.4883 62.3132 91.4762 62.3052 91.4665 62.2945C91.4253 62.2623 91.389 62.2248 91.3503 62.19C91.3188 62.1632 91.2874 62.1311 91.2583 62.0989C91.1881 62.0293 91.1301 61.9677 91.0816 61.9141C91.0695 61.8981 91.0574 61.8793 91.0429 61.8686C91.0332 61.8552 91.0236 61.8445 91.0139 61.8338C90.9969 61.8124 90.9848 61.799 90.98 61.7909C90.9873 61.8231 91.0332 61.9865 91.0671 62.2195C91.0671 62.2195 91.0671 62.2221 91.0695 62.2275C91.072 62.2623 91.0792 62.2998 91.0841 62.3427C91.0841 62.356 91.0865 62.3694 91.0865 62.3882C91.0986 62.4739 91.1059 62.5703 91.1083 62.6694C91.1107 62.6855 91.1107 62.7042 91.1107 62.7203C91.1301 63.2667 91.026 63.9094 90.5201 64.2389C90.3919 64.3219 90.2563 64.3594 90.1232 64.3594C90.0821 64.3594 90.0409 64.3567 89.9998 64.3487H89.9925C89.9514 64.3406 89.9102 64.3326 89.8739 64.3219C89.8304 64.3085 89.7892 64.2898 89.7481 64.2737C89.7069 64.2576 89.6658 64.2362 89.6246 64.2121C89.5641 64.1799 89.5085 64.1424 89.4528 64.0996C89.4213 64.0755 89.3899 64.0541 89.3608 64.0273C89.2592 63.9496 89.1672 63.8612 89.0752 63.7675L89.022 63.7086C88.6977 63.3604 88.4508 62.9721 88.3564 62.8194C88.3322 62.7739 88.3153 62.7498 88.3153 62.7498L87.4053 57.5727C87.9208 57.262 88.6807 56.6942 89.0389 55.8747L93.013 59.6671C93.013 59.6671 93.013 59.6698 93.0155 59.6778C93.0348 59.7287 93.1026 59.9376 93.1752 60.2268C93.1897 60.2884 93.2066 60.3554 93.2212 60.425C93.2357 60.492 93.2502 60.5616 93.2623 60.6313C93.2744 60.6795 93.2841 60.7277 93.2914 60.7812C93.3204 60.9312 93.3373 61.0866 93.3519 61.2446C93.3543 61.2928 93.3591 61.341 93.3615 61.3865H93.3688Z" fill="white"/>
<path d="M89.0462 55.8773C88.688 56.6942 87.928 57.2647 87.4125 57.5754L87.0882 55.7327L87.8433 54.7284L89.0462 55.88V55.8773Z" fill="#29275F"/>
<path d="M114.604 132.768C114.524 132.768 114.452 132.709 114.43 132.618L108.619 108.379C108.145 107.822 102.58 101.239 99.8939 96.5146C99.405 95.6548 98.9669 94.8915 98.5772 94.2139C96.7015 90.9491 95.9246 89.5993 95.7189 88.2227C95.5059 86.7764 93.969 76.2776 93.6423 74.0413C93.5963 73.7413 93.681 73.4306 93.8722 73.2084C93.8964 73.1735 93.9352 73.1334 93.9836 73.0932C94.3539 72.7852 94.9589 72.4504 95.7237 72.6218C96.6749 72.8361 97.5946 73.7761 98.4562 75.4233C100.574 79.4674 100.942 84.5026 101.005 86.0319L106.397 96.0968C106.939 95.9548 109.168 95.2665 110.78 93.223L105.31 83.0054L99.7075 74.285C99.3324 74.1056 96.7572 72.8602 94.2474 71.5505C92.1248 70.4417 91.1373 67.4046 91.5318 65.9771C91.7085 65.3369 92.149 65.0263 92.7371 65.128C93.41 65.2432 94.8355 65.7815 96.9726 66.7323C99.5405 67.8679 102.365 69.2526 102.941 69.5391C104.132 68.4518 105.93 68.9124 106.317 69.0276C106.629 68.8589 107.968 68.1946 109.333 68.4143C110.986 68.6848 117.78 75.9188 118.813 78.1899C119.876 80.512 122.26 101.301 122.41 102.613L136.283 132.473C136.329 132.572 136.292 132.693 136.205 132.743C136.116 132.794 136.007 132.754 135.961 132.658L122.073 102.766C122.064 102.744 122.056 102.723 122.054 102.699C122.03 102.479 119.534 80.6593 118.489 78.372C117.414 76.0152 110.7 69.0463 109.28 68.8133C107.869 68.5857 106.433 69.4133 106.419 69.4213C106.375 69.4454 106.327 69.4508 106.281 69.4347C106.262 69.4267 104.246 68.7624 103.093 69.9221C103.04 69.9757 102.963 69.9891 102.897 69.9569C102.866 69.9409 99.6906 68.3687 96.8371 67.1046C94.7556 66.1806 93.318 65.6316 92.6815 65.5244C92.2724 65.4548 92.0014 65.6449 91.8779 66.0949C91.5173 67.3992 92.5048 70.198 94.4023 71.1889C97.0985 72.5977 99.8721 73.9261 99.8987 73.9395C99.9302 73.9529 99.9544 73.977 99.9737 74.0065L105.603 82.7724C105.603 82.7724 105.618 82.7965 105.62 82.7992L111.155 93.14C111.194 93.2123 111.187 93.306 111.138 93.3703C109.212 95.9066 106.455 96.4958 106.339 96.5199C106.264 96.536 106.189 96.4985 106.15 96.4262L100.666 86.1926C100.651 86.1631 100.642 86.131 100.642 86.0988C100.586 84.6552 100.24 79.6362 98.1392 75.6241C97.3308 74.0815 96.4934 73.203 95.6487 73.0155C95.017 72.8736 94.5088 73.1548 94.1965 73.4173C94.1699 73.4387 94.153 73.4548 94.1409 73.4735C94.0199 73.6155 93.969 73.7976 93.9957 73.9743C94.3224 76.2134 95.8593 86.7095 96.0723 88.1557C96.2659 89.452 97.0307 90.7804 98.8798 93.997C99.2694 94.6746 99.7075 95.4379 100.199 96.2976C102.972 101.175 108.854 108.069 108.912 108.138C108.934 108.162 108.948 108.192 108.955 108.224L114.779 132.51C114.805 132.618 114.747 132.727 114.65 132.757C114.636 132.762 114.619 132.765 114.604 132.765V132.768Z" fill="#29275F"/>
<path d="M103.689 91.6401C103.626 91.6401 103.565 91.6026 103.532 91.541L100.668 86.1952C100.654 86.1658 100.644 86.1336 100.644 86.1015C100.588 84.6579 100.242 79.6389 98.1416 75.6268C97.3332 74.0841 96.4958 73.2057 95.6511 73.0182C95.0194 72.8762 94.5112 73.1575 94.199 73.4199C94.1723 73.4414 94.1554 73.4574 94.1433 73.4762C94.1046 73.5271 94.0465 73.5538 93.9884 73.5512C93.9279 73.5458 93.8746 73.511 93.8456 73.4521L88.2088 62.9212C88.158 62.8274 88.1846 62.7069 88.2669 62.648C88.3492 62.5891 88.4581 62.6158 88.5137 62.7042C88.6275 62.889 88.8623 63.2479 89.1551 63.5639L89.2108 63.6255C89.31 63.7273 89.3923 63.8023 89.4722 63.8639C89.5036 63.8934 89.5206 63.9041 89.5351 63.9175L89.5641 63.9389C89.6101 63.9737 89.6585 64.0058 89.7118 64.0326C89.7529 64.0567 89.7868 64.0755 89.8231 64.0889C89.8594 64.1049 89.8957 64.121 89.9344 64.1317C89.9586 64.1371 89.9901 64.1478 90.0216 64.1532C90.0264 64.1532 90.0337 64.1532 90.0361 64.1532C90.174 64.1773 90.3096 64.1478 90.4354 64.0674C90.7912 63.8344 90.9582 63.3845 90.9364 62.7283C90.9364 62.7176 90.934 62.6855 90.934 62.6748C90.9316 62.5837 90.9267 62.498 90.9146 62.4176C90.9146 62.4069 90.9146 62.3962 90.9146 62.3855C90.9146 62.3775 90.9146 62.3694 90.9146 62.3641C90.9098 62.3266 90.905 62.2971 90.9025 62.273C90.9025 62.2677 90.9001 62.2596 90.8977 62.2543C90.8711 62.0802 90.8396 61.9489 90.8227 61.8847C90.8178 61.8606 90.813 61.8445 90.8106 61.8365C90.7936 61.7481 90.8299 61.6597 90.9025 61.6168C90.9727 61.574 91.0623 61.5901 91.118 61.6517C91.1276 61.6624 91.1422 61.6811 91.1615 61.7052C91.1639 61.7079 91.1736 61.7159 91.1809 61.7293C91.2002 61.7508 91.2172 61.7722 91.2293 61.7883C91.2607 61.8231 91.3188 61.882 91.3842 61.9489C91.4181 61.9891 91.4423 62.0105 91.4665 62.032L91.5004 62.0641C91.5246 62.0855 91.5463 62.1096 91.5705 62.1284C91.5802 62.1364 91.5875 62.1418 91.5947 62.1525C91.6528 62.2034 91.694 62.2355 91.7375 62.2677L91.7884 62.3078C91.8658 62.3587 91.9433 62.4069 92.0134 62.4417L92.0377 62.4525C92.0691 62.4685 92.1006 62.4873 92.1345 62.498C92.1829 62.5194 92.224 62.5301 92.2627 62.5435C92.3087 62.5596 92.3378 62.5676 92.3692 62.5703C92.4951 62.589 92.5943 62.5837 92.6887 62.5569C92.7226 62.5489 92.7516 62.5382 92.7807 62.5248C92.8121 62.5114 92.8436 62.49 92.8751 62.4712C92.9477 62.423 93.0058 62.356 93.0517 62.2703C93.0639 62.2489 93.0711 62.2355 93.0784 62.2221C93.0784 62.2168 93.0808 62.2114 93.0832 62.2087C93.1026 62.1659 93.1171 62.1204 93.1316 62.0748C93.1316 62.0695 93.1437 62.0266 93.1461 62.0239C93.1461 62.0132 93.151 61.9972 93.1558 61.9838C93.1558 61.9757 93.1582 61.9623 93.1582 61.9623L93.1679 61.9088C93.1752 61.8713 93.18 61.8231 93.1824 61.7775C93.1824 61.7668 93.1824 61.7561 93.1873 61.7454C93.1945 61.6302 93.1945 61.5258 93.1873 61.4053L93.1776 61.266C93.1655 61.108 93.1461 60.9607 93.1219 60.8294C93.1147 60.7732 93.1074 60.733 93.0977 60.6928C93.0832 60.6125 93.0711 60.5455 93.0566 60.4839C93.0396 60.4143 93.0251 60.35 93.0106 60.2884C92.9428 60.0126 92.8751 59.809 92.8557 59.7608C92.8194 59.6644 92.8581 59.5519 92.9428 59.5064C93.0275 59.4608 93.1316 59.493 93.18 59.584L97.0597 66.8261C97.0985 66.901 97.0912 66.9948 97.0404 67.0591C96.9895 67.1233 96.9073 67.1474 96.8346 67.1153C94.7532 66.1913 93.318 65.6449 92.679 65.5351C92.27 65.4655 91.9989 65.6557 91.8755 66.1056C91.5149 67.4099 92.5024 70.2087 94.3998 71.1997C97.096 72.6084 99.8697 73.9368 99.8963 73.9502C99.9278 73.9636 99.952 73.9877 99.9713 74.0172L105.601 82.7831C105.601 82.7831 105.615 82.8072 105.618 82.8099L108.537 88.2629C108.575 88.3352 108.568 88.4289 108.52 88.4959C106.588 91.0348 103.832 91.6214 103.715 91.6455C103.703 91.6455 103.694 91.6482 103.682 91.6482L103.689 91.6401ZM101.005 86.0372L103.778 91.2143C104.321 91.0723 106.55 90.3867 108.164 88.3405L105.31 83.0135L99.7075 74.293C99.3324 74.1136 96.7572 72.8682 94.2474 71.5585C92.1248 70.4497 91.1373 67.4126 91.5318 65.9851C91.7085 65.345 92.149 65.0343 92.7371 65.1361C93.3567 65.2432 94.6152 65.7065 96.4764 66.5207L93.5164 60.9982C93.5261 61.0705 93.5334 61.1508 93.5406 61.2312L93.5503 61.3758C93.5576 61.5258 93.5576 61.657 93.5479 61.7775C93.5479 61.7775 93.5479 61.799 93.5431 61.8231C93.5382 61.8793 93.5334 61.9356 93.5237 61.9918C93.5237 61.9918 93.5189 62.0186 93.5164 62.0213C93.5116 62.048 93.5068 62.0748 93.4995 62.1016C93.4947 62.1204 93.4922 62.1391 93.485 62.1578C93.485 62.1632 93.4826 62.1712 93.4826 62.1712C93.4608 62.2489 93.4414 62.3052 93.4196 62.3614C93.4172 62.3694 93.4148 62.3801 93.41 62.3882C93.393 62.4257 93.3761 62.4578 93.3543 62.4926C93.2841 62.6239 93.1849 62.7337 93.059 62.8194C93.013 62.8488 92.9622 62.8783 92.9186 62.8997C92.8726 62.9212 92.8267 62.9372 92.7807 62.9506C92.6427 62.9935 92.4927 63.0015 92.3305 62.9747C92.2797 62.972 92.2168 62.956 92.1562 62.9345C92.1151 62.9238 92.0619 62.9078 92.0086 62.8837C91.9723 62.8703 91.9287 62.8488 91.8828 62.8247C91.7787 62.7712 91.6916 62.7176 91.5851 62.6453L91.5342 62.6051C91.4907 62.5757 91.4374 62.5328 91.3842 62.4846C91.3818 62.4846 91.3672 62.4712 91.3527 62.4551C91.3261 62.4337 91.3019 62.4123 91.2753 62.3882C91.2849 62.4658 91.2922 62.5516 91.2946 62.656C91.2971 62.6801 91.2971 62.7042 91.2971 62.7283C91.3237 63.5238 91.0889 64.113 90.617 64.421C90.4209 64.5469 90.2055 64.5924 89.9901 64.5602C89.9828 64.5602 89.978 64.5602 89.9732 64.5602C89.9272 64.5522 89.8788 64.5415 89.8376 64.5281C89.782 64.512 89.736 64.4906 89.69 64.4719C89.6416 64.4504 89.5956 64.4263 89.5472 64.3996C89.4964 64.3728 89.4359 64.3326 89.3608 64.279L89.3463 64.2683L94.0489 73.0557C94.4216 72.7638 95.0025 72.4745 95.7237 72.6352C96.6749 72.8495 97.5946 73.7895 98.4562 75.4367C100.574 79.4808 100.942 84.516 101.005 86.0452V86.0372Z" fill="#29275F"/>
<path d="M106.308 96.5307C106.245 96.5307 106.184 96.4932 106.15 96.4316L103.529 91.5437C103.5 91.4875 103.495 91.4179 103.519 91.3589C103.544 91.3 103.594 91.2572 103.653 91.2438C103.679 91.2384 106.4 90.6572 108.244 88.2307C108.283 88.1798 108.338 88.1531 108.399 88.1611C108.457 88.1664 108.51 88.2039 108.539 88.2602L111.155 93.148C111.194 93.2203 111.187 93.3141 111.138 93.3783C109.212 95.9146 106.455 96.5039 106.339 96.528C106.327 96.528 106.317 96.5307 106.305 96.5307H106.308ZM103.97 91.5759L106.395 96.1021C106.937 95.9602 109.166 95.2719 110.778 93.2284L108.355 88.7021C106.758 90.6679 104.684 91.3804 103.97 91.5759Z" fill="#29275F"/>
<path d="M90.1305 64.5656C90.0845 64.5656 90.0385 64.5629 89.9901 64.5549C89.9828 64.5549 89.978 64.5549 89.9732 64.5549C89.9272 64.5469 89.8788 64.5361 89.8376 64.5228C89.782 64.5067 89.736 64.4853 89.69 64.4665C89.6416 64.4451 89.5956 64.421 89.5472 64.3942C89.4964 64.3674 89.4359 64.3272 89.3608 64.2737L89.3342 64.2549C89.3052 64.2335 89.2761 64.2121 89.2495 64.1853C89.1721 64.1291 89.0777 64.0434 88.9615 63.9228L88.9034 63.8585C88.5888 63.5211 88.3371 63.1381 88.216 62.9399C88.1918 62.8971 88.1773 62.8756 88.1773 62.8729C88.1628 62.8488 88.1531 62.8221 88.1483 62.7953L86.9139 55.7756C86.9043 55.7166 86.9188 55.655 86.9527 55.6095L87.7078 54.6052C87.7392 54.5623 87.7828 54.5382 87.8336 54.5328C87.882 54.5302 87.9304 54.5462 87.9668 54.5811L93.1437 59.5251C93.1728 59.5519 93.1921 59.5867 93.2018 59.6269C93.2357 59.7233 93.2986 59.9242 93.364 60.184C93.3809 60.2483 93.3954 60.3152 93.4124 60.3875C93.4293 60.4545 93.4414 60.5295 93.4559 60.6018C93.468 60.6446 93.4777 60.7009 93.485 60.7625C93.5092 60.8937 93.531 61.0571 93.5455 61.2339L93.5552 61.3785C93.5552 61.3785 93.5552 61.3812 93.5552 61.3838C93.5624 61.5311 93.5624 61.6597 93.5528 61.7802C93.5528 61.7802 93.5527 61.8016 93.5479 61.8258C93.5431 61.882 93.5382 61.9382 93.5286 61.9945C93.5286 61.9945 93.5237 62.0213 93.5213 62.0239C93.5164 62.0507 93.5116 62.0775 93.5043 62.1043C93.4995 62.123 93.4971 62.1418 93.4898 62.1605C93.4898 62.1659 93.4874 62.1739 93.4874 62.1739C93.4656 62.2516 93.4463 62.3078 93.4245 62.3641C93.4221 62.3721 93.4196 62.3828 93.4148 62.3909C93.3979 62.4284 93.3809 62.4605 93.3591 62.4953C93.2889 62.6266 93.1897 62.7364 93.0639 62.8221C93.0179 62.8515 92.967 62.881 92.9235 62.9024C92.8775 62.9238 92.8315 62.9399 92.7855 62.9533C92.6476 62.9961 92.4975 63.0042 92.3354 62.9774C92.2845 62.9694 92.2313 62.9587 92.1756 62.9426C92.1175 62.9265 92.0667 62.9104 92.0135 62.8863C91.9772 62.873 91.9336 62.8515 91.8876 62.8274C91.7835 62.7739 91.6964 62.7203 91.5899 62.648L91.5391 62.6078C91.4955 62.5783 91.4423 62.5355 91.389 62.4873C91.3866 62.4873 91.3721 62.4739 91.3576 62.4578C91.3309 62.4364 91.3067 62.415 91.2801 62.3909C91.2898 62.4685 91.2971 62.5542 91.2995 62.6587C91.3019 62.6828 91.3019 62.7069 91.3019 62.731C91.3285 63.5264 91.0937 64.1157 90.6218 64.4237C90.4693 64.5228 90.3047 64.5736 90.1329 64.5736L90.1305 64.5656ZM90.0191 64.1532C90.0191 64.1532 90.0313 64.1532 90.0337 64.1532C90.1716 64.1773 90.3072 64.1478 90.433 64.0675C90.7888 63.8344 90.9558 63.3845 90.934 62.7283C90.934 62.7176 90.9316 62.6855 90.9316 62.6748C90.9292 62.5837 90.9243 62.498 90.9122 62.4176C90.9122 62.4069 90.9122 62.3962 90.9122 62.3855C90.9122 62.3775 90.9122 62.3694 90.9122 62.3641C90.9074 62.3266 90.9025 62.2971 90.9001 62.273C90.9001 62.2677 90.8977 62.2596 90.8953 62.2543C90.8687 62.0802 90.8372 61.949 90.8203 61.8847C90.8154 61.8606 90.8106 61.8445 90.8082 61.8365C90.7912 61.7481 90.8275 61.6597 90.9001 61.6168C90.9703 61.574 91.0599 61.5901 91.1155 61.6517C91.1252 61.6624 91.1397 61.6811 91.1591 61.7052C91.1615 61.7079 91.1712 61.7159 91.1785 61.7293C91.1978 61.7508 91.2148 61.7722 91.2269 61.7883C91.2583 61.8231 91.3164 61.882 91.3818 61.949C91.4108 61.9811 91.4374 62.0079 91.4641 62.032L91.4979 62.0641C91.5221 62.0855 91.5439 62.1096 91.5681 62.1284C91.5778 62.1364 91.5851 62.1418 91.5923 62.1525C91.6504 62.2034 91.6916 62.2355 91.7351 62.2677L91.7859 62.3078C91.8634 62.3587 91.9408 62.4069 92.011 62.4418L92.0352 62.4525C92.0667 62.4685 92.0982 62.4873 92.132 62.498C92.1804 62.5194 92.2216 62.5301 92.2603 62.5435C92.3039 62.5569 92.3426 62.565 92.3813 62.5703C92.4951 62.5891 92.5943 62.5837 92.6887 62.5542C92.7226 62.5462 92.7516 62.5355 92.7807 62.5221C92.8121 62.5087 92.8436 62.4873 92.8751 62.4685C92.9477 62.4203 93.0058 62.3534 93.0518 62.2677C93.0639 62.2462 93.0711 62.2328 93.0784 62.2195C93.0784 62.2141 93.0808 62.2087 93.0832 62.2061C93.1026 62.1632 93.1171 62.1177 93.1316 62.0721C93.1316 62.0668 93.1437 62.0239 93.1461 62.0213C93.1461 62.0105 93.151 61.9945 93.1558 61.9811C93.1558 61.9731 93.1582 61.9597 93.1582 61.9597L93.1679 61.9061C93.1752 61.8686 93.18 61.8204 93.1824 61.7749C93.1824 61.7642 93.1825 61.7534 93.1873 61.7427C93.1946 61.6276 93.1946 61.5231 93.1873 61.4026L93.1776 61.2633C93.1655 61.1053 93.1461 60.958 93.1219 60.8268C93.1147 60.7705 93.1074 60.7303 93.0977 60.6902C93.0832 60.6098 93.0711 60.5429 93.0566 60.4813C93.0396 60.4116 93.0251 60.3474 93.0106 60.2858C92.9525 60.0527 92.8944 59.8706 92.8678 59.7903L87.8651 55.0123L87.2842 55.7863L88.4968 62.6721C88.4968 62.6721 88.5113 62.6962 88.521 62.7149C88.6299 62.8944 88.8671 63.2533 89.1599 63.5666L89.2156 63.6282C89.3148 63.73 89.3971 63.805 89.477 63.8666C89.5085 63.896 89.5254 63.9068 89.5399 63.9202L89.569 63.9416C89.615 63.9764 89.6634 64.0085 89.7166 64.0353C89.7578 64.0594 89.7916 64.0782 89.8279 64.0916C89.8642 64.1076 89.9006 64.1237 89.9393 64.1344C89.9635 64.1398 89.9949 64.1505 90.0264 64.1558L90.0191 64.1532Z" fill="#29275F"/>
<path d="M92.7105 65.5325C92.6427 65.5325 92.5798 65.4923 92.5483 65.42L91.0962 62.19C91.0526 62.0909 91.0889 61.9704 91.1785 61.9195C91.268 61.8686 91.3769 61.9115 91.4229 62.0106L92.8751 65.2405C92.9186 65.3396 92.8823 65.4602 92.7928 65.511C92.7662 65.5244 92.7395 65.5325 92.7129 65.5325H92.7105Z" fill="#29275F"/>
<path d="M104.354 86.4765C104.294 86.4765 104.233 86.4416 104.2 86.38L100.591 79.904C100.538 79.8103 100.564 79.6871 100.651 79.6281C100.736 79.5692 100.847 79.5987 100.901 79.6951L104.509 86.1711C104.563 86.2649 104.536 86.3881 104.449 86.447C104.42 86.4684 104.386 86.4765 104.354 86.4765Z" fill="#29275F"/>
<path d="M111.003 80.0004C110.952 80.0004 110.904 79.979 110.867 79.9335L102.837 69.9141C102.772 69.8311 102.776 69.7052 102.851 69.6302C102.926 69.5579 103.04 69.5632 103.108 69.6463L111.138 79.6656C111.204 79.7487 111.199 79.8745 111.124 79.9495C111.09 79.9844 111.047 80.0004 111.003 80.0004Z" fill="#29275F"/>
<path d="M113.873 77.0356C113.83 77.0356 113.786 77.0195 113.752 76.982L106.213 69.3945C106.138 69.3195 106.133 69.1936 106.201 69.1106C106.269 69.0276 106.383 69.0222 106.458 69.0972L113.997 76.6847C114.072 76.7597 114.077 76.8856 114.009 76.9686C113.973 77.0115 113.924 77.0356 113.876 77.0356H113.873Z" fill="#29275F"/>
<path d="M108.781 108.481C108.696 108.481 108.621 108.417 108.604 108.32C108.585 108.211 108.646 108.106 108.745 108.082C108.767 108.077 110.957 107.565 112.269 106.997C112.363 106.957 112.467 107.008 112.504 107.11C112.54 107.214 112.494 107.329 112.402 107.37C111.063 107.948 108.912 108.452 108.822 108.473C108.81 108.476 108.798 108.478 108.784 108.478L108.781 108.481Z" fill="#29275F"/>
<path d="M51.6312 51.9349C52.087 51.9349 52.4565 51.526 52.4565 51.0216C52.4565 50.5173 52.087 50.1084 51.6312 50.1084C51.1754 50.1084 50.8059 50.5173 50.8059 51.0216C50.8059 51.526 51.1754 51.9349 51.6312 51.9349Z" fill="#AFD4EF"/>
<path d="M55.6246 51.9349C55.1672 51.9349 54.7993 51.5252 54.7993 51.0216C54.7993 50.5181 55.1696 50.1084 55.6246 50.1084C56.0796 50.1084 56.4499 50.5181 56.4499 51.0216C56.4499 51.5252 56.0796 51.9349 55.6246 51.9349Z" fill="#AFD4EF"/>
<path d="M51.6312 56.3514C52.087 56.3514 52.4565 55.9425 52.4565 55.4381C52.4565 54.9337 52.087 54.5248 51.6312 54.5248C51.1754 54.5248 50.8059 54.9337 50.8059 55.4381C50.8059 55.9425 51.1754 56.3514 51.6312 56.3514Z" fill="#AFD4EF"/>
<path d="M51.6312 60.7678C52.087 60.7678 52.4565 60.3589 52.4565 59.8545C52.4565 59.3502 52.087 58.9413 51.6312 58.9413C51.1754 58.9413 50.8059 59.3502 50.8059 59.8545C50.8059 60.3589 51.1754 60.7678 51.6312 60.7678Z" fill="#AFD4EF"/>
<path d="M51.6312 65.187C52.087 65.187 52.4565 64.7781 52.4565 64.2737C52.4565 63.7693 52.087 63.3604 51.6312 63.3604C51.1754 63.3604 50.8059 63.7693 50.8059 64.2737C50.8059 64.7781 51.1754 65.187 51.6312 65.187Z" fill="#AFD4EF"/>
<path d="M50.8059 68.6901C50.8059 68.1839 51.1762 67.7768 51.6312 67.7768C52.0862 67.7768 52.4565 68.1866 52.4565 68.6901C52.4565 69.1936 52.0862 69.6034 51.6312 69.6034C51.1762 69.6034 50.8059 69.1936 50.8059 68.6901Z" fill="#AFD4EF"/>
<path d="M55.6246 56.3541C55.1672 56.3541 54.7993 55.9443 54.7993 55.4408C54.7993 54.9373 55.1696 54.5275 55.6246 54.5275C56.0796 54.5275 56.4499 54.9373 56.4499 55.4408C56.4499 55.9443 56.0796 56.3541 55.6246 56.3541Z" fill="#AFD4EF"/>
<path d="M54.7969 59.8545C54.7969 59.3484 55.1672 58.9413 55.6222 58.9413C56.0772 58.9413 56.4475 59.351 56.4475 59.8545C56.4475 60.3581 56.0772 60.7678 55.6222 60.7678C55.1672 60.7678 54.7969 60.3581 54.7969 59.8545Z" fill="#AFD4EF"/>
<path d="M54.7969 64.2737C54.7969 63.7675 55.1672 63.3604 55.6222 63.3604C56.0772 63.3604 56.4475 63.7702 56.4475 64.2737C56.4475 64.7772 56.0772 65.187 55.6222 65.187C55.1672 65.187 54.7969 64.7772 54.7969 64.2737Z" fill="#AFD4EF"/>
<path d="M54.7969 68.6901C54.7969 68.1839 55.1672 67.7768 55.6222 67.7768C56.0772 67.7768 56.4475 68.1866 56.4475 68.6901C56.4475 69.1936 56.0772 69.6034 55.6222 69.6034C55.1672 69.6034 54.7969 69.1936 54.7969 68.6901Z" fill="#AFD4EF"/>
<path d="M51.6312 74.0199C52.087 74.0199 52.4565 73.611 52.4565 73.1066C52.4565 72.6022 52.087 72.1933 51.6312 72.1933C51.1754 72.1933 50.8059 72.6022 50.8059 73.1066C50.8059 73.611 51.1754 74.0199 51.6312 74.0199Z" fill="#AFD4EF"/>
<path d="M54.7969 73.1066C54.7969 72.6004 55.1672 72.1933 55.6222 72.1933C56.0772 72.1933 56.4475 72.6031 56.4475 73.1066C56.4475 73.6101 56.0772 74.0199 55.6222 74.0199C55.1672 74.0199 54.7969 73.6101 54.7969 73.1066Z" fill="#AFD4EF"/>
<path d="M112.733 51.9805C112.276 51.9805 111.908 51.5707 111.908 51.0672C111.908 50.5637 112.278 50.1539 112.733 50.1539C113.188 50.1539 113.559 50.5637 113.559 51.0672C113.559 51.5707 113.188 51.9805 112.733 51.9805Z" fill="#AFD4EF"/>
<path d="M116.727 51.9805C116.269 51.9805 115.902 51.5707 115.902 51.0672C115.902 50.5637 116.272 50.1539 116.727 50.1539C117.182 50.1539 117.552 50.5637 117.552 51.0672C117.552 51.5707 117.182 51.9805 116.727 51.9805Z" fill="#AFD4EF"/>
<path d="M112.733 56.3969C113.189 56.3969 113.559 55.988 113.559 55.4837C113.559 54.9793 113.189 54.5704 112.733 54.5704C112.278 54.5704 111.908 54.9793 111.908 55.4837C111.908 55.988 112.278 56.3969 112.733 56.3969Z" fill="#AFD4EF"/>
<path d="M112.733 60.8134C113.189 60.8134 113.559 60.4045 113.559 59.9001C113.559 59.3957 113.189 58.9868 112.733 58.9868C112.278 58.9868 111.908 59.3957 111.908 59.9001C111.908 60.4045 112.278 60.8134 112.733 60.8134Z" fill="#AFD4EF"/>
<path d="M112.733 65.2298C113.189 65.2298 113.559 64.8209 113.559 64.3165C113.559 63.8122 113.189 63.4033 112.733 63.4033C112.278 63.4033 111.908 63.8122 111.908 64.3165C111.908 64.8209 112.278 65.2298 112.733 65.2298Z" fill="#AFD4EF"/>
<path d="M116.727 56.3969C117.183 56.3969 117.552 55.988 117.552 55.4837C117.552 54.9793 117.183 54.5704 116.727 54.5704C116.271 54.5704 115.902 54.9793 115.902 55.4837C115.902 55.988 116.271 56.3969 116.727 56.3969Z" fill="#AFD4EF"/>
<path d="M116.727 60.8134C117.183 60.8134 117.552 60.4045 117.552 59.9001C117.552 59.3957 117.183 58.9868 116.727 58.9868C116.271 58.9868 115.902 59.3957 115.902 59.9001C115.902 60.4045 116.271 60.8134 116.727 60.8134Z" fill="#AFD4EF"/>
<path d="M116.727 65.2298C117.183 65.2298 117.552 64.8209 117.552 64.3165C117.552 63.8122 117.183 63.4033 116.727 63.4033C116.271 63.4033 115.902 63.8122 115.902 64.3165C115.902 64.8209 116.271 65.2298 116.727 65.2298Z" fill="#AFD4EF"/>
<path d="M108.612 51.8252C109.068 51.8252 109.437 51.4163 109.437 50.9119C109.437 50.4075 109.068 49.9986 108.612 49.9986C108.156 49.9986 107.786 50.4075 107.786 50.9119C107.786 51.4163 108.156 51.8252 108.612 51.8252Z" fill="#AFD4EF"/>
<path d="M108.612 56.2443C109.068 56.2443 109.437 55.8354 109.437 55.331C109.437 54.8266 109.068 54.4177 108.612 54.4177C108.156 54.4177 107.786 54.8266 107.786 55.331C107.786 55.8354 108.156 56.2443 108.612 56.2443Z" fill="#AFD4EF"/>
<path d="M108.612 60.6607C109.068 60.6607 109.437 60.2518 109.437 59.7474C109.437 59.243 109.068 58.8341 108.612 58.8341C108.156 58.8341 107.786 59.243 107.786 59.7474C107.786 60.2518 108.156 60.6607 108.612 60.6607Z" fill="#AFD4EF"/>
<path d="M107.786 64.1639C107.786 63.6577 108.157 63.2506 108.612 63.2506C109.067 63.2506 109.437 63.6604 109.437 64.1639C109.437 64.6674 109.067 65.0772 108.612 65.0772C108.157 65.0772 107.786 64.6674 107.786 64.1639Z" fill="#AFD4EF"/>
<path d="M113.22 32.3462C113.22 32.6274 113.014 32.855 112.76 32.855H111.56V34.1834C111.56 34.4647 111.354 34.6923 111.1 34.6923C110.971 34.6923 110.858 34.6361 110.773 34.5423C110.691 34.4486 110.637 34.3227 110.637 34.1808V32.8523H109.437C109.183 32.8523 108.977 32.6247 108.977 32.3435C108.977 32.2015 109.028 32.0757 109.113 31.9819C109.197 31.8909 109.311 31.8319 109.439 31.8319H110.64V30.5089C110.64 30.2277 110.846 30 111.1 30C111.228 30 111.342 30.0562 111.426 30.15C111.509 30.2437 111.562 30.3696 111.562 30.5115V31.84H112.762C113.017 31.84 113.222 32.0676 113.222 32.3488L113.22 32.3462Z" fill="#AFD4EF"/>
<path d="M112.242 38.0669C111.443 38.0669 111.441 39.4435 112.242 39.4435C113.043 39.4435 113.043 38.0669 112.242 38.0669Z" fill="#AFD4EF"/>
<path d="M117.947 32.4854C117.146 32.4854 117.146 33.8621 117.947 33.8621C118.748 33.8621 118.748 32.4854 117.947 32.4854Z" fill="#AFD4EF"/>
<path d="M58.5701 38.3883C58.5701 38.6695 58.3643 38.8972 58.1102 38.8972H56.9098V40.2256C56.9098 40.5068 56.704 40.7345 56.4499 40.7345C56.3216 40.7345 56.2079 40.6782 56.1232 40.5845C56.0409 40.4907 55.9876 40.3649 55.9876 40.2229V38.8945H54.7872C54.533 38.8945 54.3273 38.6668 54.3273 38.3856C54.3273 38.2437 54.3782 38.1178 54.4629 38.0241C54.5476 37.933 54.6613 37.8741 54.7896 37.8741H55.9901V36.5457C55.9901 36.2644 56.1958 36.0368 56.4499 36.0368C56.5782 36.0368 56.6919 36.093 56.7766 36.1868C56.8589 36.2805 56.9122 36.4064 56.9122 36.5483V37.8768H58.1126C58.3668 37.8768 58.5725 38.1044 58.5725 38.3856L58.5701 38.3883Z" fill="#AFD4EF"/>
<path d="M51.0721 36.6903C50.2734 36.6903 50.2709 38.0669 51.0721 38.0669C51.8732 38.0669 51.8732 36.6903 51.0721 36.6903Z" fill="#AFD4EF"/>
<path d="M59.7802 31.8721C58.9815 31.8721 58.9791 33.2487 59.7802 33.2487C60.5813 33.2487 60.5813 31.8721 59.7802 31.8721Z" fill="#AFD4EF"/>
<path d="M39.6677 60.0661C39.6677 60.3474 39.462 60.575 39.2079 60.575H38.0074V61.9034C38.0074 62.1846 37.8017 62.4123 37.5476 62.4123C37.4193 62.4123 37.3055 62.3561 37.2208 62.2623C37.1385 62.1686 37.0853 62.0427 37.0853 61.9007V60.5723H35.8848C35.6307 60.5723 35.425 60.3447 35.425 60.0635C35.425 59.9215 35.4758 59.7956 35.5605 59.7019C35.6452 59.6108 35.759 59.5519 35.8872 59.5519H37.0877V58.2235C37.0877 57.9423 37.2934 57.7146 37.5476 57.7146C37.6758 57.7146 37.7896 57.7709 37.8743 57.8646C37.9566 57.9584 38.0098 58.0842 38.0098 58.2262V59.5546H39.2103C39.4644 59.5546 39.6701 59.7822 39.6701 60.0635L39.6677 60.0661Z" fill="#AFD4EF"/>
<path d="M31.9954 58.4887C31.1943 58.4887 31.1943 59.8653 31.9954 59.8653C32.7966 59.8653 32.7966 58.4887 31.9954 58.4887Z" fill="#AFD4EF"/>
</svg>
