<svg width="18" height="23" viewBox="0 0 18 23" fill="none" xmlns="http://www.w3.org/2000/svg">
<path d="M16.9633 0.798767C16.4703 0.346841 15.7137 0.346841 15.2207 0.798767L9 6.50165L2.7793 0.798767C2.28634 0.346841 1.52967 0.346841 1.03671 0.798766C0.479296 1.30978 0.479294 2.18857 1.03671 2.69958L8.58072 9.61562C8.81794 9.83309 9.18206 9.83309 9.41928 9.61562L16.9633 2.69958C17.5207 2.18857 17.5207 1.30978 16.9633 0.798767Z" fill="#242424"/>
<path d="M16.9633 13.7988C16.4703 13.3468 15.7137 13.3468 15.2207 13.7988L9 19.5017L2.7793 13.7988C2.28634 13.3468 1.52967 13.3468 1.03671 13.7988C0.479296 14.3098 0.479294 15.1886 1.03671 15.6996L8.58072 22.6156C8.81794 22.8331 9.18206 22.8331 9.41928 22.6156L16.9633 15.6996C17.5207 15.1886 17.5207 14.3098 16.9633 13.7988Z" fill="#242424"/>
</svg>
